<?xml version="1.0" standalone="no"?>
<!DOCTYPE svg PUBLIC "-//W3C//DTD SVG 1.1//EN" "http://www.w3.org/Graphics/SVG/1.1/DTD/svg11.dtd" >
<svg>
<metadata>
Created by FontForge 20090914 at Fri Aug 21 19:19:38 2015
 By www-data
&#194;&#169; 2014 Apple Inc. All rights reserved.
</metadata>
<defs>
<font id="SanFranciscoText-Thin" horiz-adv-x="1092" >
  <font-face 
    font-family="San Francisco Text"
    font-weight="200"
    font-stretch="normal"
    units-per-em="2048"
    panose-1="0 0 0 0 0 0 0 0 0 0"
    ascent="1638"
    descent="-410"
    x-height="1035"
    cap-height="1360"
    bbox="-39 -472.055 2048 1752"
    underline-thickness="50"
    underline-position="-25"
    unicode-range="U+000D-U+FB02"
  />
<missing-glyph horiz-adv-x="748" 
d="M68 0v1365h544v-1365h-544zM136 68h408v1229h-408v-1229z" />
    <glyph glyph-name=".notdef" horiz-adv-x="748" 
d="M68 0v1365h544v-1365h-544zM136 68h408v1229h-408v-1229z" />
    <glyph glyph-name="uni000D" unicode="&#xd;" horiz-adv-x="0" 
 />
    <glyph glyph-name="space" unicode=" " horiz-adv-x="465" 
 />
    <glyph glyph-name="exclam" unicode="!" horiz-adv-x="530" 
d="M181 68c0 24 8 44.167 24 60.5s35.667 24.5 59 24.5s43.333 -8.16699 60 -24.5s25 -36.5 25 -60.5c0 -22.667 -8.33301 -42.167 -25 -58.5s-36.667 -24.5 -60 -24.5c-22.667 0 -42.167 8.16699 -58.5 24.5s-24.5 35.833 -24.5 58.5zM221 1360h87l-8 -966h-70z" />
    <glyph glyph-name="quotedbl" unicode="&#x22;" horiz-adv-x="653" 
d="M155 1360h95l-16 -431h-62zM403 1360h95l-16 -431h-62z" />
    <glyph glyph-name="numbersign" unicode="#" horiz-adv-x="1238" 
d="M94 419l14 70h236l78 392h-223l14 70h223l85 413h72l-85 -413h354l85 413h72l-86 -413h248l-14 -70h-248l-79 -392h235l-14 -70h-235l-87 -419h-71l86 419h-354l-87 -419h-71l86 419h-234zM415 489h354l78 392h-353z" />
    <glyph glyph-name="dollar" unicode="$" 
d="M84 346l83 -0.000976562c2 -74 33.833 -138.167 95.5 -192.5s147.167 -84.166 256.5 -89.499v606l-90 24c-98.667 26 -174.834 66.167 -228.501 120.5s-80.5 127.166 -80.5 218.499c0 99.333 36 179.5 108 240.5s169 94.167 291 99.5v133h73v-134
c117.333 -6.66699 210.833 -40.167 280.5 -100.5s105.167 -134.166 106.5 -221.499h-81c-1.33301 62 -28.333 117.333 -81 166s-127.667 76.334 -225 83.001v-566l49 -12c124 -32.667 214.833 -77.5 272.5 -134.5s86.5 -133.833 86.5 -230.5
c0 -108 -37.167 -193.833 -111.5 -257.5s-173.166 -99.167 -296.499 -106.5v-135h-73v133c-72.667 2 -137.5 13.833 -194.5 35.5s-102.5 49.667 -136.5 84s-59.833 71.666 -77.5 111.999s-26.5 81.833 -26.5 124.5zM203 1041c0 -69.333 21.6689 -125.999 65.002 -169.999
s107.333 -78 192 -102c1.33301 -0.666992 11.166 -3.5 29.499 -8.5s28.166 -7.83301 29.499 -8.5v547c-96.667 -4.66699 -173.5 -30.334 -230.5 -77.001s-85.5 -107 -85.5 -181zM592.002 64c98.667 6.66699 177.5 35.334 236.5 86.001s88.5 117 88.5 199
c0 78.667 -24 140.667 -72 186s-126.667 82.666 -236 111.999c-0.666992 0.666992 -3.5 1.66699 -8.5 3s-7.83301 2 -8.5 2v-588z" />
    <glyph glyph-name="percent" unicode="%" horiz-adv-x="1477" 
d="M98 1037v35.999c0 94 23.167 169.833 69.5 227.5s103.5 86.5 171.5 86.5c67.333 0 124.333 -28.833 171 -86.5s70 -133.5 70 -227.5v-37c0 -94.667 -23.167 -170.667 -69.5 -228s-103.5 -86 -171.5 -86s-125.167 28.833 -171.5 86.5s-69.5 133.834 -69.5 228.501z
M167 1040c0 -77.333 16.499 -138.833 49.499 -184.5s73.833 -68.5 122.5 -68.5s89.334 22.667 122.001 68s49 106.666 49 183.999v31c0 76.667 -16.167 137.834 -48.5 183.501s-72.833 68.5 -121.5 68.5c-49.333 0 -90.5 -22.833 -123.5 -68.5s-49.5 -106.5 -49.5 -182.5
v-31zM181.999 -0.000976562l514 680l514 680h82l-513 -680l-514 -680h-83zM896.999 304.999v36.999c0 93.333 23.333 168.833 70 226.5s104 86.5 172 86.5c67.333 0 124.333 -28.833 171 -86.5s70 -133.5 70 -227.5v-37c0 -94 -23.333 -169.833 -70 -227.5
s-103.667 -86.5 -171 -86.5c-68 0 -125.333 28.833 -172 86.5s-70 133.834 -70 228.501zM966.999 307.998c0 -77.333 16.5 -138.833 49.5 -184.5s73.833 -68.5 122.5 -68.5s89.334 22.833 122.001 68.5s49 107.167 49 184.5v31c0 76 -16.333 136.833 -49 182.5
s-73.334 68.5 -122.001 68.5s-89.5 -22.833 -122.5 -68.5s-49.5 -106.5 -49.5 -182.5v-31z" />
    <glyph glyph-name="ampersand" unicode="&#x26;" horiz-adv-x="1312" 
d="M101 342c0 149.333 92.6641 271.669 277.997 367.002l38.5 19.5l38.5 19.5c-70.667 70.667 -121.5 131 -152.5 181s-46.5 103 -46.5 159c0 85.333 31.333 154 94 206s139 78 229 78c92.667 0 168.167 -27.833 226.5 -83.5s87.5 -123.834 87.5 -204.501
c0 -70.667 -25.5 -133.834 -76.5 -189.501s-130.5 -110.5 -238.5 -164.5l410 -439c26.667 42 49.334 99.167 68.001 171.5s29.334 147.5 32.001 225.5c0 6 0.166992 17.167 0.5 33.5s0.5 27.833 0.5 34.5h78c0 -7.33301 -0.166992 -19.5 -0.5 -36.5s-0.5 -28.833 -0.5 -35.5
c-3.33301 -88 -15.666 -172 -36.999 -252s-49.666 -145.333 -84.999 -196l222 -236h-111l-161 174c-60.667 -66 -132.167 -116 -214.5 -150s-164.833 -51 -247.5 -51c-77.333 0 -148.333 13.833 -213 41.5s-117.334 70 -158.001 127s-61 123.833 -61 200.5zM185.997 343.003
c0 -85.333 33.1689 -155.832 99.502 -211.499s149.5 -83.5 249.5 -83.5c73.333 0 147.166 15.667 221.499 47s136.166 75.666 185.499 132.999l-434 467c-48 -24 -76 -38.667 -84 -44c-158.667 -83.333 -238 -186 -238 -308zM339.999 1084c0 -47.333 14 -92.001 42 -134.001
s76.333 -98.333 145 -169c103.333 50 176.5 98.333 219.5 145s64.5 98.334 64.5 155.001c0 62.667 -21.5 114.667 -64.5 156s-98.833 62 -167.5 62c-68 0 -124.833 -20 -170.5 -60s-68.5 -91.667 -68.5 -155z" />
    <glyph glyph-name="quotesingle" unicode="'" horiz-adv-x="406" 
d="M155 1360h95l-16 -431h-62z" />
    <glyph glyph-name="parenleft" unicode="(" horiz-adv-x="610" 
d="M174 566c0 83.333 5.99902 162.998 17.999 238.998s26.333 140.333 43 193s37.667 104.5 63 155.5s47.333 90.5 66 118.5s40.334 58 65.001 90h66c-18 -23.333 -36.167 -49.333 -54.5 -78s-39.166 -68.167 -62.499 -118.5s-43.666 -103.166 -60.999 -158.499
s-32 -122 -44 -200s-18 -158.333 -18 -241s6 -163.334 18 -242.001s26 -145.334 42 -200.001s36.5 -110.167 61.5 -166.5s45.5 -98.666 61.5 -126.999s34.667 -59.5 56 -93.5h-71c-20.667 26.667 -40.834 56.167 -60.501 88.5s-41.334 74.833 -65.001 127.5
s-44.167 107.834 -61.5 165.501s-32 125.834 -44 204.501s-18 159.667 -18 243z" />
    <glyph glyph-name="parenright" unicode=")" horiz-adv-x="609" 
d="M115 1362l64.999 -0.00390625c24.667 -32 46.167 -62 64.5 -90s40.333 -67.5 66 -118.5s46.834 -102.833 63.501 -155.5s31 -117 43 -193s18 -155.667 18 -239c0 -102.667 -8.5 -200.834 -25.5 -294.501s-39.333 -175 -67 -244s-54 -126 -79 -171
s-50.833 -84.833 -77.5 -119.5h-70l55.5 93.5c15.667 27.667 36 69.834 61 126.501s45.333 112.334 61 167.001s29.667 121.334 42 200.001s18.5 159.334 18.5 242.001c0 102 -8.5 199.167 -25.5 291.5s-39.333 171.5 -67 237.5s-53 119.333 -76 160
s-46.5 76.334 -70.5 107.001z" />
    <glyph glyph-name="asterisk" unicode="*" horiz-adv-x="984" 
d="M140 836l308 168l-308 167l36 63l299 -185l-10 351h73l-10 -351l299 185l36 -63l-309 -167l309 -168l-36 -62l-299 184l10 -351h-73l10 351l-299 -184z" />
    <glyph glyph-name="plus" unicode="+" 
d="M73 516v72h437v465h72v-465h438v-72h-438v-482h-72v482h-437z" />
    <glyph glyph-name="comma" unicode="," horiz-adv-x="399" 
d="M88 -331l85 438h98l-115 -438h-68z" />
    <glyph glyph-name="hyphen" unicode="-" horiz-adv-x="806" 
d="M88 525v73h630v-73h-630z" />
    <glyph glyph-name="period" unicode="." horiz-adv-x="489" 
d="M160 68c0 24 8.16699 44.167 24.5 60.5s35.833 24.5 58.5 24.5c24 0 44.167 -8.16699 60.5 -24.5s24.5 -36.5 24.5 -60.5c0 -23.333 -8.16699 -43 -24.5 -59s-36.5 -24 -60.5 -24c-22.667 0 -42.167 8.16699 -58.5 24.5s-24.5 35.833 -24.5 58.5z" />
    <glyph glyph-name="slash" unicode="/" horiz-adv-x="671" 
d="M57 -315l494 1750h70l-496 -1750h-68z" />
    <glyph glyph-name="zero" unicode="0" horiz-adv-x="1189" 
d="M137 640v79c0 208 42.333 372 127 492s195 180 331 180s246.167 -60 330.5 -180s126.5 -284 126.5 -492v-79c0 -208 -42.167 -371.833 -126.5 -491.5s-194.5 -179.5 -330.5 -179.5s-246.333 59.833 -331 179.5s-127 283.5 -127 491.5zM220 638
c0 -184.667 35.167 -330.167 105.5 -436.5s160.166 -159.5 269.499 -159.5s199 53.167 269 159.5s105 251.833 105 436.5v83c0 185.333 -35 331 -105 437s-159.667 159 -269 159s-199.166 -53.167 -269.499 -159.5s-105.5 -251.833 -105.5 -436.5v-83z" />
    <glyph glyph-name="one" unicode="1" horiz-adv-x="849" 
d="M130 1037v89l341 232h81v-1358h-81v1263h-5z" />
    <glyph glyph-name="two" unicode="2" horiz-adv-x="1094" 
d="M141 1020l-0.000976562 4.00098c0 46 8.5 90.5 25.5 133.5s41.667 82 74 117s74.833 63.167 127.5 84.5s111.667 32 177 32c124.667 0 222.334 -34.333 293.001 -103s106 -153.667 106 -255c0 -32.667 -4.33301 -65.167 -13 -97.5s-18.834 -61 -30.501 -86
s-28 -52.333 -49 -82s-38.833 -53.5 -53.5 -71.5l-59 -69l-478 -547v-7h717v-73h-831v64l537 617c27.333 31.333 48.833 57 64.5 77s33.334 45.833 53.001 77.5s34.167 64 43.5 97s14 67.5 14 103.5c0 77.333 -27.833 143.666 -83.5 198.999s-132.834 83 -231.501 83
c-99.333 0 -177.666 -29 -234.999 -87s-86.333 -127 -87 -207v-4h-81z" />
    <glyph glyph-name="three" unicode="3" horiz-adv-x="1110" 
d="M108 301l81.999 0.00292969c1.33301 -72.667 34.5 -134 99.5 -184s147.833 -75 248.5 -75c108.667 0 195.834 29.5 261.501 88.5s98.167 134.167 97.5 225.5c0 94 -34.667 169 -104 225s-159.333 84 -270 84h-138v74h123c103.333 0 185.166 28.333 245.499 85
s90.5 127.334 90.5 212.001c0 81.333 -28.833 148.666 -86.5 201.999s-135.167 80 -232.5 80c-50 0 -95.333 -7.5 -136 -22.5s-73.5 -34.667 -98.5 -59s-44.333 -50.5 -58 -78.5s-20.834 -56.333 -21.501 -85h-82c0.666992 36.667 9.16699 73 25.5 109s40 69.833 71 101.5
s72.5 57.5 124.5 77.5s110.333 30 175 30c123.333 0 221.166 -32.5 293.499 -97.5s108.833 -148.167 109.5 -249.5c0.666992 -48.667 -7.66602 -93.834 -24.999 -135.501s-40 -76 -68 -103s-58.167 -48.833 -90.5 -65.5s-64.833 -27 -97.5 -31v-5
c40.667 -3.33301 80.167 -12.833 118.5 -28.5s73.833 -37.167 106.5 -64.5s59 -62.833 79 -106.5s30 -92.5 30 -146.5c0.666992 -114.667 -40.333 -208.334 -123 -281.001s-191 -109 -325 -109c-127.333 0 -229.666 32.167 -306.999 96.5s-116.666 143.166 -117.999 236.499
z" />
    <glyph glyph-name="four" unicode="4" horiz-adv-x="1123" 
d="M94 331v74c12 22 65.333 106.167 160 252.5l291.5 449l164.5 253.5h122v-955h199v-74h-199v-331h-77v331h-661zM181 405h574v882h-5l-297 -454.5c-166 -255 -256.667 -395.833 -272 -422.5v-5z" />
    <glyph glyph-name="five" unicode="5" horiz-adv-x="1128" 
d="M138 298l82.0029 -0.00292969c6.66699 -68 41.667 -127.667 105 -179s145.333 -77 246 -77c105.333 0 193 35.833 263 107.5s105 161.834 105 270.501c0 104.667 -33.833 191.334 -101.5 260.001s-154.5 103 -260.5 103c-43.333 0 -83.666 -6 -120.999 -18
s-68.833 -28 -94.5 -48s-46.834 -39.667 -63.501 -59s-30.334 -39 -41.001 -59h-80l57 761h715v-73h-642l-47 -590h7c8 14 19.833 29.167 35.5 45.5s36.167 33.666 61.5 51.999s57.666 33.5 96.999 45.5s81.333 18 126 18c127.333 0 231.666 -40.5 312.999 -121.5
s122 -186.167 122 -315.5c0 -130.667 -42.167 -238.667 -126.5 -324s-194.166 -128 -329.499 -128c-64.667 0 -124.334 9.83301 -179.001 29.5s-99.5 45.334 -134.5 77.001s-62.5 66.834 -82.5 105.501s-30.667 77.667 -32 117z" />
    <glyph glyph-name="six" unicode="6" horiz-adv-x="1153" 
d="M138 609c0 81.333 4.82715 158.002 14.4941 230.002s26.167 141.667 49.5 209s52.833 125 88.5 173s81.5 86.333 137.5 115s119.333 43 190 43c56.667 0 109.334 -8.83301 158.001 -26.5s88.334 -40.334 119.001 -68.001s55.334 -56.834 74.001 -87.501
s30.334 -60.667 35.001 -90h-82c-13.333 50 -46.666 95.5 -99.999 136.5s-121.666 61.5 -204.999 61.5c-60.667 0 -114.667 -13.833 -162 -41.5s-85.666 -63.834 -114.999 -108.501s-53.5 -98 -72.5 -160s-32.167 -124.667 -39.5 -188s-11 -130.333 -11 -201v-34h2
c19.333 82.667 64.333 151.167 135 205.5s155.667 81.5 255 81.5c121.333 0 223.166 -41 305.499 -123s123.5 -187.333 123.5 -316c0 -133.333 -42 -241.833 -126 -325.5s-189.333 -125.5 -316 -125.5c-96.667 0 -180.667 27.167 -252 81.5s-123 126.833 -155 217.5
c-34 92.667 -51 206.334 -51 341.001zM237.994 418.002c0 -105.333 34.168 -194.333 102.501 -267s153.5 -109 255.5 -109c102.667 0 188.167 35 256.5 105s102.5 160.667 102.5 272c0 108 -33.833 196.167 -101.5 264.5s-151.834 102.5 -252.501 102.5
c-104 0 -190.5 -35.167 -259.5 -105.5s-103.5 -157.833 -103.5 -262.5z" />
    <glyph glyph-name="seven" unicode="7" horiz-adv-x="1027" 
d="M106 1286v74h817v-78l-585 -1282h-89l590 1280v6h-733z" />
    <glyph glyph-name="eight" unicode="8" horiz-adv-x="1157" 
d="M121 362c0 43.333 6.66992 83.835 20.0029 121.502s30.666 69.667 51.999 96s45.5 49.5 72.5 69.5s53.667 35.5 80 46.5s51.833 18.5 76.5 22.5v7c-26.667 6 -53.667 16.5 -81 31.5s-54 34.833 -80 59.5s-47.167 56.334 -63.5 95.001s-24.5 81 -24.5 127
c0 103.333 37.667 187.833 113 253.5s173 98.5 293 98.5c119.333 0 216.666 -32.833 291.999 -98.5s113 -150.167 113 -253.5c0 -46.667 -8.16699 -89.334 -24.5 -128.001s-37.666 -70.334 -63.999 -95.001s-53 -44.334 -80 -59.001s-53.833 -25 -80.5 -31v-7
c31.333 -5.33301 63.666 -16.333 96.999 -33s65.666 -39 96.999 -67s57 -64.333 77 -109s30 -93.667 30 -147c0 -115.333 -43.167 -209.666 -129.5 -282.999s-196.166 -110 -329.499 -110c-132.667 0 -241.834 36.667 -327.501 110s-128.5 167.666 -128.5 282.999z
M203.003 369.002c0 -96.667 35.333 -175.5 106 -236.5s160.667 -91.5 270 -91.5c108.667 0 198.167 30.5 268.5 91.5s105.5 139.833 105.5 236.5c0 91.333 -34.833 166.666 -104.5 225.999s-159.5 89 -269.5 89c-110.667 0 -201 -29.667 -271 -89
s-105 -134.666 -105 -225.999zM255.003 1032c0 -81.333 30.832 -148.333 92.499 -201s138.834 -79 231.501 -79c92 0 168.833 26.333 230.5 79s92.5 119.667 92.5 201c0 85.333 -30.333 154.333 -91 207s-138 79 -232 79s-171.5 -26.333 -232.5 -79
s-91.5 -121.667 -91.5 -207z" />
    <glyph glyph-name="nine" unicode="9" horiz-adv-x="1152" 
d="M121 946c0 133.333 41.4971 241.332 124.497 323.999s188.833 124 317.5 124c64.667 0 123.334 -11.167 176.001 -33.5s100.167 -57.5 142.5 -105.5s75.166 -113.833 98.499 -197.5s35 -182.167 35 -295.5c0 -264 -40.167 -461 -120.5 -591s-202.166 -195 -365.499 -195
c-100.667 0 -186.5 27 -257.5 81s-110.167 121.333 -117.5 202h81c8 -56 39.667 -105 95 -147s123.333 -63 204 -63c132 0 232.667 59 302 177s103.333 297.667 102 539h-9c-11.333 -34.667 -27 -66.834 -47 -96.501s-45.167 -57.167 -75.5 -82.5
s-67.666 -45.166 -111.999 -59.499s-93.166 -21.5 -146.499 -21.5s-105.333 9.83301 -156 29.5s-96.167 47.667 -136.5 84s-72.833 82.833 -97.5 139.5s-37 119.334 -37 188.001zM202.997 948.999c0 -58 10.001 -111 30.001 -159s46.833 -87 80.5 -117
s71.667 -53.167 114 -69.5s86.5 -24.5 132.5 -24.5c95.333 0 177.666 32 246.999 96s104 145.333 104 244c0 118.667 -32 215.167 -96 289.5s-149.667 111.5 -257 111.5c-102 0 -186.667 -34.833 -254 -104.5s-101 -158.5 -101 -266.5z" />
    <glyph glyph-name="colon" unicode=":" horiz-adv-x="475" 
d="M154 87c0 23.333 8 43.166 24 59.499s35.667 24.5 59 24.5s43.333 -8.16699 60 -24.5s25 -36.166 25 -59.499s-8.33301 -43.166 -25 -59.499s-36.667 -24.5 -60 -24.5s-43 8.16699 -59 24.5s-24 36.166 -24 59.499zM154 813c0 23.333 8 43.166 24 59.499
s35.667 24.5 59 24.5s43.333 -8.16699 60 -24.5s25 -36.166 25 -59.499s-8.33301 -43 -25 -59s-36.667 -24 -60 -24s-43 8 -59 24s-24 35.667 -24 59z" />
    <glyph glyph-name="semicolon" unicode=";" horiz-adv-x="485" 
d="M71 -339l91 450h104l-122 -450h-73zM140 814c0 23.333 8.16699 43.333 24.5 60s35.833 25 58.5 25c23.333 0 43.333 -8.33301 60 -25s25 -36.667 25 -60c0 -22.667 -8.33301 -42.167 -25 -58.5s-36.667 -24.5 -60 -24.5s-43 8.16699 -59 24.5s-24 35.833 -24 58.5z" />
    <glyph glyph-name="less" unicode="&#x3c;" 
d="M147 467v79l780 538v-88l-703 -481v-10l703 -448v-88z" />
    <glyph glyph-name="equal" unicode="=" 
d="M135 332v71h820v-71h-820zM135 689v71h820v-71h-820z" />
    <glyph glyph-name="greater" unicode="&#x3e;" 
d="M171 -31v88l704 448v10l-704 481v88l780 -538v-79z" />
    <glyph glyph-name="question" unicode="?" horiz-adv-x="923" 
d="M84 1059c4 98 39.6699 178 107.003 240s160 93 278 93c105.333 0 193.166 -28.333 263.499 -85s105.5 -134.334 105.5 -233.001c0 -69.333 -17 -129 -51 -179s-85 -100.667 -153 -152c-63.333 -48.667 -105.333 -91.834 -126 -129.501s-31 -81.5 -31 -131.5v-89h-81v100
c0 60 13.667 112.333 41 157s75.666 93.334 144.999 146.001c60.667 46.667 104.5 90.334 131.5 131.001s40.5 88.667 40.5 144c0 79.333 -27.833 140.5 -83.5 183.5s-124.834 64.5 -207.501 64.5c-52.667 0 -99.167 -8.5 -139.5 -25.5s-71.5 -39.167 -93.5 -66.5
s-38.5 -55 -49.5 -83s-17.5 -56.333 -19.5 -85h-77zM357.003 68c0 24 8.16699 44.167 24.5 60.5s35.833 24.5 58.5 24.5c24 0 44.333 -8.16699 61 -24.5s25 -36.5 25 -60.5c0 -23.333 -8.33301 -43 -25 -59s-37 -24 -61 -24c-22.667 0 -42.167 8.16699 -58.5 24.5
s-24.5 35.833 -24.5 58.5z" />
    <glyph glyph-name="at" unicode="@" horiz-adv-x="1681" 
d="M130 491l-0.00195312 47.999c0 116 17.833 221.833 53.5 317.5s85.5 176.334 149.5 242.001s140.833 116.5 230.5 152.5s187.834 54 294.501 54h7c108 0 206.833 -18.5 296.5 -55.5s163.5 -86.5 221.5 -148.5s102.667 -132.833 134 -212.5s47 -162.834 47 -249.501v-53
c0 -132 -28.833 -234.167 -86.5 -306.5s-129.167 -108.5 -214.5 -108.5c-59.333 0 -108.833 14.5 -148.5 43.5s-62.5 66.5 -68.5 112.5h-5c-2.66699 -9.33301 -6.66699 -19.833 -12 -31.5s-14.166 -25 -26.499 -40s-26.333 -28.667 -42 -41s-36 -22.666 -61 -30.999
s-51.833 -12.5 -80.5 -12.5c-76 0 -137.833 26.667 -185.5 80s-71.5 130 -71.5 230v96c0 91.333 22.333 164.666 67 219.999s108.334 83 191.001 83c36 0 67.833 -5.5 95.5 -16.5s49.167 -25.167 64.5 -42.5s27 -33.166 35 -47.499s13.333 -27.833 16 -40.5h5v131h69v-472
c0 -30 5 -56 15 -78s23.5 -38.667 40.5 -50s34.667 -19.5 53 -24.5s37.5 -7.5 57.5 -7.5c62.667 0 115.667 29.833 159 89.5s65 151.5 65 275.5v38c0 80.667 -14.167 157.334 -42.5 230.001s-68.5 137 -120.5 193s-118.333 100.333 -199 133s-170 49 -268 49h-7
c-128 0 -241.333 -28 -340 -84s-175.834 -137.833 -231.501 -245.5s-83.5 -233.834 -83.5 -378.501v-35c0 -106.667 17 -203 51 -289s80.667 -156.333 140 -211s128.5 -96.5 207.5 -125.5s164.167 -43.5 255.5 -43.5h9c115.333 0 214.666 14.667 297.999 44v-65
c-72 -28.667 -171.333 -43 -298 -43h-9c-104 0 -200.167 16 -288.5 48s-165.166 78 -230.499 138s-116.333 136.333 -153 229s-55 196.667 -55 312zM636.998 488.999c0 -85.333 18.333 -148.667 55 -190s83.667 -62 141 -62c54 0 100.667 18.5 140 55.5s59 93.833 59 170.5
v121c0 64.667 -17.5 119.5 -52.5 164.5s-83.833 67.5 -146.5 67.5c-60 0 -107.667 -21.5 -143 -64.5s-53 -102.5 -53 -178.5v-84z" />
    <glyph glyph-name="A" unicode="A" horiz-adv-x="1193" 
d="M66 0l488 1360h85l488 -1360h-88l-160 458h-567l-161 -458h-85zM335 528h519l-256 731h-5z" />
    <glyph glyph-name="B" unicode="B" horiz-adv-x="1251" 
d="M212 0l-0.00195312 1360h440c122.667 0 219.334 -29.5 290.001 -88.5s106 -140.5 106 -244.5c0 -47.333 -7.66699 -90.666 -23 -129.999s-35.166 -71.166 -59.499 -95.499s-49.333 -43.833 -75 -58.5s-51.167 -25 -76.5 -31v-5
c88.667 -9.33301 162.5 -42.666 221.5 -99.999s88.5 -137 88.5 -239c0 -114 -39.167 -203.833 -117.5 -269.5s-188.5 -98.5 -330.5 -98.5h-464zM293.998 74.9971l360 -0.000976562c122 0 216.667 24.833 284 74.5s101 122.167 101 217.5
c0 96.667 -33.5 169.834 -100.5 219.501s-152.833 74.5 -257.5 74.5h-387v-586zM293.998 735.996h337.999c96.667 0 176.167 23.667 238.5 71s93.5 117 93.5 209c0 86.667 -28.667 153.167 -86 199.5s-136.666 69.5 -237.999 69.5h-346v-549z" />
    <glyph glyph-name="C" unicode="C" horiz-adv-x="1288" 
d="M157 560l0.000976562 237c0 84 10.5 161.5 31.5 232.5s51.833 133.667 92.5 188s94 96.833 160 127.5s141 46 225 46c75.333 0 143.833 -12.667 205.5 -38s111.334 -58.333 149.001 -99s66.667 -85 87 -133s30.5 -96.333 30.5 -145v-3h-81
c0 39.333 -8.66699 78.833 -26 118.5s-41.833 76.334 -73.5 110.001s-73 61.167 -124 82.5s-106.833 32 -167.5 32c-93.333 0 -172.833 -23.333 -238.5 -70s-113.667 -107.834 -144 -183.501s-45.5 -161.5 -45.5 -257.5v-253c0 -72 8.66699 -138.167 26 -198.5
s43.166 -113.833 77.499 -160.5s79.666 -83.167 135.999 -109.5s121.166 -39.5 194.499 -39.5c118 0 213.167 32.5 285.5 97.5s108.5 144.833 108.5 239.5h81v-3c0 -52 -10.833 -102.333 -32.5 -151s-52 -92.167 -91 -130.5s-89.167 -69.166 -150.5 -92.499
s-129 -35 -203 -35c-87.333 0 -164.166 15 -230.499 45s-119.833 72 -160.5 126s-71.167 116.167 -91.5 186.5s-30.5 148.166 -30.5 233.499z" />
    <glyph glyph-name="D" unicode="D" horiz-adv-x="1337" 
d="M212 0l0.000976562 1360h365c106 0 198.5 -16.167 277.5 -48.5s142.5 -78.833 190.5 -139.5s83.5 -131.834 106.5 -213.501s34.5 -174.5 34.5 -278.5c0 -82.667 -6.83301 -158.167 -20.5 -226.5s-35.834 -130.833 -66.501 -187.5s-69.5 -104.5 -116.5 -143.5
s-104.667 -69.167 -173 -90.5s-145.833 -32 -232.5 -32h-365zM294.001 75.001h283.001c179.333 0 311.833 52.833 397.5 158.5s128.5 254.5 128.5 446.5c0 93.333 -10.167 176.5 -30.5 249.5s-51.5 136.333 -93.5 190s-96.833 94.667 -164.5 123
s-146.834 42.5 -237.501 42.5h-283v-1210z" />
    <glyph glyph-name="E" unicode="E" horiz-adv-x="1117" 
d="M212 0v1360h776v-76h-694v-550h659v-75h-659v-584h694v-75h-776z" />
    <glyph glyph-name="F" unicode="F" horiz-adv-x="1048" 
d="M212 0v1360h765v-76h-683v-563h627v-76h-627v-645h-82z" />
    <glyph glyph-name="G" unicode="G" horiz-adv-x="1306" 
d="M157 573l-0.00585938 228.002c0 180 46.333 323.333 139 430s219 160 379 160c71.333 0 137 -11.833 197 -35.5s109.333 -54.834 148 -93.501s68.834 -81.334 90.501 -128.001s33.167 -94 34.5 -142h-79c-1.33301 36.667 -11.666 74 -30.999 112
s-45.166 72.833 -77.499 104.5s-73.5 57.5 -123.5 77.5s-103.667 30 -161 30c-131.333 0 -236.666 -46 -315.999 -138s-119 -217.667 -119 -377v-228c0 -160 37 -288.167 111 -384.5s181.667 -144.5 323 -144.5c120.667 0 217.334 31.167 290.001 93.5
s109 148.833 109 259.5v186h-407v75h485v-261c0 -128 -42.5 -231.333 -127.5 -310s-201.167 -118 -348.5 -118c-86.667 0 -163.167 15.167 -229.5 45.5s-120.166 72.833 -161.499 127.5s-72.5 118.167 -93.5 190.5s-31.5 152.5 -31.5 240.5z" />
    <glyph glyph-name="H" unicode="H" horiz-adv-x="1377" 
d="M212 0v1360h82v-609h789v609h82v-1360h-82v676h-789v-676h-82z" />
    <glyph glyph-name="I" unicode="I" horiz-adv-x="536" 
d="M227 0v1360h82v-1360h-82z" />
    <glyph glyph-name="J" unicode="J" horiz-adv-x="950" 
d="M59 295l81.002 -0.000976562c0 -27.333 5 -54.5 15 -81.5s24.667 -52.667 44 -77s46.666 -44 81.999 -59s75.666 -22.5 120.999 -22.5c82.667 0 148.834 25.167 198.501 75.5s74.5 125.5 74.5 225.5v1004h82v-1000c0 -125.333 -32 -220 -96 -284s-150.667 -96 -260 -96
c-59.333 0 -112 9.83301 -158 29.5s-81.833 45.334 -107.5 77.001s-44.834 65.167 -57.501 100.5s-19 71.333 -19 108z" />
    <glyph glyph-name="K" unicode="K" horiz-adv-x="1153" 
d="M212 0v1360h82v-730h2l682 730h103l-558 -604l591 -756h-106l-545 700l-169 -179v-521h-82z" />
    <glyph glyph-name="L" unicode="L" horiz-adv-x="1056" 
d="M212 0v1360h82v-1285h682v-75h-764z" />
    <glyph glyph-name="M" unicode="M" horiz-adv-x="1618" 
d="M213 0v1360h82l512 -1163h4l513 1163h81v-1360h-76v1180h-5l-476 -1075h-78l-476 1075h-5v-1180h-76z" />
    <glyph glyph-name="N" unicode="N" horiz-adv-x="1377" 
d="M212 0v1360h84l782 -1216h5v1216h82v-1360h-84l-782 1216h-5v-1216h-82z" />
    <glyph glyph-name="O" unicode="O" horiz-adv-x="1352" 
d="M157 556l-0.000976562 243.999c0 180.667 45.833 324.334 137.5 431.001s218.834 160 381.501 160s290 -53.5 382 -160.5s138 -251.167 138 -432.5v-242c0 -180.667 -46 -323.667 -138 -429s-219.667 -158 -383 -158c-162.667 0 -289.667 52.667 -381 158
s-137 248.333 -137 429zM237.999 549.999c0 -154.667 39.168 -277.667 117.501 -369s185.166 -137 320.499 -137s242.333 45.833 321 137.5s118 214.5 118 368.5v256c0 154 -39.667 277.5 -119 370.5s-186 139.5 -320 139.5s-240.5 -46.5 -319.5 -139.5
s-118.5 -216.5 -118.5 -370.5v-256z" />
    <glyph glyph-name="P" unicode="P" horiz-adv-x="1169" 
d="M212 0v1360h438c134 0 238.167 -35.833 312.5 -107.5s111.5 -169.5 111.5 -293.5s-37.167 -221.5 -111.5 -292.5s-178.5 -106.5 -312.5 -106.5h-356v-560h-82zM294 634h326.999c118.667 0 209.834 27.333 273.501 82s95.5 135.667 95.5 243
c0 102.667 -30 182.667 -90 240s-144 86 -252 86h-354v-651z" />
    <glyph glyph-name="Q" unicode="Q" horiz-adv-x="1353" 
d="M157 568l0.000976562 233c0 181.333 45.667 325 137 431s218.666 159 381.999 159s290.833 -53 382.5 -159s137.5 -249.667 137.5 -431v-233c0 -108.667 -17 -204.667 -51 -288s-83.333 -150 -148 -200l182 -248h-94l-152 206c-72.667 -40 -158.334 -60 -257.001 -60
c-163.333 0 -290.666 53 -381.999 159s-137 249.667 -137 431zM238.001 562c0 -154.667 39.168 -278.165 117.501 -370.498s185.166 -138.5 320.499 -138.5c78.667 0 148.667 16.333 210 49l-175 238h98l140 -194c53.333 43.333 94.333 100.666 123 171.999
s43 152.666 43 243.999v245c0 154 -39.5 277.333 -118.5 370s-185.833 139 -320.5 139c-134 0 -240.5 -46.333 -319.5 -139s-118.5 -216 -118.5 -370v-245z" />
    <glyph glyph-name="R" unicode="R" horiz-adv-x="1230" 
d="M212 0l0.000976562 1360h447c127.333 0 227.666 -35.333 300.999 -106s110 -162.667 110 -276c0 -101.333 -26.5 -182.833 -79.5 -244.5s-122.833 -102.834 -209.5 -123.501l312 -610h-95l-302 594h-402v-594h-82zM294.001 667.001h351.001
c105.333 0 188.5 27.5 249.5 82.5s91.5 130.167 91.5 225.5c0 96.667 -30.333 172.667 -91 228s-143.334 83 -248.001 83h-353v-619z" />
    <glyph glyph-name="S" unicode="S" horiz-adv-x="1185" 
d="M121 345l84.0029 -0.000976562c1.33301 -34 9.33301 -67.5 24 -100.5s36.334 -65 65.001 -96s69.167 -56.167 121.5 -75.5s112.166 -29 179.499 -29c112 0 202.833 27.833 272.5 83.5s104.5 127.167 104.5 214.5c0 80 -25.167 141.167 -75.5 183.5
s-130.5 78.166 -240.5 107.499l-178 48c-208 55.333 -312 170.333 -312 345c0 110.667 40 199.334 120 266.001s185.333 100 316 100c130 0 233.667 -32.5 311 -97.5s116.666 -147.167 117.999 -246.5h-83c-1.33301 32.667 -9 64.334 -23 95.001
s-34.167 59.334 -60.5 86.001s-62.333 48 -108 64s-97.5 24 -155.5 24c-108 0 -193.333 -26.333 -256 -79s-94 -122.667 -94 -210c0 -73.333 21.5 -131 64.5 -173s109.167 -75 198.5 -99l172 -47c63.333 -17.333 116.166 -35.333 158.499 -54s80.333 -41.834 114 -69.501
s58.5 -61.167 74.5 -100.5s24 -85.333 24 -138c0 -116 -43.667 -208 -131 -276s-200.666 -102 -339.999 -102c-66 0 -126 8.16699 -180 24.5s-98.167 37.5 -132.5 63.5s-63.333 55.833 -87 89.5s-40.334 67 -50.001 100s-14.834 65.833 -15.501 98.5z" />
    <glyph glyph-name="T" unicode="T" horiz-adv-x="1069" 
d="M36 1285v75h997v-75h-457v-1285h-82v1285h-458z" />
    <glyph glyph-name="U" unicode="U" horiz-adv-x="1354" 
d="M190 470v889.998h82v-891c0 -130 35.333 -233 106 -309s170 -114 298 -114c129.333 0 229.166 37.833 299.499 113.5s105.5 178.834 105.5 309.501v891h82v-891c0 -152.667 -43.167 -274.167 -129.5 -364.5s-205.5 -135.5 -357.5 -135.5
c-151.333 0 -270.166 45.333 -356.499 136s-129.5 212.334 -129.5 365.001z" />
    <glyph glyph-name="V" unicode="V" horiz-adv-x="1206" 
d="M60 1360h90l448 -1262h5l453 1262h90l-502 -1360h-90z" />
    <glyph glyph-name="W" unicode="W" horiz-adv-x="1715" 
d="M56 1360h92l313 -1240h5l348 1240h87l348 -1240h5l313 1240h92l-362 -1360h-87l-350 1228h-6l-350 -1228h-86z" />
    <glyph glyph-name="X" unicode="X" horiz-adv-x="1166" 
d="M68 0l465 680l-465 680h98l417 -613h5l417 613h95l-469 -683l465 -677h-99l-414 611h-5l-415 -611h-95z" />
    <glyph glyph-name="Y" unicode="Y" horiz-adv-x="1103" 
d="M41 1360h96l412 -668h6l413 668h94l-469 -751v-609h-81v607z" />
    <glyph glyph-name="Z" unicode="Z" horiz-adv-x="1195" 
d="M118 0v65l850 1215v6h-823v74h924v-65l-850 -1216v-6h854v-73h-955z" />
    <glyph glyph-name="bracketleft" unicode="[" horiz-adv-x="620" 
d="M174 -223v1583h343v-63h-266v-1457h279v-63h-356z" />
    <glyph glyph-name="backslash" unicode="\" horiz-adv-x="671" 
d="M50 1435h70l494 -1750h-68z" />
    <glyph glyph-name="bracketright" unicode="]" horiz-adv-x="620" 
d="M90 -160h279v1457h-266v63h343v-1583h-356v63z" />
    <glyph glyph-name="asciicircum" unicode="^" horiz-adv-x="793" 
d="M107 794l249 570h80l250 -570h-75l-213 488h-4l-213 -488h-74z" />
    <glyph glyph-name="underscore" unicode="_" horiz-adv-x="894" 
d="M-1 -123h896v-70h-896v70z" />
    <glyph glyph-name="grave" unicode="`" horiz-adv-x="849" 
d="M192 1549h90l243 -314h-69z" />
    <glyph glyph-name="a" unicode="a" horiz-adv-x="1059" 
d="M125 291c0 88.667 30.333 159.167 91 211.5s147.667 78.5 261 78.5h317v146c0 84 -24.667 146.833 -74 188.5s-116.666 62.5 -201.999 62.5c-82.667 0 -146 -17 -190 -51s-70 -73.333 -78 -118h-79c5.33301 68.667 38.666 126.334 99.999 173.001s145.333 70 252 70
c108 0 193.667 -26.5 257 -79.5s95 -130.833 95 -233.5v-739h-79v169h-5c-7.33301 -18.667 -19 -37.834 -35 -57.501s-37 -39.667 -63 -60s-59 -37 -99 -50s-83.667 -19.5 -131 -19.5c-100.667 0 -182.167 28 -244.5 84s-93.5 131 -93.5 225zM211 293
c0 -72.667 24.499 -130.5 73.499 -173.5s112.167 -64.5 189.5 -64.5c89.333 0 165 27.667 227 83s93 126 93 212v159h-316c-89.333 0 -156.166 -19.5 -200.499 -58.5s-66.5 -91.5 -66.5 -157.5z" />
    <glyph glyph-name="b" unicode="b" horiz-adv-x="1150" 
d="M192 0v1435h80v-604h5c4 14.667 10.5 30.667 19.5 48s22.833 36.5 41.5 57.5s40 39.833 64 56.5s54.833 30.667 92.5 42s78.167 17 121.5 17c116 0 210.5 -39.167 283.5 -117.5s109.5 -183.5 109.5 -315.5v-201c0 -70.667 -10.667 -134 -32 -190
s-50.333 -101.667 -87 -137s-78.5 -62.333 -125.5 -81s-97.5 -28 -151.5 -28c-50 0 -95.833 7.16699 -137.5 21.5s-75.5 33.166 -101.5 56.499s-47 46.5 -63 69.5s-28 46.167 -36 69.5h-5v-199h-78zM272 424.001c0 -105.333 30.999 -192.999 92.999 -262.999
s143 -105 243 -105c42.667 0 82.834 7.66699 120.501 23s71.667 38.166 102 68.499s54.166 70.333 71.499 120s26 106.5 26 170.5v162c0 118.667 -30.167 211.5 -90.5 278.5s-137.166 100.5 -230.499 100.5c-69.333 0 -129.833 -17.333 -181.5 -52
s-90.167 -79.667 -115.5 -135s-38 -116.333 -38 -183v-185z" />
    <glyph glyph-name="c" unicode="c" horiz-adv-x="1062" 
d="M142 436v169.998c0 140 37.5 249.333 112.5 328s173.167 118 294.5 118c60 0 114.667 -9.33301 164 -28s89.333 -43.167 120 -73.5s54.5 -63.666 71.5 -99.999s26.5 -73.5 28.5 -111.5h-79c-6 40.667 -20 78.334 -42 113.001s-55.833 64.5 -101.5 89.5
s-99.167 37.5 -160.5 37.5c-99.333 0 -178.833 -33.833 -238.5 -101.5s-89.5 -162.167 -89.5 -283.5v-151c0 -124 29.667 -219.167 89 -285.5s141 -99.5 245 -99.5c92 0 162.167 21.333 210.5 64s78.5 95 90.5 157h78c-2.66699 -36 -12 -70.667 -28 -104
s-38.5 -64.833 -67.5 -94.5s-68.333 -53.5 -118 -71.5s-106.167 -27 -169.5 -27c-126 0 -225.833 39.5 -299.5 118.5s-110.5 190.833 -110.5 335.5z" />
    <glyph glyph-name="d" unicode="d" horiz-adv-x="1150" 
d="M140 413v206.997c0 69.333 10.5 131.833 31.5 187.5s49.833 101.167 86.5 136.5s78.667 62.333 126 81s97.666 28 150.999 28c50.667 0 96.667 -7.16699 138 -21.5s75 -33.166 101 -56.499s46.833 -46.5 62.5 -69.5s27.167 -46.167 34.5 -69.5h5v599h81v-1435h-79v204h-5
c-4.66699 -19.333 -14.167 -40.166 -28.5 -62.499s-34.333 -46.166 -60 -71.499s-60.5 -46.333 -104.5 -63s-93 -25 -147 -25c-115.333 0 -209.666 39.167 -282.999 117.5s-110 182.833 -110 313.5zM221 431.997c0 -117.333 30.168 -209.333 90.501 -276
s137.166 -100 230.499 -100c102.667 0 184 36 244 108s90 159.333 90 262v185c0 104.667 -31 192 -93 262s-142.667 105 -242 105c-90.667 0 -166.667 -32.5 -228 -97.5s-92 -158.833 -92 -281.5v-167z" />
    <glyph glyph-name="e" unicode="e" horiz-adv-x="1089" 
d="M143 450l0.000976562 122c0 153.333 36.667 271.666 110 354.999s171 125 293 125s219.667 -41.667 293 -125s110 -201.666 110 -354.999v-63h-725v-59c0 -124 29.667 -220.667 89 -290s141 -104 245 -104c86.667 0 155.5 20.333 206.5 61s79.833 86 86.5 136h83
c-2.66699 -29.333 -12.334 -59.166 -29.001 -89.499s-39.5 -59.333 -68.5 -87s-67.833 -50.334 -116.5 -68.001s-102.667 -26.5 -162 -26.5c-130 0 -231.667 41 -305 123s-110 197 -110 345zM224.001 577h644v8c0 123.333 -29.167 219.833 -87.5 289.5
s-136.5 104.5 -234.5 104.5s-176.167 -34.833 -234.5 -104.5s-87.5 -166.167 -87.5 -289.5v-8z" />
    <glyph glyph-name="f" unicode="f" horiz-adv-x="689" 
d="M66 964l0.000976562 71h182v130c0 94 21.667 161.667 65 203s112.666 62 207.999 62c44 0 81.667 -3.33301 113 -10v-69c-23.333 4.66699 -60.333 7 -111 7c-68.667 0 -118.167 -13.833 -148.5 -41.5s-45.5 -76.5 -45.5 -146.5v-135h290v-71h-290v-964h-81v964h-182z" />
    <glyph glyph-name="g" unicode="g" horiz-adv-x="1138" 
d="M137 464l0.00195312 155.001c0 70 10.833 133 32.5 189s51.167 101.5 88.5 136.5s79.666 61.667 126.999 80s97.666 27.5 150.999 27.5c49.333 0 94.5 -7.33301 135.5 -22s74.5 -33.5 100.5 -56.5s47 -46.167 63 -69.5s27.667 -46.333 35 -69h5v200h79v-1039
c0 -110 -36.333 -197 -109 -261s-172.667 -96 -300 -96c-61.333 0 -116.5 8 -165.5 24s-88.333 37.333 -118 64s-52.334 55.667 -68.001 87s-24.5 63.666 -26.5 96.999h83c5.33301 -52 34 -98 86 -138s122.667 -60 212 -60c102.667 0 182.667 25.667 240 77
s86 119.333 86 204v256h-6c-6.66699 -19.333 -17.167 -40 -31.5 -62s-34.166 -45.333 -59.499 -70s-59.333 -45 -102 -61s-89.667 -24 -141 -24c-115.333 0 -210.333 39.167 -285 117.5s-112 182.833 -112 313.5zM218.002 482.001c0 -115.333 30.833 -206.666 92.5 -273.999
s139.5 -101 233.5 -101c68 0 127.5 17.667 178.5 53s88.833 80.166 113.5 134.499s37 113.166 37 176.499v139c0 104 -30.333 191.5 -91 262.5s-140.334 106.5 -239.001 106.5c-44 0 -85.167 -8 -123.5 -24s-72.666 -39.167 -102.999 -69.5s-54.333 -70.166 -72 -119.499
s-26.5 -105 -26.5 -167v-117z" />
    <glyph glyph-name="h" unicode="h" horiz-adv-x="1158" 
d="M192 0l-0.000976562 1435h81v-606h5c17.333 58.667 54.833 110.5 112.5 155.5s133.5 67.5 227.5 67.5c105.333 0 190.833 -31.833 256.5 -95.5s98.5 -152.834 98.5 -267.501v-689h-81v672c0 90.667 -25.5 164.5 -76.5 221.5s-121.167 85.5 -210.5 85.5
c-70 0 -130.667 -17.333 -182 -52s-89.166 -79 -113.499 -133s-36.5 -113 -36.5 -177v-617h-81z" />
    <glyph glyph-name="i" unicode="i" horiz-adv-x="502" 
d="M176 1340c0 21.333 7.16699 39.333 21.5 54s31.833 22 52.5 22c21.333 0 39.333 -7.33301 54 -22s22 -32.667 22 -54c0 -20.667 -7.33301 -38 -22 -52s-32.667 -21 -54 -21c-20.667 0 -38.167 7 -52.5 21s-21.5 31.333 -21.5 52zM210 0v1035h81v-1035h-81z" />
    <glyph glyph-name="j" unicode="j" horiz-adv-x="502" 
d="M-6 -260c23.333 -4.66699 45.334 -7.00098 66.001 -7.00098c53.333 0 91.666 14.833 114.999 44.5s35 80.167 35 151.5v1106h81v-1104c0 -95.333 -18.333 -164.166 -55 -206.499s-92 -63.5 -166 -63.5c-30.667 0 -56 2.66699 -76 8v71zM176.001 1340
c0 21.333 7.16699 39.333 21.5 54s31.833 22 52.5 22c21.333 0 39.333 -7.33301 54 -22s22 -32.667 22 -54c0 -20.667 -7.33301 -38 -22 -52s-32.667 -21 -54 -21c-20.667 0 -38.167 7 -52.5 21s-21.5 31.333 -21.5 52z" />
    <glyph glyph-name="k" unicode="k" horiz-adv-x="1037" 
d="M192 0v1435h81v-915h4l555 529h102l-457 -442l475 -607h-101l-435 554l-143 -131v-423h-81z" />
    <glyph glyph-name="l" unicode="l" horiz-adv-x="491" 
d="M205 0v1435h81v-1435h-81z" />
    <glyph glyph-name="m" unicode="m" horiz-adv-x="1708" 
d="M189 0l0.00195312 1035h80v-180h5c6 21.333 15.333 42.5 28 63.5s30 42 52 63s51.333 38 88 51s77.667 19.5 123 19.5c84 0 152.167 -21 204.5 -63s85.833 -94 100.5 -156h5c6 23.333 16.333 46.666 31 69.999s34.167 46.666 58.5 69.999s56.166 42.333 95.499 57
s82.333 22 129 22c100.667 0 181.5 -29.167 242.5 -87.5s91.5 -141.833 91.5 -250.5v-714h-81v693c0 92.667 -23.833 163.5 -71.5 212.5s-111.5 73.5 -191.5 73.5c-86.667 0 -155.5 -29.667 -206.5 -89s-76.5 -130 -76.5 -212v-678h-80v688
c0 91.333 -23.667 162.666 -71 213.999s-112 77 -194 77c-88.667 0 -157.834 -30.167 -207.501 -90.5s-74.5 -135.5 -74.5 -225.5v-663h-80z" />
    <glyph glyph-name="n" unicode="n" horiz-adv-x="1145" 
d="M189 0v1035h80v-206h5c8 27.333 20.333 53.5 37 78.5s38.167 48.667 64.5 71s59.833 40.166 100.5 53.499s85.667 20 135 20c106 0 191.5 -31.667 256.5 -95s97.5 -152.666 97.5 -267.999v-689h-81v673c0 90.667 -25 164.334 -75 221.001s-119.667 85 -209 85
c-53.333 0 -101.333 -10 -144 -30s-77.5 -47 -104.5 -81s-47.5 -72.5 -61.5 -115.5s-21 -88.167 -21 -135.5v-617h-80z" />
    <glyph glyph-name="o" unicode="o" horiz-adv-x="1129" 
d="M142 434v162.999c0 143.333 39.5 255 118.5 335s180.167 120 303.5 120c58.667 0 113.5 -10 164.5 -30s95.833 -48.833 134.5 -86.5s69 -85.5 91 -143.5s33 -123 33 -195v-163c0 -96 -19.167 -178.667 -57.5 -248s-89 -120.666 -152 -153.999s-134.167 -50 -213.5 -50
c-123.333 0 -224.5 39.5 -303.5 118.5s-118.5 190.167 -118.5 333.5zM222 444.999c0 -124 31.501 -219.832 94.501 -287.499s145.5 -101.5 247.5 -101.5c101.333 0 183.5 33.667 246.5 101s94.5 163.333 94.5 288v141c0 123.333 -31.833 219.666 -95.5 288.999
s-145.5 104 -245.5 104c-100.667 0 -182.834 -34.5 -246.501 -103.5s-95.5 -165.5 -95.5 -289.5v-141z" />
    <glyph glyph-name="p" unicode="p" horiz-adv-x="1146" 
d="M189 -336l-0.000976562 1371h78v-204h5c6 20 16.333 41.167 31 63.5s34.834 46 60.501 71s60.334 45.667 104.001 62s92.167 24.5 145.5 24.5c115.333 0 209.666 -39.333 282.999 -118s110 -183.667 110 -315v-201c0 -70 -10.667 -133.167 -32 -189.5
s-50.333 -102.166 -87 -137.499s-78.667 -62.333 -126 -81s-97.666 -28 -150.999 -28c-50.667 0 -96.667 7.16699 -138 21.5s-74.833 33.166 -100.5 56.499s-46.334 46.333 -62.001 69s-27.5 46 -35.5 70h-5v-535h-80zM268.999 424
c0 -105.333 30.833 -192.999 92.5 -262.999s142.5 -105 242.5 -105c42.667 0 82.834 7.66699 120.501 23s71.667 38.166 102 68.499s54.166 70.333 71.499 120s26 106.5 26 170.5v162c0 118.667 -30 211.5 -90 278.5s-137 100.5 -231 100.5
c-69.333 0 -129.833 -17.5 -181.5 -52.5s-90 -80.167 -115 -135.5s-37.5 -116 -37.5 -182v-185z" />
    <glyph glyph-name="q" unicode="q" horiz-adv-x="1131" 
d="M140 415l0.000976562 202.998c0 69.333 10.5 131.833 31.5 187.5s49.833 101.167 86.5 136.5s78.5 62.5 125.5 81.5s97.167 28.5 150.5 28.5c50 0 95.667 -7.16699 137 -21.5s75.166 -33.166 101.499 -56.499s47.5 -46.5 63.5 -69.5s28.333 -46.5 37 -70.5h5v201h78
v-1371h-80v538h-5c-4.66699 -15.333 -11.667 -31.5 -21 -48.5s-23.5 -36 -42.5 -57s-40.5 -39.667 -64.5 -56s-54.5 -30.166 -91.5 -41.499s-76.833 -17 -119.5 -17c-116 0 -210.333 39.333 -283 118s-109 183.667 -109 315zM221.001 431.998
c0 -117.333 30 -209.334 90 -276.001s137 -100 231 -100c102.667 0 184 35.667 244 107s90 158.333 90 261v188c0 104.667 -30.833 191.834 -92.5 261.501s-142.5 104.5 -242.5 104.5c-90.667 0 -166.667 -32.667 -228 -98s-92 -159 -92 -281v-167z" />
    <glyph glyph-name="r" unicode="r" horiz-adv-x="721" 
d="M193 0v1035h81v-201h5c11.333 54.667 43 104.5 95 149.5s121.667 67.5 209 67.5c24 0 52.333 -2.33301 85 -7v-78c-24 6 -55 9 -93 9c-86.667 0 -158.5 -29 -215.5 -87s-85.5 -141 -85.5 -249v-639h-81z" />
    <glyph glyph-name="s" unicode="s" horiz-adv-x="1000" 
d="M116 263l80 -0.00488281c0.666992 -18 4.16699 -36.167 10.5 -54.5s16.833 -37 31.5 -56s32.834 -35.667 54.501 -50s49.667 -26 84 -35s72.5 -13.5 114.5 -13.5c86 0 156.667 18.667 212 56s83 90.666 83 159.999c0 20 -3.16699 38.667 -9.5 56s-13.833 32 -22.5 44
s-21.667 23.667 -39 35s-32.666 20.333 -45.999 27s-32.5 13.834 -57.5 21.501s-45 13.5 -60 17.5s-36.5 9.33301 -64.5 16c-44 10.667 -81.833 21.334 -113.5 32.001s-62.334 23.834 -92.001 39.501s-53.5 33 -71.5 52s-32.333 42.167 -43 69.5s-16 58 -16 92
c0 88.667 32.333 157.5 97 206.5s148 73.5 250 73.5c60 0 113.5 -8.5 160.5 -25.5s83.667 -39.167 110 -66.5s46 -56.166 59 -86.499s19.5 -61.166 19.5 -92.499h-78c-0.666992 20.667 -5.83398 41.834 -15.501 63.501s-24.5 43.167 -44.5 64.5s-48.333 38.666 -85 51.999
s-79 20 -127 20c-76 0 -139 -17.667 -189 -53s-75 -85 -75 -149c0 -59.333 22.167 -104.333 66.5 -135s114.5 -58 210.5 -82c34 -8 61.167 -14.833 81.5 -20.5s44.833 -13.334 73.5 -23.001s51.334 -19 68.001 -28s34.834 -20.667 54.501 -35s34.667 -29.666 45 -45.999
s19 -35.666 26 -57.999s10.5 -46.833 10.5 -73.5c0 -64 -17.667 -118.833 -53 -164.5s-81 -79 -137 -100s-119 -31.5 -189 -31.5c-64.667 0 -121.834 8.5 -171.501 25.5s-88.834 39.333 -117.501 67s-50 57.5 -64 89.5s-21 65 -21 99z" />
    <glyph glyph-name="t" unicode="t" horiz-adv-x="721" 
d="M48 964v71h199v252h80v-252h285v-71h-285v-733c0 -61.333 15 -104 45 -128s79.333 -36 148 -36c42.667 0 78.667 2.33301 108 7v-68c-34 -5.33301 -72.333 -8 -115 -8c-100.667 0 -170.167 18 -208.5 54s-57.5 100.333 -57.5 193v719h-199z" />
    <glyph glyph-name="u" unicode="u" horiz-adv-x="1143" 
d="M179 327l-0.000976562 708.001h81v-693c0 -89.333 25.167 -159.5 75.5 -210.5s118.5 -76.5 204.5 -76.5c52 0 99.5 10.167 142.5 30.5s78.167 47.166 105.5 80.499s48.5 71 63.5 113s22.5 85.333 22.5 130v626h81v-1035h-81v202h-5c-20 -58 -58.667 -109.167 -116 -153.5
s-131.666 -66.5 -222.999 -66.5c-104 0 -188.5 29 -253.5 87s-97.5 144 -97.5 258z" />
    <glyph glyph-name="v" unicode="v" horiz-adv-x="966" 
d="M59 1035h89l332 -938h5l336 938h86l-384 -1035h-82z" />
    <glyph glyph-name="w" unicode="w" horiz-adv-x="1443" 
d="M60 1035h91l237 -919h5l289 919h81l291 -919h6l238 919h85l-284 -1035h-82l-292 919h-4l-291 -919h-82z" />
    <glyph glyph-name="x" unicode="x" horiz-adv-x="1010" 
d="M95 0l363 520l-356 515h97l304 -445h5l307 445h93l-357 -510l364 -525h-97l-312 454h-5l-314 -454h-92z" />
    <glyph glyph-name="y" unicode="y" horiz-adv-x="964" 
d="M57 1035h90l337 -951h5l332 951h86l-373 -1036l-44 -116c-28.667 -76.667 -63 -133.167 -103 -169.5s-96.333 -54.5 -169 -54.5c-32 0 -63.667 3 -95 9v73c26.667 -6 56 -9 88 -9c53.333 0 95.333 13.5 126 40.5s55 66.5 73 118.5l35 96z" />
    <glyph glyph-name="z" unicode="z" horiz-adv-x="1011" 
d="M146 963v72h725v-65l-622 -893v-5h623v-72h-725v62l623 895v6h-624z" />
    <glyph glyph-name="braceleft" unicode="{" horiz-adv-x="716" 
d="M115 537v114.998c65.333 0 109.166 15.833 131.499 47.5s33.5 84.5 33.5 158.5v270c0 58 7 106.333 21 145s36.167 68.834 66.5 90.501s65.333 36.834 105 45.501s88.834 13 147.501 13h36v-70h-61c-82 0 -142 -17 -180 -51s-57 -88 -57 -162v-318
c0 -69.333 -12.667 -121.333 -38 -156s-65.333 -54.667 -120 -60v-19c54.667 -4.66699 94.667 -24.334 120 -59.001s38 -86.667 38 -156v-377c0 -73.333 19.667 -127.166 59 -161.499s98.666 -51.5 177.999 -51.5h61v-71h-36c-117.333 0 -203.333 22.167 -258 66.5
s-82 123.5 -82 237.5v319c0 74 -11.167 126.5 -33.5 157.5s-66.166 46.5 -131.499 46.5z" />
    <glyph glyph-name="bar" unicode="|" horiz-adv-x="463" 
d="M198 -308v1743h67v-1743h-67z" />
    <glyph glyph-name="braceright" unicode="}" horiz-adv-x="716" 
d="M60 -219l60.998 0.000976562c79.333 0 138.666 17.167 177.999 51.5s59 88.166 59 161.499v377c0 68.667 12.833 120.334 38.5 155.001s65.5 54.667 119.5 60v19c-54 5.33301 -93.833 25.333 -119.5 60s-38.5 86.667 -38.5 156v318c0 74 -19 128 -57 162s-98 51 -180 51
h-61v70h36c58.667 0 107.834 -4.33301 147.501 -13s74.667 -23.834 105 -45.501s52.5 -51.834 66.5 -90.501s21 -87 21 -145v-270c0 -74 11.333 -126.833 34 -158.5s66.334 -47.5 131.001 -47.5v-115c-65.333 0 -109.166 -15.667 -131.499 -47s-33.5 -83.666 -33.5 -156.999
v-319c0 -114 -27.333 -193.167 -82 -237.5s-140.667 -66.5 -258 -66.5h-36v71z" />
    <glyph glyph-name="asciitilde" unicode="~" horiz-adv-x="1167" 
d="M141 538c0 82.667 20.665 150.499 61.998 203.499s98.666 79.5 171.999 79.5c40 0 76 -9.5 108 -28.5s72.333 -50.833 121 -95.5c22.667 -22 41.667 -39.333 57 -52s34.833 -24.667 58.5 -36s46.834 -17 69.501 -17c36 0 66.833 11.833 92.5 35.5
s43.834 51.167 54.501 82.5s17 65 19 101h76c0 -34 -4.83301 -67.5 -14.5 -100.5s-24.167 -64.5 -43.5 -94.5s-45.666 -54.167 -78.999 -72.5s-71.333 -27.5 -114 -27.5c-40.667 0 -77.5 10.167 -110.5 30.5s-76.5 55.5 -130.5 105.5c-22 20.667 -39.5 36.334 -52.5 47.001
s-30.333 21.167 -52 31.5s-43.167 15.5 -64.5 15.5c-46.667 0 -83.5 -18.667 -110.5 -56s-41.167 -88 -42.5 -152h-76z" />
    <glyph glyph-name="uni00A0" unicode="&#xa0;" horiz-adv-x="465" 
 />
    <glyph glyph-name="exclamdown" unicode="&#xa1;" horiz-adv-x="531" 
d="M180 971c0 23.333 8.33301 43.166 25 59.499s36.667 24.5 60 24.5s43 -8.16699 59 -24.5s24 -36.166 24 -59.499s-8 -43.166 -24 -59.499s-35.667 -24.5 -59 -24.5s-43.333 8.16699 -60 24.5s-25 36.166 -25 59.499zM221 -320l8 965h70l9 -965h-87z" />
    <glyph glyph-name="cent" unicode="&#xa2;" 
d="M144 595l0.000976562 170.996c0 132.667 34.167 237.834 102.5 315.501s158.833 120.5 271.5 128.5v244h75v-243c53.333 -3.33301 101.833 -15.166 145.5 -35.499s79.167 -45.5 106.5 -75.5s48.833 -62.167 64.5 -96.5s24.5 -69.166 26.5 -104.499h-79
c-9.33301 64 -39.666 119.833 -90.999 167.5s-121.333 71.5 -210 71.5c-100.667 0 -181.167 -33.833 -241.5 -101.5s-90.5 -162.167 -90.5 -283.5v-151c0 -123.333 30.167 -218.166 90.5 -284.499s143.166 -99.5 248.499 -99.5c47.333 0 89.5 6.5 126.5 19.5
s66.667 30.5 89 52.5s40 45.167 53 69.5s22.5 50.5 28.5 78.5h77c-2.66699 -33.333 -11.334 -66 -26.001 -98s-35.334 -62.5 -62.001 -91.5s-62.167 -53 -106.5 -72s-94.166 -29.833 -149.499 -32.5v-235h-75v235c-116 8 -207.333 51 -274 129s-100 185.333 -100 322z" />
    <glyph glyph-name="sterling" unicode="&#xa3;" 
d="M77 668l0.000976562 71.999h243v335c0 102 29.833 180.167 89.5 234.5s140.834 81.5 243.501 81.5c100.667 0 181.167 -27.5 241.5 -82.5s92.166 -120.833 95.499 -197.5h-80c-2.66699 54 -26.167 101.833 -70.5 143.5s-105.5 62.5 -183.5 62.5
c-84.667 0 -148.334 -21.833 -191.001 -65.5s-64 -105.167 -64 -184.5v-327h330v-72h-330v-331c0 -140 -31 -224.333 -93 -253v-10h675v-74h-883v77c18 0 33.167 0.5 45.5 1.5s26.833 3.33301 43.5 7s30.667 9.16699 42 16.5s23 17.5 35 30.5s21.667 28.833 29 47.5
s13.333 41.834 18 69.501s7 59.167 7 94.5v324h-243z" />
    <glyph glyph-name="currency" unicode="&#xa4;" 
d="M97 258l189.001 188.001c-48.667 59.333 -73 129.666 -73 210.999c0 80.667 24 150 72 208l-188 187l52 51l186 -187c61.333 50.667 131.666 76 210.999 76s149.333 -25 210 -75l186 186l50 -51l-185 -186c48.667 -59.333 73 -129 73 -209c0 -82 -25 -152.667 -75 -212
l187 -187l-50 -51l-188 188c-61.333 -49.333 -130.666 -74 -207.999 -74c-78.667 0 -148.334 25 -209.001 75l-189 -189zM281.001 657.001c0 -74 25.667 -136.999 77 -188.999s114 -78 188 -78c73.333 0 135.833 26 187.5 78s77.5 115 77.5 189
c0 73.333 -25.833 136.166 -77.5 188.499s-114.167 78.5 -187.5 78.5c-74 0 -136.667 -26 -188 -78s-77 -115 -77 -189z" />
    <glyph glyph-name="yen" unicode="&#xa5;" 
d="M34 1360h96l411 -668h7l412 668h94l-439 -704h239v-68h-269v-186h269v-68h-269v-334h-81v334h-270v68h270v186h-270v68h240z" />
    <glyph glyph-name="brokenbar" unicode="&#xa6;" horiz-adv-x="416" 
d="M176 -309v685h75v-685h-75zM176 783v654h75v-654h-75z" />
    <glyph glyph-name="section" unicode="&#xa7;" horiz-adv-x="1057" 
d="M149 54l77.0029 0.00292969c2.66699 -70 30.667 -126.333 84 -169s126.666 -64 219.999 -64c91.333 0 164.166 23.5 218.499 70.5s81.5 102.5 81.5 166.5c0 64.667 -24.833 113.5 -74.5 146.5s-131.167 62.833 -244.5 89.5c-47.333 11.333 -86 21.666 -116 30.999
s-61.5 21.833 -94.5 37.5s-58.833 32.834 -77.5 51.501s-34.167 42.5 -46.5 71.5s-18.5 61.833 -18.5 98.5c0 35.333 6.33301 68.166 19 98.499s29.5 55.666 50.5 75.999s41.667 37 62 50s41.166 23.5 62.499 31.5v5c-18.667 9.33301 -34.334 18 -47.001 26
s-27.667 19.5 -45 34.5s-31.166 30.833 -41.499 47.5s-19.333 37.667 -27 63s-11.5 53 -11.5 83c0 86.667 32.667 157 98 211s148 81 248 81c102.667 0 185.5 -27 248.5 -81s94.5 -126 94.5 -216h-79c-0.666992 68 -26.667 122 -78 162s-113 60 -185 60
c-83.333 0 -148.333 -20.833 -195 -62.5s-70 -92.167 -70 -151.5c0 -35.333 6.83301 -66.333 20.5 -93s35 -49.334 64 -68.001s59.667 -34.167 92 -46.5s73.5 -25.166 123.5 -38.499c31.333 -8 56.666 -15 75.999 -21s42.333 -13.833 69 -23.5s48.167 -19.334 64.5 -29.001
s33.5 -21.667 51.5 -36s32 -29.833 42 -46.5s18.333 -36.167 25 -58.5s10 -46.833 10 -73.5c0 -58.667 -16.167 -110.5 -48.5 -155.5s-69.833 -80.167 -112.5 -105.5v-5c115.333 -48 173 -125.333 173 -232c0 -92 -35.667 -168.833 -107 -230.5s-164 -92.5 -278 -92.5
c-117.333 0 -209.666 27.833 -276.999 83.5s-101 130.167 -101 223.5zM239.003 592.003c0 -58 19.3311 -102.666 57.998 -133.999s100.334 -58 185.001 -80c72 -20.667 133.667 -36.667 185 -48c38 18 72.5 47.167 103.5 87.5s46.5 88.5 46.5 144.5
c0 96.667 -67.667 163.667 -203 201c-2.66699 0.666992 -32.667 9 -90 25s-87.666 24.667 -90.999 26c-45.333 -8.66699 -89 -33.834 -131 -75.501s-63 -90.5 -63 -146.5z" />
    <glyph glyph-name="dieresis" unicode="&#xa8;" horiz-adv-x="849" 
d="M206 1308c0 16.667 6.33301 31.5 19 44.5s27.667 19.5 45 19.5s32.333 -6.5 45 -19.5s19 -27.833 19 -44.5c0 -17.333 -6.33301 -32.666 -19 -45.999s-27.667 -20 -45 -20s-32.333 6.66699 -45 20s-19 28.666 -19 45.999zM502 1308c0 16.667 6 31.5 18 44.5
s26.667 19.5 44 19.5c18.667 0 34.334 -6.5 47.001 -19.5s19 -27.833 19 -44.5c0 -17.333 -6.33301 -32.666 -19 -45.999s-28.334 -20 -47.001 -20c-17.333 0 -32 6.66699 -44 20s-18 28.666 -18 45.999z" />
    <glyph glyph-name="copyright" unicode="&#xa9;" horiz-adv-x="1693" 
d="M145 640l0.00390625 105.002c0 93.333 17.667 181.5 53 264.5s83.666 154.667 144.999 215s136.166 108.166 224.499 143.499s183.166 53 284.499 53s196.333 -17.833 285 -53.5s163.667 -83.834 225 -144.501s109.666 -132.5 144.999 -215.5s53 -170.5 53 -262.5v-105
c0 -99.333 -17.167 -192 -51.5 -278s-82 -160 -143 -222s-135.833 -110.667 -224.5 -146s-185 -53 -289 -53c-138 0 -261 30.333 -369 91s-191.333 144 -250 250s-88 225.333 -88 358zM217.004 636.002c0 -118.667 26.333 -225.666 79 -320.999s127.5 -170.333 224.5 -225
s207.5 -82 331.5 -82c124.667 0 235.667 27.333 333 82s172.333 129.667 225 225s79 202.333 79 321v109c0 82.667 -15.667 161.167 -47 235.5s-74.5 139 -129.5 194s-122.5 98.667 -202.5 131s-166 48.5 -258 48.5c-122.667 0 -232.667 -27.5 -330 -82.5
s-172.5 -128.833 -225.5 -221.5s-79.5 -194.334 -79.5 -305.001v-109zM553.004 637.003v99c0 102.667 27 181 81 235s128.333 81 223 81c82 0 146.5 -20.667 193.5 -62s73.167 -88 78.5 -140h-77c-7.33301 34.667 -26.833 65.5 -58.5 92.5s-77.167 40.5 -136.5 40.5
c-153.333 0 -230 -84 -230 -252v-96c0 -80.667 20.167 -142 60.5 -184s96.833 -63 169.5 -63c60 0 106.333 11 139 33s53 51 61 87h78c-8 -52 -36.333 -96.833 -85 -134.5s-113 -56.5 -193 -56.5c-95.333 0 -169.833 27 -223.5 81s-80.5 133.667 -80.5 239z" />
    <glyph glyph-name="ordfeminine" unicode="&#xaa;" horiz-adv-x="654" 
d="M118 945c0 49.333 16.502 87.667 49.502 115s79.5 41 139.5 41h154v65c0 38.667 -11.5 67.5 -34.5 86.5s-54.833 28.5 -95.5 28.5c-38 0 -67.167 -7.16699 -87.5 -21.5s-32.833 -32.166 -37.5 -53.499h-66c3.33301 41.333 22.166 74.166 56.499 98.499
s80.166 36.5 137.499 36.5c58.667 0 106 -14.167 142 -42.5s54 -71.5 54 -129.5v-378h-66v81h-3c-13.333 -24 -33.5 -45 -60.5 -63s-61.833 -27 -104.5 -27c-54 0 -97.167 14.667 -129.5 44s-48.5 69 -48.5 119zM186.002 948.001c0 -33.333 11.833 -59.5 35.5 -78.5
s53.5 -28.5 89.5 -28.5c42 0 77.5 12.667 106.5 38s43.5 57.333 43.5 96v71h-150c-41.333 0 -72.5 -8.83301 -93.5 -26.5s-31.5 -41.5 -31.5 -71.5z" />
    <glyph glyph-name="guillemotleft" unicode="&#xab;" horiz-adv-x="1231" 
d="M146 557v8l367 404h99l-361 -403v-6l361 -405h-108zM552 557v8l367 404h100l-361 -403v-6l361 -405h-109z" />
    <glyph glyph-name="logicalnot" unicode="&#xac;" 
d="M130 513v72h821v-429h-77v357h-744z" />
    <glyph glyph-name="uni00AD" unicode="&#xad;" horiz-adv-x="806" 
d="M88 525v73h630v-73h-630z" />
    <glyph glyph-name="registered" unicode="&#xae;" horiz-adv-x="1211" 
d="M131 885l0.00195312 50c0 128 45.167 235.333 135.5 322s204.5 130 342.5 130c137.333 0 251.166 -43.5 341.499 -130.5s135.5 -194.167 135.5 -321.5v-50c0 -135.333 -44.333 -247 -133 -335s-203.334 -132 -344.001 -132c-140 0 -254.667 44 -344 132
s-134 199.667 -134 335zM193.002 881c0 -118 38.498 -214.835 115.498 -290.502s176.833 -113.5 299.5 -113.5s222.834 38 300.501 114s116.5 172.667 116.5 290v59c0 110.667 -39.167 203.334 -117.5 278.001s-178.166 112 -299.499 112
c-119.333 0 -218.333 -37.667 -297 -113s-118 -167.666 -118 -276.999v-59zM440 652.998v517.998h196c49.333 0 89 -14.167 119 -42.5s45 -65.5 45 -111.5c0 -38 -9.66699 -69.667 -29 -95s-45 -42.666 -77 -51.999c2 -3.33301 43 -75.666 123 -216.999h-68l-115 208h-135
v-208h-59zM499 912.996h122c36 0 64.833 8.83301 86.5 26.5s32.5 43.167 32.5 76.5c0 32 -10.333 57.333 -31 76s-48.667 28 -84 28h-126v-207z" />
    <glyph glyph-name="macron" unicode="&#xaf;" horiz-adv-x="849" 
d="M148 1300v58h560v-58h-560z" />
    <glyph glyph-name="degree" unicode="&#xb0;" horiz-adv-x="689" 
d="M96 1113c0 70.667 25 130.834 75 180.501s110.333 74.5 181 74.5c70 0 130 -24.833 180 -74.5s75 -109.834 75 -180.501s-25 -131 -75 -181s-110 -75 -180 -75c-70.667 0 -131 25 -181 75s-75 110.333 -75 181zM165 1113c0 -50 18.668 -93.667 56.001 -131
s81 -56 131 -56c52 0 96.5 18.5 133.5 55.5s55.5 80.833 55.5 131.5c0 52 -18.333 96.333 -55 133s-81.334 55 -134.001 55c-50 0 -93.667 -18.5 -131 -55.5s-56 -81.167 -56 -132.5z" />
    <glyph glyph-name="plusminus" unicode="&#xb1;" horiz-adv-x="1128" 
d="M117 151v75h894v-75h-894zM117 690v75h410v305h72v-305h411v-75h-411v-324h-72v324h-410z" />
    <glyph glyph-name="uni00B2" unicode="&#xb2;" horiz-adv-x="690" 
d="M127 1198l0.000976562 3.99805c0 50 17.667 93.333 53 130s85.666 55 150.999 55c62.667 0 112.5 -17 149.5 -51s55.5 -76.333 55.5 -127c0 -33.333 -8.66699 -64.666 -26 -93.999s-44.333 -63.666 -81 -102.999l-208 -217v-3h327v-60h-420v46l257 277
c54 55.333 81 105.666 81 150.999c0 34.667 -12.333 63.334 -37 86.001s-58 34 -100 34c-42.667 0 -75.667 -12 -99 -36s-35 -53.333 -35 -88v-4h-68z" />
    <glyph glyph-name="uni00B3" unicode="&#xb3;" horiz-adv-x="666" 
d="M103 884l65.001 0.000976562c1.33301 -29.333 16 -54 44 -74s63.667 -30 107 -30c47.333 0 85.333 12 114 36s43 54.667 43 92c0 38 -14.833 68.667 -44.5 92s-67.5 35 -113.5 35h-72v58h66c42 0 75.667 11.5 101 34.5s38 51.833 38 86.5
c0 33.333 -12.167 60.666 -36.5 81.999s-56.833 32 -97.5 32s-73 -9.83301 -97 -29.5s-37 -42.834 -39 -69.501h-64c0.666992 41.333 19 78 55 110s84.667 48 146 48c60.667 0 109.5 -15.667 146.5 -47s55.5 -70.333 55.5 -117c0 -40 -13.167 -74.167 -39.5 -102.5
s-56.5 -45.5 -90.5 -51.5v-2c41.333 -5.33301 77.166 -21.166 107.499 -47.499s45.5 -63.166 45.5 -110.499c0 -54.667 -21 -99.5 -63 -134.5s-96.667 -52.5 -164 -52.5c-63.333 0 -114.333 15.667 -153 47s-58.667 69.666 -60 114.999z" />
    <glyph glyph-name="acute" unicode="&#xb4;" horiz-adv-x="849" 
d="M258 1235l244 314h88l-263 -314h-69z" />
    <glyph glyph-name="paragraph" unicode="&#xb6;" horiz-adv-x="1203" 
d="M181 949c0 65.333 10.333 123.5 31 174.5s46.5 91.333 77.5 121s67 54 108 73s79 31.667 114 38s69.833 9.5 104.5 9.5h100v-1575h-81v747h-20c-32.667 0 -67.167 4 -103.5 12s-74.5 22.167 -114.5 42.5s-75.667 45.5 -107 75.5s-57.333 69.5 -78 118.5
s-31 103.5 -31 163.5zM889 -210v1575h82v-1575h-82z" />
    <glyph glyph-name="periodcentered" unicode="&#xb7;" horiz-adv-x="505" 
d="M168 689c0 24 8.16699 44.167 24.5 60.5s35.833 24.5 58.5 24.5c24 0 44.167 -8.16699 60.5 -24.5s24.5 -36.5 24.5 -60.5c0 -23.333 -8.16699 -43 -24.5 -59s-36.5 -24 -60.5 -24c-22.667 0 -42.167 8.16699 -58.5 24.5s-24.5 35.833 -24.5 58.5z" />
    <glyph glyph-name="cedilla" unicode="&#xb8;" horiz-adv-x="740" 
d="M222 -386c28.667 -10 68.9971 -15 120.997 -15c40.667 0 75.834 8.66699 105.501 26s44.5 43.333 44.5 78c0 66 -50.667 99 -152 99h-51v48l66 152h67l-59 -141c58.667 0 107.834 -12.667 147.501 -38s59.5 -64 59.5 -116c0 -55.333 -22.167 -97.5 -66.5 -126.5
s-97.166 -43.833 -158.499 -44.5c-48.667 -0.666992 -90 4.33301 -124 15v63z" />
    <glyph glyph-name="uni00B9" unicode="&#xb9;" horiz-adv-x="566" 
d="M140 1176v68l166 116h69v-628h-69v554h-4z" />
    <glyph glyph-name="ordmasculine" unicode="&#xba;" horiz-adv-x="639" 
d="M89 1021l0.000976562 82c0 73.333 21.667 131.333 65 174s98.666 64 165.999 64c66.667 0 121.5 -21.167 164.5 -63.5s64.5 -100.5 64.5 -174.5v-82c0 -75.333 -21.333 -134 -64 -176s-97.667 -63 -165 -63c-68 0 -123.5 21 -166.5 63s-64.5 100.667 -64.5 176z
M158.001 1027c0 -57.333 14.501 -102.335 43.501 -135.002s68.5 -49 118.5 -49c49.333 0 88.5 16.167 117.5 48.5s43.5 77.5 43.5 135.5v69c0 56.667 -14.833 101.834 -44.5 135.501s-68.5 50.5 -116.5 50.5c-48.667 0 -87.834 -16.667 -117.501 -50
s-44.5 -78.666 -44.5 -135.999v-69z" />
    <glyph glyph-name="guillemotright" unicode="&#xbb;" horiz-adv-x="1221" 
d="M154 155l361 405v6l-361 403h99l367 -404v-8l-358 -402h-108zM560 155l361 405v6l-361 403h99l367 -404v-8l-358 -402h-108z" />
    <glyph glyph-name="onequarter" unicode="&#xbc;" horiz-adv-x="1409" 
d="M32 1176v68l166 116h69v-628h-69v554h-4zM83 0l514 680l514 680h82l-513 -680l-514 -680h-83zM769 143v57c15.333 26.667 42.5 69.667 81.5 129l129.5 194l87 129h100v-451h93v-58h-93v-143h-64v143h-334zM841 201h262v392h-4c-120 -174 -206 -303.667 -258 -389v-3z" />
    <glyph glyph-name="onehalf" unicode="&#xbd;" horiz-adv-x="1454" 
d="M32 1176v68l166 116h69v-628h-69v554h-4zM83 0l514 680l514 680h82l-513 -680l-514 -680h-83zM889 463l-0.00195312 3.99902c0 50.667 17.667 94.167 53 130.5s86 54.5 152 54.5c62.667 0 112.667 -17 150 -51s56 -76.333 56 -127c0 -33.333 -8.66699 -64.833 -26 -94.5
s-44.666 -64.167 -81.999 -103.5l-209 -218v-3h329v-61h-422v47l258 278c54 55.333 81 106 81 152c0 34.667 -12.333 63.334 -37 86.001s-58 34 -100 34c-43.333 0 -76.666 -12 -99.999 -36s-35 -53.333 -35 -88v-4h-68z" />
    <glyph glyph-name="threequarters" unicode="&#xbe;" horiz-adv-x="1395" 
d="M13 878h66.001c1.33301 -29.333 16 -54 44 -74s63.667 -30 107 -30c47.333 0 85.5 12 114.5 36s43.5 54.667 43.5 92c0 38 -14.833 68.833 -44.5 92.5s-67.834 35.5 -114.501 35.5h-72v58h66c42 0 75.833 11.5 101.5 34.5s38.5 51.833 38.5 86.5
c0 34 -12.333 61.667 -37 83s-57.334 32 -98.001 32s-73 -10 -97 -30s-37 -43.333 -39 -70h-65c0.666992 42 19 79 55 111s85 48 147 48c61.333 0 110.5 -15.667 147.5 -47s55.5 -70.666 55.5 -117.999c0 -40 -13.333 -74.167 -40 -102.5s-57 -45.5 -91 -51.5v-2
c42 -5.33301 78.167 -21.333 108.5 -48s45.5 -63.667 45.5 -111c0 -54.667 -21.167 -99.5 -63.5 -134.5s-97.166 -52.5 -164.499 -52.5c-63.333 0 -114.5 15.667 -153.5 47s-59.167 69.666 -60.5 114.999zM140.001 0l514 680l514 680h82l-513 -680l-514 -680h-83z
M867.001 143v57c15.333 26.667 42.5 69.667 81.5 129l129.5 194l87 129h101v-451h93v-58h-93v-143h-65v143h-334zM939.001 201h262.001v392h-3l-135.5 -199c-61.667 -92 -102.834 -155 -123.501 -189v-4z" />
    <glyph glyph-name="questiondown" unicode="&#xbf;" horiz-adv-x="922" 
d="M84 -39c0 69.333 17.166 129.167 51.499 179.5s85.166 100.833 152.499 151.5c64 48 106.167 90.833 126.5 128.5s30.5 82.167 30.5 133.5v88h81v-99c0 -60 -13.5 -112.333 -40.5 -157s-75.5 -93.667 -145.5 -147c-61.333 -46.667 -105.333 -90.167 -132 -130.5
s-40 -88.5 -40 -144.5c0 -79.333 27.833 -140.5 83.5 -183.5s124.834 -64.5 207.501 -64.5c52.667 0 99.167 8.5 139.5 25.5s71.5 39.167 93.5 66.5s38.5 55 49.5 83s17.5 56.333 19.5 85h77c-3.33301 -97.333 -38.833 -177 -106.5 -239s-160.5 -93 -278.5 -93
c-105.333 0 -193.166 28.167 -263.499 84.5s-105.5 133.833 -105.5 232.5zM396.999 967.001c0 22.667 8.33301 42.167 25 58.5s36.667 24.5 60 24.5c22.667 0 42.167 -8 58.5 -24s24.5 -35.667 24.5 -59s-8.16699 -43.333 -24.5 -60s-35.833 -25 -58.5 -25
c-23.333 0 -43.333 8.33301 -60 25s-25 36.667 -25 60z" />
    <glyph glyph-name="Agrave" unicode="&#xc0;" horiz-adv-x="1193" 
d="M66 0l488 1360h85l488 -1360h-88l-160 458h-567l-161 -458h-85zM294 1752h107l300 -238h-95zM335 528h519l-256 731h-5z" />
    <glyph glyph-name="Aacute" unicode="&#xc1;" horiz-adv-x="1193" 
d="M66 0l488 1360h85l488 -1360h-88l-160 458h-567l-161 -458h-85zM335 528h519l-256 731h-5zM485 1512l300 239h107l-311 -239h-96z" />
    <glyph glyph-name="Acircumflex" unicode="&#xc2;" horiz-adv-x="1193" 
d="M66 0l488 1360h85l488 -1360h-88l-160 458h-567l-161 -458h-85zM304 1499l278 215h46l270 -215h-96l-196 153h-5l-198 -153h-99zM335 528h519l-256 731h-5z" />
    <glyph glyph-name="Atilde" unicode="&#xc3;" horiz-adv-x="1193" 
d="M66 0l488 1360h85l488 -1360h-88l-160 458h-567l-161 -458h-85zM306 1501c0 59.333 13.168 105.832 39.501 139.499s64.166 50.5 113.499 50.5c29.333 0 55 -6.83301 77 -20.5s46 -36.167 72 -67.5c18.667 -23.333 35 -39.666 49 -48.999s31.667 -14 53 -14
c28.667 0 52.5 13.167 71.5 39.5s28.833 59.833 29.5 100.5h61c0 -56 -15.167 -102.667 -45.5 -140s-68.5 -56 -114.5 -56c-34 0 -61.5 6 -82.5 18s-43.167 31 -66.5 57c-19.333 24.667 -36.833 43.167 -52.5 55.5s-33.5 18.5 -53.5 18.5c-58.667 0 -88.667 -44 -90 -132
h-61zM335.001 527.999h519l-256 731h-5z" />
    <glyph glyph-name="Adieresis" unicode="&#xc4;" horiz-adv-x="1193" 
d="M66 0l488 1360h85l488 -1360h-88l-160 458h-567l-161 -458h-85zM335 528h519l-256 731h-5zM381 1570c0 16.667 6.16699 31.332 18.5 43.999s27.5 19 45.5 19c18.667 0 34 -6.16699 46 -18.5s18 -27.166 18 -44.499c0 -16.667 -6.16699 -31.5 -18.5 -44.5
s-27.5 -19.5 -45.5 -19.5c-17.333 0 -32.333 6.5 -45 19.5s-19 27.833 -19 44.5zM686 1570c0 16.667 6.16699 31.334 18.5 44.001s27.5 19 45.5 19c18.667 0 34.167 -6.33301 46.5 -19s18.5 -27.334 18.5 -44.001s-6.16699 -31.5 -18.5 -44.5s-27.833 -19.5 -46.5 -19.5
c-17.333 0 -32.333 6.5 -45 19.5s-19 27.833 -19 44.5z" />
    <glyph glyph-name="Aring" unicode="&#xc5;" horiz-adv-x="1193" 
d="M66 0l476.999 1329c-35.333 10.667 -64.166 31 -86.499 61s-33.5 64.333 -33.5 103c0 47.333 16.833 87.666 50.5 120.999s74.834 50 123.501 50c47.333 0 87.5 -16.667 120.5 -50s49.5 -73.666 49.5 -120.999c0 -38 -10.833 -71.833 -32.5 -101.5
s-49.834 -50.5 -84.501 -62.5l477 -1329h-88l-160 458h-567l-161 -458h-85zM334.999 528h519l-256 731h-5zM476.999 1492c0 -32 11.833 -59.667 35.5 -83s51.167 -35 82.5 -35c32.667 0 60.667 11.667 84 35s35 51 35 83c0 32.667 -11.667 60.5 -35 83.5
s-51.333 34.5 -84 34.5c-32 0 -59.667 -11.667 -83 -35s-35 -51 -35 -83z" />
    <glyph glyph-name="AE" unicode="&#xc6;" horiz-adv-x="1866" 
d="M41 0l809 1360h887v-76h-691v-550h657v-75h-657v-584h691v-75h-773v486h-543l-290 -486h-90zM461 556h503v728h-68z" />
    <glyph glyph-name="Ccedilla" unicode="&#xc7;" horiz-adv-x="1288" 
d="M157 560l0.00195312 237.003c0 84 10.5 161.5 31.5 232.5s51.833 133.667 92.5 188s94 96.833 160 127.5s141 46 225 46c75.333 0 143.833 -12.667 205.5 -38s111.334 -58.333 149.001 -99s66.667 -85 87 -133s30.5 -96.333 30.5 -145v-3h-81
c0 39.333 -8.66699 78.833 -26 118.5s-41.833 76.334 -73.5 110.001s-73 61.167 -124 82.5s-106.833 32 -167.5 32c-93.333 0 -172.833 -23.333 -238.5 -70s-113.667 -107.834 -144 -183.501s-45.5 -161.5 -45.5 -257.5v-253c0 -72 8.66699 -138.167 26 -198.5
s43.166 -113.833 77.499 -160.5s79.666 -83.167 135.999 -109.5s121.166 -39.5 194.499 -39.5c118 0 213.167 32.5 285.5 97.5s108.5 144.833 108.5 239.5h81v-3c0 -50 -9.83301 -98.333 -29.5 -145s-47.5 -88.834 -83.5 -126.501s-82 -68.834 -138 -93.501
s-117.667 -39 -185 -43l-49 -117c59.333 0 108.666 -12.5 147.999 -37.5s59 -63.833 59 -116.5c0 -55.333 -22 -97.333 -66 -126s-96.667 -43.667 -158 -45c-45.333 -0.666992 -87 4.66602 -125 15.999v63c32 -10.667 72.333 -16 121 -16c40.667 0 76 8.83301 106 26.5
s45 43.5 45 77.5c0 66.667 -51 100 -153 100h-50v48l54 127c-82.667 2.66699 -155.667 19.667 -219 51s-114.166 73.833 -152.499 127.5s-67 115 -86 184s-28.5 144.833 -28.5 227.5z" />
    <glyph glyph-name="Egrave" unicode="&#xc8;" horiz-adv-x="1117" 
d="M212 0v1360h776v-76h-694v-550h659v-75h-659v-584h694v-75h-776zM295 1752h107l300 -238h-95z" />
    <glyph glyph-name="Eacute" unicode="&#xc9;" horiz-adv-x="1117" 
d="M212 0v1360h776v-76h-694v-550h659v-75h-659v-584h694v-75h-776zM486 1512l300 239h107l-311 -239h-96z" />
    <glyph glyph-name="Ecircumflex" unicode="&#xca;" horiz-adv-x="1117" 
d="M212 0v1360h776v-76h-694v-550h659v-75h-659v-584h694v-75h-776zM305 1499l278 215h46l270 -215h-96l-196 153h-5l-198 -153h-99z" />
    <glyph glyph-name="Edieresis" unicode="&#xcb;" horiz-adv-x="1117" 
d="M212 0v1360h776v-76h-694v-550h659v-75h-659v-584h694v-75h-776zM381 1570c0 16.667 6.16699 31.332 18.5 43.999s27.5 19 45.5 19c18.667 0 34 -6.16699 46 -18.5s18 -27.166 18 -44.499c0 -16.667 -6.16699 -31.5 -18.5 -44.5s-27.5 -19.5 -45.5 -19.5
c-17.333 0 -32.333 6.5 -45 19.5s-19 27.833 -19 44.5zM686 1570c0 16.667 6.16699 31.334 18.5 44.001s27.5 19 45.5 19c18.667 0 34.167 -6.33301 46.5 -19s18.5 -27.334 18.5 -44.001s-6.16699 -31.5 -18.5 -44.5s-27.833 -19.5 -46.5 -19.5
c-17.333 0 -32.333 6.5 -45 19.5s-19 27.833 -19 44.5z" />
    <glyph glyph-name="Igrave" unicode="&#xcc;" horiz-adv-x="536" 
d="M-35 1752h107l300 -238h-95zM227 0v1360h82v-1360h-82z" />
    <glyph glyph-name="Iacute" unicode="&#xcd;" horiz-adv-x="536" 
d="M156 1512l300 239h107l-311 -239h-96zM227 0v1360h82v-1360h-82z" />
    <glyph glyph-name="Icircumflex" unicode="&#xce;" horiz-adv-x="536" 
d="M-25 1499l278 215h46l270 -215h-96l-196 153h-5l-198 -153h-99zM227 0v1360h82v-1360h-82z" />
    <glyph glyph-name="Idieresis" unicode="&#xcf;" horiz-adv-x="536" 
d="M52 1570c0 16.667 6.16699 31.332 18.5 43.999s27.5 19 45.5 19c18.667 0 34 -6.16699 46 -18.5s18 -27.166 18 -44.499c0 -16.667 -6 -31.5 -18 -44.5s-27.333 -19.5 -46 -19.5c-17.333 0 -32.333 6.5 -45 19.5s-19 27.833 -19 44.5zM227 -0.00195312v1360h82v-1360h-82
zM357 1570c0 16.667 6.16699 31.334 18.5 44.001s27.5 19 45.5 19c18.667 0 34.167 -6.33301 46.5 -19s18.5 -27.334 18.5 -44.001s-6.16699 -31.5 -18.5 -44.5s-27.833 -19.5 -46.5 -19.5c-17.333 0 -32.333 6.5 -45 19.5s-19 27.833 -19 44.5z" />
    <glyph glyph-name="Eth" unicode="&#xd0;" horiz-adv-x="1396" 
d="M112 660l0.000976562 74.001h159v626h365c106 0 198.5 -16.167 277.5 -48.5s142.5 -78.833 190.5 -139.5s83.5 -131.834 106.5 -213.501s34.5 -174.5 34.5 -278.5c0 -82.667 -6.83301 -158.167 -20.5 -226.5s-35.834 -130.833 -66.501 -187.5s-69.5 -104.5 -116.5 -143.5
s-104.667 -69.167 -173 -90.5s-145.833 -32 -232.5 -32h-365v660h-159zM353.001 75.001h283.003c179.333 0 311.666 52.833 396.999 158.5s128 254.5 128 446.5c0 93.333 -10.167 176.5 -30.5 249.5s-51.333 136.333 -93 190s-96.334 94.667 -164.001 123
s-146.834 42.5 -237.501 42.5h-283v-551h360v-74h-360v-585z" />
    <glyph glyph-name="Ntilde" unicode="&#xd1;" horiz-adv-x="1377" 
d="M212 0v1360h84l782 -1216h5v1216h82v-1360h-84l-782 1216h-5v-1216h-82zM398 1501c0 59.333 13.168 105.832 39.501 139.499s64.166 50.5 113.499 50.5c29.333 0 55 -6.83301 77 -20.5s46 -36.167 72 -67.5c18.667 -23.333 35 -39.666 49 -48.999s31.667 -14 53 -14
c28.667 0 52.5 13.167 71.5 39.5s28.833 59.833 29.5 100.5h61c0 -56 -15.167 -102.667 -45.5 -140s-68.5 -56 -114.5 -56c-34 0 -61.5 6 -82.5 18s-43.167 31 -66.5 57c-19.333 24.667 -36.833 43.167 -52.5 55.5s-33.5 18.5 -53.5 18.5c-58.667 0 -88.667 -44 -90 -132
h-61z" />
    <glyph glyph-name="Ograve" unicode="&#xd2;" horiz-adv-x="1352" 
d="M157 556l-0.000976562 243.999c0 180.667 45.833 324.334 137.5 431.001s218.834 160 381.501 160s290 -53.5 382 -160.5s138 -251.167 138 -432.5v-242c0 -180.667 -46 -323.667 -138 -429s-219.667 -158 -383 -158c-162.667 0 -289.667 52.667 -381 158
s-137 248.333 -137 429zM237.999 549.999c0 -154.667 39.168 -277.667 117.501 -369s185.166 -137 320.499 -137s242.333 45.833 321 137.5s118 214.5 118 368.5v256c0 154 -39.667 277.5 -119 370.5s-186 139.5 -320 139.5s-240.5 -46.5 -319.5 -139.5
s-118.5 -216.5 -118.5 -370.5v-256zM373 1752h107l300 -238h-95z" />
    <glyph glyph-name="Oacute" unicode="&#xd3;" horiz-adv-x="1352" 
d="M157 556l-0.000976562 243.999c0 180.667 45.833 324.334 137.5 431.001s218.834 160 381.501 160s290 -53.5 382 -160.5s138 -251.167 138 -432.5v-242c0 -180.667 -46 -323.667 -138 -429s-219.667 -158 -383 -158c-162.667 0 -289.667 52.667 -381 158
s-137 248.333 -137 429zM237.999 549.999c0 -154.667 39.168 -277.667 117.501 -369s185.166 -137 320.499 -137s242.333 45.833 321 137.5s118 214.5 118 368.5v256c0 154 -39.667 277.5 -119 370.5s-186 139.5 -320 139.5s-240.5 -46.5 -319.5 -139.5
s-118.5 -216.5 -118.5 -370.5v-256zM564 1512l300 239h107l-311 -239h-96z" />
    <glyph glyph-name="Ocircumflex" unicode="&#xd4;" horiz-adv-x="1352" 
d="M157 556l-0.000976562 243.999c0 180.667 45.833 324.334 137.5 431.001s218.834 160 381.501 160s290 -53.5 382 -160.5s138 -251.167 138 -432.5v-242c0 -180.667 -46 -323.667 -138 -429s-219.667 -158 -383 -158c-162.667 0 -289.667 52.667 -381 158
s-137 248.333 -137 429zM237.999 549.999c0 -154.667 39.168 -277.667 117.501 -369s185.166 -137 320.499 -137s242.333 45.833 321 137.5s118 214.5 118 368.5v256c0 154 -39.667 277.5 -119 370.5s-186 139.5 -320 139.5s-240.5 -46.5 -319.5 -139.5
s-118.5 -216.5 -118.5 -370.5v-256zM383 1499l278 215h46l270 -215h-96l-196 153h-5l-198 -153h-99z" />
    <glyph glyph-name="Otilde" unicode="&#xd5;" horiz-adv-x="1352" 
d="M157 556l-0.000976562 243.999c0 180.667 45.833 324.334 137.5 431.001s218.834 160 381.501 160s290 -53.5 382 -160.5s138 -251.167 138 -432.5v-242c0 -180.667 -46 -323.667 -138 -429s-219.667 -158 -383 -158c-162.667 0 -289.667 52.667 -381 158
s-137 248.333 -137 429zM237.999 549.999c0 -154.667 39.168 -277.667 117.501 -369s185.166 -137 320.499 -137s242.333 45.833 321 137.5s118 214.5 118 368.5v256c0 154 -39.667 277.5 -119 370.5s-186 139.5 -320 139.5s-240.5 -46.5 -319.5 -139.5
s-118.5 -216.5 -118.5 -370.5v-256zM385 1501c0 59.333 13.168 105.832 39.501 139.499s64.166 50.5 113.499 50.5c29.333 0 55 -6.83301 77 -20.5s46 -36.167 72 -67.5c18.667 -23.333 35 -39.666 49 -48.999s31.667 -14 53 -14c28.667 0 52.5 13.167 71.5 39.5
s28.833 59.833 29.5 100.5h61c0 -56 -15.167 -102.667 -45.5 -140s-68.5 -56 -114.5 -56c-34 0 -61.5 6 -82.5 18s-43.167 31 -66.5 57c-19.333 24.667 -36.833 43.167 -52.5 55.5s-33.5 18.5 -53.5 18.5c-58.667 0 -88.667 -44 -90 -132h-61z" />
    <glyph glyph-name="Odieresis" unicode="&#xd6;" horiz-adv-x="1352" 
d="M157 556l-0.000976562 243.999c0 180.667 45.833 324.334 137.5 431.001s218.834 160 381.501 160s290 -53.5 382 -160.5s138 -251.167 138 -432.5v-242c0 -180.667 -46 -323.667 -138 -429s-219.667 -158 -383 -158c-162.667 0 -289.667 52.667 -381 158
s-137 248.333 -137 429zM237.999 549.999c0 -154.667 39.168 -277.667 117.501 -369s185.166 -137 320.499 -137s242.333 45.833 321 137.5s118 214.5 118 368.5v256c0 154 -39.667 277.5 -119 370.5s-186 139.5 -320 139.5s-240.5 -46.5 -319.5 -139.5
s-118.5 -216.5 -118.5 -370.5v-256zM460 1570c0 16.667 6.16699 31.332 18.5 43.999s27.5 19 45.5 19c18.667 0 34 -6.16699 46 -18.5s18 -27.166 18 -44.499c0 -16.667 -6 -31.5 -18 -44.5s-27.333 -19.5 -46 -19.5c-17.333 0 -32.333 6.5 -45 19.5s-19 27.833 -19 44.5z
M765 1570c0 16.667 6.16699 31.334 18.5 44.001s27.5 19 45.5 19c18.667 0 34.167 -6.33301 46.5 -19s18.5 -27.334 18.5 -44.001s-6.16699 -31.5 -18.5 -44.5s-27.833 -19.5 -46.5 -19.5c-17.333 0 -32.333 6.5 -45 19.5s-19 27.833 -19 44.5z" />
    <glyph glyph-name="multiply" unicode="&#xd7;" 
d="M170 159l325 325l-325 326l50 51l327 -326l325 326l50 -51l-325 -326l325 -325l-51 -51l-324 326l-326 -326z" />
    <glyph glyph-name="Oslash" unicode="&#xd8;" horiz-adv-x="1352" 
d="M107 69l124.999 147c-50 94.667 -75 208.334 -75 341.001v242c0 181.333 45.833 325.333 137.5 432s218.834 160 381.501 160c173.333 0 306 -60.333 398 -181l119 139l52 -36l-133 -157c56 -98 84 -217 84 -357v-242c0 -180.667 -46 -323.834 -138 -429.501
s-219.667 -158.5 -383 -158.5c-180 0 -315.333 64 -406 192l-113 -133zM237.999 550c0 -100 17.333 -188.332 52 -264.999l731 860c-80 114 -195 171 -345 171c-134 0 -240.5 -46.333 -319.5 -139s-118.5 -216.334 -118.5 -371.001v-256zM322.999 225.001
c79.333 -120.667 197 -181 353 -181c136 0 243.167 45.667 321.5 137s117.5 214.333 117.5 369v256c0 107.333 -20 201 -60 281z" />
    <glyph glyph-name="Ugrave" unicode="&#xd9;" horiz-adv-x="1354" 
d="M190 470v889.998h82v-891c0 -130 35.333 -233 106 -309s170 -114 298 -114c129.333 0 229.166 37.833 299.499 113.5s105.5 178.834 105.5 309.501v891h82v-891c0 -152.667 -43.167 -274.167 -129.5 -364.5s-205.5 -135.5 -357.5 -135.5
c-151.333 0 -270.166 45.333 -356.499 136s-129.5 212.334 -129.5 365.001zM374 1752h107l300 -238h-95z" />
    <glyph glyph-name="Uacute" unicode="&#xda;" horiz-adv-x="1354" 
d="M190 470v889.998h82v-891c0 -130 35.333 -233 106 -309s170 -114 298 -114c129.333 0 229.166 37.833 299.499 113.5s105.5 178.834 105.5 309.501v891h82v-891c0 -152.667 -43.167 -274.167 -129.5 -364.5s-205.5 -135.5 -357.5 -135.5
c-151.333 0 -270.166 45.333 -356.499 136s-129.5 212.334 -129.5 365.001zM565 1512l300 239h107l-311 -239h-96z" />
    <glyph glyph-name="Ucircumflex" unicode="&#xdb;" horiz-adv-x="1354" 
d="M190 470v889.998h82v-891c0 -130 35.333 -233 106 -309s170 -114 298 -114c129.333 0 229.166 37.833 299.499 113.5s105.5 178.834 105.5 309.501v891h82v-891c0 -152.667 -43.167 -274.167 -129.5 -364.5s-205.5 -135.5 -357.5 -135.5
c-151.333 0 -270.166 45.333 -356.499 136s-129.5 212.334 -129.5 365.001zM384 1499l278 215h46l270 -215h-96l-196 153h-5l-198 -153h-99z" />
    <glyph glyph-name="Udieresis" unicode="&#xdc;" horiz-adv-x="1354" 
d="M190 470v889.998h82v-891c0 -130 35.333 -233 106 -309s170 -114 298 -114c129.333 0 229.166 37.833 299.499 113.5s105.5 178.834 105.5 309.501v891h82v-891c0 -152.667 -43.167 -274.167 -129.5 -364.5s-205.5 -135.5 -357.5 -135.5
c-151.333 0 -270.166 45.333 -356.499 136s-129.5 212.334 -129.5 365.001zM461 1570c0 16.667 6.16699 31.332 18.5 43.999s27.5 19 45.5 19c18.667 0 34 -6.16699 46 -18.5s18 -27.166 18 -44.499c0 -16.667 -6.16699 -31.5 -18.5 -44.5s-27.5 -19.5 -45.5 -19.5
c-17.333 0 -32.333 6.5 -45 19.5s-19 27.833 -19 44.5zM766 1570c0 16.667 6.16699 31.334 18.5 44.001s27.5 19 45.5 19c18.667 0 34.167 -6.33301 46.5 -19s18.5 -27.334 18.5 -44.001s-6.16699 -31.5 -18.5 -44.5s-27.833 -19.5 -46.5 -19.5
c-17.333 0 -32.333 6.5 -45 19.5s-19 27.833 -19 44.5z" />
    <glyph glyph-name="Yacute" unicode="&#xdd;" horiz-adv-x="1103" 
d="M41 1360h96l412 -668h6l413 668h94l-469 -751v-609h-81v607zM440 1512l300 239h107l-311 -239h-96z" />
    <glyph glyph-name="Thorn" unicode="&#xde;" horiz-adv-x="1174" 
d="M212 0v1360h82v-265h336c130 0 233.167 -31.333 309.5 -94s114.5 -153.667 114.5 -273s-38.167 -210.333 -114.5 -273s-179.5 -94 -309.5 -94h-336v-361h-82zM294 435h322.999c114 0 201.333 23.167 262 69.5s91 120.833 91 223.5c0 98.667 -30.167 172 -90.5 220
s-144.166 72 -251.499 72h-334v-585z" />
    <glyph glyph-name="germandbls" unicode="&#xdf;" horiz-adv-x="1193" 
d="M206 0l0.00195312 1069c0 111.333 32 198.5 96 261.5s156.667 94.5 278 94.5c118 0 210.667 -30.5 278 -91.5s100.666 -141.5 99.999 -241.5c0 -86 -26.667 -160.5 -80 -223.5s-111.666 -100.833 -174.999 -113.5v-5c44 -1.33301 87.833 -9.83301 131.5 -25.5
s84.167 -38 121.5 -67s67.666 -67.167 90.999 -114.5s35 -100 35 -158c0 -64.667 -13.5 -123.334 -40.5 -176.001s-62.333 -95.167 -106 -127.5s-91.5 -57 -143.5 -74s-104.667 -25.5 -158 -25.5c-61.333 0 -118 5.33301 -170 16v76c44.667 -12 102.667 -18 174 -18
c44 0 86.833 7 128.5 21s79.667 34 114 60s62 60.167 83 102.5s31.5 89.5 31.5 141.5c0 96.667 -37.5 174.334 -112.5 233.001s-176.167 88 -303.5 88h-93v84h85c81.333 0 152.166 30 212.499 90s90.5 128.667 90.5 206c0 88 -27.333 154.667 -82 200s-124.667 68 -210 68
c-97.333 0 -170.833 -25 -220.5 -75s-74.5 -120 -74.5 -210v-1065h-81z" />
    <glyph glyph-name="agrave" unicode="&#xe0;" horiz-adv-x="1059" 
d="M125 291c0 88.667 30.333 159.167 91 211.5s147.667 78.5 261 78.5h317v146c0 84 -24.667 146.833 -74 188.5s-116.666 62.5 -201.999 62.5c-82.667 0 -146 -17 -190 -51s-70 -73.333 -78 -118h-79c5.33301 68.667 38.666 126.334 99.999 173.001s145.333 70 252 70
c108 0 193.667 -26.5 257 -79.5s95 -130.833 95 -233.5v-739h-79v169h-5c-7.33301 -18.667 -19 -37.834 -35 -57.501s-37 -39.667 -63 -60s-59 -37 -99 -50s-83.667 -19.5 -131 -19.5c-100.667 0 -182.167 28 -244.5 84s-93.5 131 -93.5 225zM211 293
c0 -72.667 24.499 -130.5 73.499 -173.5s112.167 -64.5 189.5 -64.5c89.333 0 165 27.667 227 83s93 126 93 212v159h-316c-89.333 0 -156.166 -19.5 -200.499 -58.5s-66.5 -91.5 -66.5 -157.5zM270.999 1551h90l243 -314h-69z" />
    <glyph glyph-name="aacute" unicode="&#xe1;" horiz-adv-x="1059" 
d="M125 291c0 88.667 30.333 159.167 91 211.5s147.667 78.5 261 78.5h317v146c0 84 -24.667 146.833 -74 188.5s-116.666 62.5 -201.999 62.5c-82.667 0 -146 -17 -190 -51s-70 -73.333 -78 -118h-79c5.33301 68.667 38.666 126.334 99.999 173.001s145.333 70 252 70
c108 0 193.667 -26.5 257 -79.5s95 -130.833 95 -233.5v-739h-79v169h-5c-7.33301 -18.667 -19 -37.834 -35 -57.501s-37 -39.667 -63 -60s-59 -37 -99 -50s-83.667 -19.5 -131 -19.5c-100.667 0 -182.167 28 -244.5 84s-93.5 131 -93.5 225zM211 293
c0 -72.667 24.499 -130.5 73.499 -173.5s112.167 -64.5 189.5 -64.5c89.333 0 165 27.667 227 83s93 126 93 212v159h-316c-89.333 0 -156.166 -19.5 -200.499 -58.5s-66.5 -91.5 -66.5 -157.5zM468.999 1237l244 314h88l-263 -314h-69z" />
    <glyph glyph-name="acircumflex" unicode="&#xe2;" horiz-adv-x="1059" 
d="M125 291c0 88.667 30.333 159.167 91 211.5s147.667 78.5 261 78.5h317v146c0 84 -24.667 146.833 -74 188.5s-116.666 62.5 -201.999 62.5c-82.667 0 -146 -17 -190 -51s-70 -73.333 -78 -118h-79c5.33301 68.667 38.666 126.334 99.999 173.001s145.333 70 252 70
c108 0 193.667 -26.5 257 -79.5s95 -130.833 95 -233.5v-739h-79v169h-5c-7.33301 -18.667 -19 -37.834 -35 -57.501s-37 -39.667 -63 -60s-59 -37 -99 -50s-83.667 -19.5 -131 -19.5c-100.667 0 -182.167 28 -244.5 84s-93.5 131 -93.5 225zM211 293
c0 -72.667 24.499 -130.5 73.499 -173.5s112.167 -64.5 189.5 -64.5c89.333 0 165 27.667 227 83s93 126 93 212v159h-316c-89.333 0 -156.166 -19.5 -200.499 -58.5s-66.5 -91.5 -66.5 -157.5zM255.999 1234l242 347h66l234 -347h-76l-190 288h-5l-196 -288h-75z" />
    <glyph glyph-name="atilde" unicode="&#xe3;" horiz-adv-x="1059" 
d="M125 291c0 88.667 30.333 159.167 91 211.5s147.667 78.5 261 78.5h317v146c0 84 -24.667 146.833 -74 188.5s-116.666 62.5 -201.999 62.5c-82.667 0 -146 -17 -190 -51s-70 -73.333 -78 -118h-79c5.33301 68.667 38.666 126.334 99.999 173.001s145.333 70 252 70
c108 0 193.667 -26.5 257 -79.5s95 -130.833 95 -233.5v-739h-79v169h-5c-7.33301 -18.667 -19 -37.834 -35 -57.501s-37 -39.667 -63 -60s-59 -37 -99 -50s-83.667 -19.5 -131 -19.5c-100.667 0 -182.167 28 -244.5 84s-93.5 131 -93.5 225zM211 293
c0 -72.667 24.499 -130.5 73.499 -173.5s112.167 -64.5 189.5 -64.5c89.333 0 165 27.667 227 83s93 126 93 212v159h-316c-89.333 0 -156.166 -19.5 -200.499 -58.5s-66.5 -91.5 -66.5 -157.5zM224.999 1223c0 66 14.001 117.167 42.001 153.5s67 54.5 117 54.5
c32.667 0 60.167 -7.16699 82.5 -21.5s46.833 -38.5 73.5 -72.5c19.333 -26 36.5 -44.333 51.5 -55s34.167 -16 57.5 -16c29.333 0 54 14.5 74 43.5s30.333 65.833 31 110.5h64c0 -60.667 -16.167 -111.5 -48.5 -152.5s-71.833 -61.5 -118.5 -61.5
c-36 0 -65.333 6.5 -88 19.5s-45.334 33.833 -68.001 62.5c-19.333 26.667 -37.333 46.667 -54 60s-36 20 -58 20c-30 0 -53.167 -12.5 -69.5 -37.5s-24.833 -60.833 -25.5 -107.5h-63z" />
    <glyph glyph-name="adieresis" unicode="&#xe4;" horiz-adv-x="1059" 
d="M125 291c0 88.667 30.333 159.167 91 211.5s147.667 78.5 261 78.5h317v146c0 84 -24.667 146.833 -74 188.5s-116.666 62.5 -201.999 62.5c-82.667 0 -146 -17 -190 -51s-70 -73.333 -78 -118h-79c5.33301 68.667 38.666 126.334 99.999 173.001s145.333 70 252 70
c108 0 193.667 -26.5 257 -79.5s95 -130.833 95 -233.5v-739h-79v169h-5c-7.33301 -18.667 -19 -37.834 -35 -57.501s-37 -39.667 -63 -60s-59 -37 -99 -50s-83.667 -19.5 -131 -19.5c-100.667 0 -182.167 28 -244.5 84s-93.5 131 -93.5 225zM211 293
c0 -72.667 24.499 -130.5 73.499 -173.5s112.167 -64.5 189.5 -64.5c89.333 0 165 27.667 227 83s93 126 93 212v159h-316c-89.333 0 -156.166 -19.5 -200.499 -58.5s-66.5 -91.5 -66.5 -157.5zM316.999 1291c0 16.667 6.33301 31.5 19 44.5s27.667 19.5 45 19.5
s32.333 -6.5 45 -19.5s19 -27.833 19 -44.5c0 -17.333 -6.33301 -32.666 -19 -45.999s-27.667 -20 -45 -20s-32.333 6.66699 -45 20s-19 28.666 -19 45.999zM612.999 1291c0 16.667 6 31.5 18 44.5s26.667 19.5 44 19.5c18.667 0 34.334 -6.5 47.001 -19.5
s19 -27.833 19 -44.5c0 -17.333 -6.33301 -32.666 -19 -45.999s-28.334 -20 -47.001 -20c-17.333 0 -32 6.66699 -44 20s-18 28.666 -18 45.999z" />
    <glyph glyph-name="aring" unicode="&#xe5;" horiz-adv-x="1059" 
d="M125 291c0 88.667 30.333 159.167 91 211.5s147.667 78.5 261 78.5h317v146c0 84 -24.667 146.833 -74 188.5s-116.666 62.5 -201.999 62.5c-82.667 0 -146 -17 -190 -51s-70 -73.333 -78 -118h-79c5.33301 68.667 38.666 126.334 99.999 173.001s145.333 70 252 70
c108 0 193.667 -26.5 257 -79.5s95 -130.833 95 -233.5v-739h-79v169h-5c-7.33301 -18.667 -19 -37.834 -35 -57.501s-37 -39.667 -63 -60s-59 -37 -99 -50s-83.667 -19.5 -131 -19.5c-100.667 0 -182.167 28 -244.5 84s-93.5 131 -93.5 225zM211 293
c0 -72.667 24.499 -130.5 73.499 -173.5s112.167 -64.5 189.5 -64.5c89.333 0 165 27.667 227 83s93 126 93 212v159h-316c-89.333 0 -156.166 -19.5 -200.499 -58.5s-66.5 -91.5 -66.5 -157.5zM359.999 1357c0 48 16.666 88.333 49.999 121s74.333 49 123 49
c48 0 88.5 -16.333 121.5 -49s49.5 -73 49.5 -121s-16.667 -88.667 -50 -122s-73.666 -50 -120.999 -50c-48.667 0 -89.667 16.667 -123 50s-50 74 -50 122zM413.998 1356c0 -32 11.667 -59.667 35 -83s50.666 -35 81.999 -35c32.667 0 60.5 11.667 83.5 35s34.5 51 34.5 83
c0 32.667 -11.5 60.5 -34.5 83.5s-50.833 34.5 -83.5 34.5c-31.333 0 -58.666 -11.667 -81.999 -35s-35 -51 -35 -83z" />
    <glyph glyph-name="ae" unicode="&#xe6;" horiz-adv-x="1740" 
d="M126 291c0 92.667 30.832 164.167 92.499 214.5s148.5 75.5 260.5 75.5h316v146c0 82 -26.833 144.333 -80.5 187s-118.834 64 -195.501 64c-83.333 0 -147.166 -17 -191.499 -51s-70.5 -73.333 -78.5 -118h-79c5.33301 68.667 39 126.334 101 173.001s146.333 70 253 70
c76 0 144.5 -18 205.5 -54s101.167 -87 120.5 -153h7c28 67.333 72.333 118.666 133 153.999s130 53 208 53c121.333 0 217.666 -41.5 288.999 -124.5s107 -201.5 107 -355.5v-63h-718v-66c0 -122 29.833 -217 89.5 -285s141.167 -102 244.5 -102
c86 0 154.833 20.333 206.5 61s81.834 86 90.501 136h83c-3.33301 -29.333 -13.5 -59.166 -30.5 -89.499s-40.333 -59.333 -70 -87s-69 -50.334 -118 -68.001s-103.167 -26.5 -162.5 -26.5c-98.667 0 -180.667 23.833 -246 71.5s-107.333 111.167 -126 190.5h-6
c-16 -72.667 -56.5 -134.5 -121.5 -185.5s-146.5 -76.5 -244.5 -76.5c-103.333 0 -185.666 28 -246.999 84s-92 131 -92 225zM206.999 292c0 -71.333 25.333 -128.667 76 -172s114.334 -65 191.001 -65c89.333 0 165.166 27.667 227.499 83s93.5 126 93.5 212v159h-316
c-89.333 0 -157 -19.667 -203 -59s-69 -92 -69 -158zM875.999 576.999h636.999v10c0 123.333 -28.167 219.5 -84.5 288.5s-133.166 103.5 -230.499 103.5s-175.333 -34.667 -234 -104s-88 -164.333 -88 -285v-13z" />
    <glyph glyph-name="ccedilla" unicode="&#xe7;" horiz-adv-x="1062" 
d="M142 436l0.000976562 169.997c0 140 37.5 249.333 112.5 328s173.167 118 294.5 118c60 0 114.667 -9.33301 164 -28s89.333 -43.167 120 -73.5s54.5 -63.666 71.5 -99.999s26.5 -73.5 28.5 -111.5h-79c-6 40.667 -20 78.334 -42 113.001s-55.833 64.5 -101.5 89.5
s-99.167 37.5 -160.5 37.5c-99.333 0 -178.833 -33.833 -238.5 -101.5s-89.5 -162.167 -89.5 -283.5v-151c0 -124 29.667 -219.167 89 -285.5s141 -99.5 245 -99.5c92 0 162.167 21.333 210.5 64s78.5 95 90.5 157h78c-2.66699 -33.333 -10.834 -65.5 -24.501 -96.5
s-33 -60.833 -58 -89.5s-58.5 -52.667 -100.5 -72s-90 -31.666 -144 -36.999l-51 -123c58.667 0 107.667 -12.667 147 -38s59 -64 59 -116c0 -55.333 -22 -97.5 -66 -126.5s-96.667 -43.833 -158 -44.5c-47.333 -0.666992 -89 4.33301 -125 15v63c30 -10 70.333 -15 121 -15
c40.667 0 76 8.66699 106 26s45 43.333 45 78c0 66 -51 99 -153 99h-50v48l57 133c-122.667 2.66699 -219.667 43.167 -291 121.5s-107 188.833 -107 331.5z" />
    <glyph glyph-name="egrave" unicode="&#xe8;" horiz-adv-x="1089" 
d="M143 450l0.000976562 122c0 153.333 36.667 271.666 110 354.999s171 125 293 125s219.667 -41.667 293 -125s110 -201.666 110 -354.999v-63h-725v-59c0 -124 29.667 -220.667 89 -290s141 -104 245 -104c86.667 0 155.5 20.333 206.5 61s79.833 86 86.5 136h83
c-2.66699 -29.333 -12.334 -59.166 -29.001 -89.499s-39.5 -59.333 -68.5 -87s-67.833 -50.334 -116.5 -68.001s-102.667 -26.5 -162 -26.5c-130 0 -231.667 41 -305 123s-110 197 -110 345zM224.001 577h644v8c0 123.333 -29.167 219.833 -87.5 289.5
s-136.5 104.5 -234.5 104.5s-176.167 -34.833 -234.5 -104.5s-87.5 -166.167 -87.5 -289.5v-8zM286.001 1551h90l243 -314h-69z" />
    <glyph glyph-name="eacute" unicode="&#xe9;" horiz-adv-x="1089" 
d="M143 450l0.000976562 122c0 153.333 36.667 271.666 110 354.999s171 125 293 125s219.667 -41.667 293 -125s110 -201.666 110 -354.999v-63h-725v-59c0 -124 29.667 -220.667 89 -290s141 -104 245 -104c86.667 0 155.5 20.333 206.5 61s79.833 86 86.5 136h83
c-2.66699 -29.333 -12.334 -59.166 -29.001 -89.499s-39.5 -59.333 -68.5 -87s-67.833 -50.334 -116.5 -68.001s-102.667 -26.5 -162 -26.5c-130 0 -231.667 41 -305 123s-110 197 -110 345zM224.001 577h644v8c0 123.333 -29.167 219.833 -87.5 289.5
s-136.5 104.5 -234.5 104.5s-176.167 -34.833 -234.5 -104.5s-87.5 -166.167 -87.5 -289.5v-8zM484.001 1237l244 314h88l-263 -314h-69z" />
    <glyph glyph-name="ecircumflex" unicode="&#xea;" horiz-adv-x="1089" 
d="M143 450l0.000976562 122c0 153.333 36.667 271.666 110 354.999s171 125 293 125s219.667 -41.667 293 -125s110 -201.666 110 -354.999v-63h-725v-59c0 -124 29.667 -220.667 89 -290s141 -104 245 -104c86.667 0 155.5 20.333 206.5 61s79.833 86 86.5 136h83
c-2.66699 -29.333 -12.334 -59.166 -29.001 -89.499s-39.5 -59.333 -68.5 -87s-67.833 -50.334 -116.5 -68.001s-102.667 -26.5 -162 -26.5c-130 0 -231.667 41 -305 123s-110 197 -110 345zM224.001 577h644v8c0 123.333 -29.167 219.833 -87.5 289.5
s-136.5 104.5 -234.5 104.5s-176.167 -34.833 -234.5 -104.5s-87.5 -166.167 -87.5 -289.5v-8zM271.001 1234l242 347h66l234 -347h-76l-190 288h-5l-196 -288h-75z" />
    <glyph glyph-name="edieresis" unicode="&#xeb;" horiz-adv-x="1089" 
d="M143 450l0.000976562 122c0 153.333 36.667 271.666 110 354.999s171 125 293 125s219.667 -41.667 293 -125s110 -201.666 110 -354.999v-63h-725v-59c0 -124 29.667 -220.667 89 -290s141 -104 245 -104c86.667 0 155.5 20.333 206.5 61s79.833 86 86.5 136h83
c-2.66699 -29.333 -12.334 -59.166 -29.001 -89.499s-39.5 -59.333 -68.5 -87s-67.833 -50.334 -116.5 -68.001s-102.667 -26.5 -162 -26.5c-130 0 -231.667 41 -305 123s-110 197 -110 345zM224.001 577h644v8c0 123.333 -29.167 219.833 -87.5 289.5
s-136.5 104.5 -234.5 104.5s-176.167 -34.833 -234.5 -104.5s-87.5 -166.167 -87.5 -289.5v-8zM333.001 1291c0 16.667 6.33301 31.5 19 44.5s27.667 19.5 45 19.5s32.333 -6.5 45 -19.5s19 -27.833 19 -44.5c0 -17.333 -6.33301 -32.666 -19 -45.999s-27.667 -20 -45 -20
s-32.333 6.66699 -45 20s-19 28.666 -19 45.999zM629.001 1291c0 16.667 6 31.5 18 44.5s26.667 19.5 44 19.5c18.667 0 34.334 -6.5 47.001 -19.5s19 -27.833 19 -44.5c0 -17.333 -6.33301 -32.666 -19 -45.999s-28.334 -20 -47.001 -20c-17.333 0 -32 6.66699 -44 20
s-18 28.666 -18 45.999z" />
    <glyph glyph-name="igrave" unicode="&#xec;" horiz-adv-x="468" 
d="M-24 1551h90l243 -314h-69zM193 0v1035h81v-1035h-81z" />
    <glyph glyph-name="iacute" unicode="&#xed;" horiz-adv-x="468" 
d="M174 1237l244 314h88l-263 -314h-69zM193 0v1035h81v-1035h-81z" />
    <glyph glyph-name="icircumflex" unicode="&#xee;" horiz-adv-x="468" 
d="M-39 1234l242 347h66l234 -347h-76l-190 288h-5l-196 -288h-75zM193 0v1035h81v-1035h-81z" />
    <glyph glyph-name="idieresis" unicode="&#xef;" horiz-adv-x="468" 
d="M22 1291c0 16.667 6.33301 31.5 19 44.5s27.667 19.5 45 19.5s32.333 -6.5 45 -19.5s19 -27.833 19 -44.5c0 -17.333 -6.33301 -32.666 -19 -45.999s-27.667 -20 -45 -20s-32.333 6.66699 -45 20s-19 28.666 -19 45.999zM193 0v1035h81v-1035h-81zM318 1291
c0 16.667 6 31.5 18 44.5s26.667 19.5 44 19.5c18.667 0 34.334 -6.5 47.001 -19.5s19 -27.833 19 -44.5c0 -17.333 -6.33301 -32.666 -19 -45.999s-28.334 -20 -47.001 -20c-17.333 0 -32 6.66699 -44 20s-18 28.666 -18 45.999z" />
    <glyph glyph-name="eth" unicode="&#xf0;" horiz-adv-x="1129" 
d="M142 434l-0.000976562 111c0 143.333 39.5 255 118.5 335s180.167 120 303.5 120c80 0 149.167 -18 207.5 -54s101.5 -80.667 129.5 -134h5l-7 53c-17.333 161.333 -70 292.666 -158 393.999l-285 -102l-16 57l258 93c-59.333 60.667 -129.666 111 -210.999 151l46 54
c93.333 -45.333 174.333 -104.666 243 -177.999l239 86l16 -55l-215 -77c114 -148.667 171 -345.334 171 -590.001v-264c0 -96 -19.167 -178.667 -57.5 -248s-89 -120.666 -152 -153.999s-134.167 -50 -213.5 -50c-123.333 0 -224.5 39.5 -303.5 118.5
s-118.5 190.167 -118.5 333.5zM221.999 445c0 -124 31.499 -219.832 94.499 -287.499s145.5 -101.5 247.5 -101.5c101.333 0 183.5 33.667 246.5 101s94.5 163.333 94.5 288v154c0 93.333 -32.5 171.166 -97.5 233.499s-146.167 93.5 -243.5 93.5
c-101.333 0 -183.666 -34.333 -246.999 -103s-95 -165 -95 -289v-89z" />
    <glyph glyph-name="ntilde" unicode="&#xf1;" horiz-adv-x="1145" 
d="M189 0v1035h80v-206h5c8 27.333 20.333 53.5 37 78.5s38.167 48.667 64.5 71s59.833 40.166 100.5 53.499s85.667 20 135 20c106 0 191.5 -31.667 256.5 -95s97.5 -152.666 97.5 -267.999v-689h-81v673c0 90.667 -25 164.334 -75 221.001s-119.667 85 -209 85
c-53.333 0 -101.333 -10 -144 -30s-77.5 -47 -104.5 -81s-47.5 -72.5 -61.5 -115.5s-21 -88.167 -21 -135.5v-617h-80zM268 1223c0 66 14.001 117.167 42.001 153.5s67 54.5 117 54.5c32.667 0 60.167 -7.16699 82.5 -21.5s46.833 -38.5 73.5 -72.5
c19.333 -26 36.5 -44.333 51.5 -55s34.167 -16 57.5 -16c29.333 0 54 14.5 74 43.5s30.333 65.833 31 110.5h64c0 -60.667 -16.167 -111.5 -48.5 -152.5s-71.833 -61.5 -118.5 -61.5c-36 0 -65.333 6.5 -88 19.5s-45.334 33.833 -68.001 62.5
c-19.333 26.667 -37.333 46.667 -54 60s-36 20 -58 20c-30 0 -53.167 -12.5 -69.5 -37.5s-24.833 -60.833 -25.5 -107.5h-63z" />
    <glyph glyph-name="ograve" unicode="&#xf2;" horiz-adv-x="1129" 
d="M142 434v162.999c0 143.333 39.5 255 118.5 335s180.167 120 303.5 120c58.667 0 113.5 -10 164.5 -30s95.833 -48.833 134.5 -86.5s69 -85.5 91 -143.5s33 -123 33 -195v-163c0 -96 -19.167 -178.667 -57.5 -248s-89 -120.666 -152 -153.999s-134.167 -50 -213.5 -50
c-123.333 0 -224.5 39.5 -303.5 118.5s-118.5 190.167 -118.5 333.5zM222 444.999c0 -124 31.501 -219.832 94.501 -287.499s145.5 -101.5 247.5 -101.5c101.333 0 183.5 33.667 246.5 101s94.5 163.333 94.5 288v141c0 123.333 -31.833 219.666 -95.5 288.999
s-145.5 104 -245.5 104c-100.667 0 -182.834 -34.5 -246.501 -103.5s-95.5 -165.5 -95.5 -289.5v-141zM306.001 1551h90l243 -314h-69z" />
    <glyph glyph-name="oacute" unicode="&#xf3;" horiz-adv-x="1129" 
d="M142 434v162.999c0 143.333 39.5 255 118.5 335s180.167 120 303.5 120c58.667 0 113.5 -10 164.5 -30s95.833 -48.833 134.5 -86.5s69 -85.5 91 -143.5s33 -123 33 -195v-163c0 -96 -19.167 -178.667 -57.5 -248s-89 -120.666 -152 -153.999s-134.167 -50 -213.5 -50
c-123.333 0 -224.5 39.5 -303.5 118.5s-118.5 190.167 -118.5 333.5zM222 444.999c0 -124 31.501 -219.832 94.501 -287.499s145.5 -101.5 247.5 -101.5c101.333 0 183.5 33.667 246.5 101s94.5 163.333 94.5 288v141c0 123.333 -31.833 219.666 -95.5 288.999
s-145.5 104 -245.5 104c-100.667 0 -182.834 -34.5 -246.501 -103.5s-95.5 -165.5 -95.5 -289.5v-141zM504.001 1237l244 314h88l-263 -314h-69z" />
    <glyph glyph-name="ocircumflex" unicode="&#xf4;" horiz-adv-x="1129" 
d="M142 434v162.999c0 143.333 39.5 255 118.5 335s180.167 120 303.5 120c58.667 0 113.5 -10 164.5 -30s95.833 -48.833 134.5 -86.5s69 -85.5 91 -143.5s33 -123 33 -195v-163c0 -96 -19.167 -178.667 -57.5 -248s-89 -120.666 -152 -153.999s-134.167 -50 -213.5 -50
c-123.333 0 -224.5 39.5 -303.5 118.5s-118.5 190.167 -118.5 333.5zM222 444.999c0 -124 31.501 -219.832 94.501 -287.499s145.5 -101.5 247.5 -101.5c101.333 0 183.5 33.667 246.5 101s94.5 163.333 94.5 288v141c0 123.333 -31.833 219.666 -95.5 288.999
s-145.5 104 -245.5 104c-100.667 0 -182.834 -34.5 -246.501 -103.5s-95.5 -165.5 -95.5 -289.5v-141zM291.001 1234l242 347h66l234 -347h-76l-190 288h-5l-196 -288h-75z" />
    <glyph glyph-name="otilde" unicode="&#xf5;" horiz-adv-x="1129" 
d="M142 434v162.999c0 143.333 39.5 255 118.5 335s180.167 120 303.5 120c58.667 0 113.5 -10 164.5 -30s95.833 -48.833 134.5 -86.5s69 -85.5 91 -143.5s33 -123 33 -195v-163c0 -96 -19.167 -178.667 -57.5 -248s-89 -120.666 -152 -153.999s-134.167 -50 -213.5 -50
c-123.333 0 -224.5 39.5 -303.5 118.5s-118.5 190.167 -118.5 333.5zM222 444.999c0 -124 31.501 -219.832 94.501 -287.499s145.5 -101.5 247.5 -101.5c101.333 0 183.5 33.667 246.5 101s94.5 163.333 94.5 288v141c0 123.333 -31.833 219.666 -95.5 288.999
s-145.5 104 -245.5 104c-100.667 0 -182.834 -34.5 -246.501 -103.5s-95.5 -165.5 -95.5 -289.5v-141zM260.001 1223c0 66 14.001 117.167 42.001 153.5s67 54.5 117 54.5c32.667 0 60.167 -7.16699 82.5 -21.5s46.833 -38.5 73.5 -72.5c19.333 -26 36.5 -44.333 51.5 -55
s34.167 -16 57.5 -16c29.333 0 54 14.5 74 43.5s30.333 65.833 31 110.5h64c0 -60.667 -16.167 -111.5 -48.5 -152.5s-71.833 -61.5 -118.5 -61.5c-36 0 -65.333 6.5 -88 19.5s-45.334 33.833 -68.001 62.5c-19.333 26.667 -37.333 46.667 -54 60s-36 20 -58 20
c-30 0 -53.167 -12.5 -69.5 -37.5s-24.833 -60.833 -25.5 -107.5h-63z" />
    <glyph glyph-name="odieresis" unicode="&#xf6;" horiz-adv-x="1129" 
d="M142 434v162.999c0 143.333 39.5 255 118.5 335s180.167 120 303.5 120c58.667 0 113.5 -10 164.5 -30s95.833 -48.833 134.5 -86.5s69 -85.5 91 -143.5s33 -123 33 -195v-163c0 -96 -19.167 -178.667 -57.5 -248s-89 -120.666 -152 -153.999s-134.167 -50 -213.5 -50
c-123.333 0 -224.5 39.5 -303.5 118.5s-118.5 190.167 -118.5 333.5zM222 444.999c0 -124 31.501 -219.832 94.501 -287.499s145.5 -101.5 247.5 -101.5c101.333 0 183.5 33.667 246.5 101s94.5 163.333 94.5 288v141c0 123.333 -31.833 219.666 -95.5 288.999
s-145.5 104 -245.5 104c-100.667 0 -182.834 -34.5 -246.501 -103.5s-95.5 -165.5 -95.5 -289.5v-141zM352.001 1291c0 16.667 6.33301 31.5 19 44.5s27.667 19.5 45 19.5s32.333 -6.5 45 -19.5s19 -27.833 19 -44.5c0 -17.333 -6.33301 -32.666 -19 -45.999
s-27.667 -20 -45 -20s-32.333 6.66699 -45 20s-19 28.666 -19 45.999zM648.001 1291c0 16.667 6 31.5 18 44.5s26.667 19.5 44 19.5c18.667 0 34.334 -6.5 47.001 -19.5s19 -27.833 19 -44.5c0 -17.333 -6.33301 -32.666 -19 -45.999s-28.334 -20 -47.001 -20
c-17.333 0 -32 6.66699 -44 20s-18 28.666 -18 45.999z" />
    <glyph glyph-name="divide" unicode="&#xf7;" horiz-adv-x="1128" 
d="M117 504v75h894v-75h-894zM481 905c0 22.667 8 42.167 24 58.5s35 24.5 57 24.5c23.333 0 43.166 -8 59.499 -24s24.5 -35.667 24.5 -59c0 -22.667 -8.16699 -41.834 -24.5 -57.501s-36.166 -23.5 -59.499 -23.5c-22 0 -41 7.83301 -57 23.5s-24 34.834 -24 57.501z
M486 179c0 22.667 8 42.167 24 58.5s35 24.5 57 24.5c23.333 0 43.166 -8 59.499 -24s24.5 -35.667 24.5 -59c0 -22.667 -8.16699 -41.834 -24.5 -57.501s-36.166 -23.5 -59.499 -23.5c-22 0 -41 7.83301 -57 23.5s-24 34.834 -24 57.501z" />
    <glyph glyph-name="oslash" unicode="&#xf8;" horiz-adv-x="1129" 
d="M107 19l113.001 133.998c-52 76.667 -78 170.334 -78 281.001v163c0 143.333 39.5 255 118.5 335s180.167 120 303.5 120c127.333 0 229.666 -44.667 306.999 -134l126 145l48 -39l-133 -153c50 -76.667 75 -168 75 -274v-163c0 -96 -19.167 -178.667 -57.5 -248
s-89 -120.666 -152 -153.999s-134.167 -50 -213.5 -50c-125.333 0 -226 41 -302 123l-106 -125zM221.001 436.998c0 -86 17 -159.333 51 -220l551 643c-62 80 -148.333 120 -259 120c-100.667 0 -183 -34.667 -247 -104s-96 -166 -96 -290v-149zM310.001 163.998
c61.333 -72.667 146.001 -109.001 254.001 -109.001c101.333 0 183.666 33.833 246.999 101.5s95 163.834 95 288.501v149c0 81.333 -15.333 152 -46 212z" />
    <glyph glyph-name="ugrave" unicode="&#xf9;" horiz-adv-x="1143" 
d="M179 327l-0.000976562 708.001h81v-693c0 -89.333 25.167 -159.5 75.5 -210.5s118.5 -76.5 204.5 -76.5c52 0 99.5 10.167 142.5 30.5s78.167 47.166 105.5 80.499s48.5 71 63.5 113s22.5 85.333 22.5 130v626h81v-1035h-81v202h-5c-20 -58 -58.667 -109.167 -116 -153.5
s-131.666 -66.5 -222.999 -66.5c-104 0 -188.5 29 -253.5 87s-97.5 144 -97.5 258zM312.999 1551h90l243 -314h-69z" />
    <glyph glyph-name="uacute" unicode="&#xfa;" horiz-adv-x="1143" 
d="M179 327l-0.000976562 708.001h81v-693c0 -89.333 25.167 -159.5 75.5 -210.5s118.5 -76.5 204.5 -76.5c52 0 99.5 10.167 142.5 30.5s78.167 47.166 105.5 80.499s48.5 71 63.5 113s22.5 85.333 22.5 130v626h81v-1035h-81v202h-5c-20 -58 -58.667 -109.167 -116 -153.5
s-131.666 -66.5 -222.999 -66.5c-104 0 -188.5 29 -253.5 87s-97.5 144 -97.5 258zM510.999 1237l244 314h88l-263 -314h-69z" />
    <glyph glyph-name="ucircumflex" unicode="&#xfb;" horiz-adv-x="1143" 
d="M179 327l-0.000976562 708.001h81v-693c0 -89.333 25.167 -159.5 75.5 -210.5s118.5 -76.5 204.5 -76.5c52 0 99.5 10.167 142.5 30.5s78.167 47.166 105.5 80.499s48.5 71 63.5 113s22.5 85.333 22.5 130v626h81v-1035h-81v202h-5c-20 -58 -58.667 -109.167 -116 -153.5
s-131.666 -66.5 -222.999 -66.5c-104 0 -188.5 29 -253.5 87s-97.5 144 -97.5 258zM297.999 1234l242 347h66l234 -347h-76l-190 288h-5l-196 -288h-75z" />
    <glyph glyph-name="udieresis" unicode="&#xfc;" horiz-adv-x="1143" 
d="M179 327l-0.000976562 708.001h81v-693c0 -89.333 25.167 -159.5 75.5 -210.5s118.5 -76.5 204.5 -76.5c52 0 99.5 10.167 142.5 30.5s78.167 47.166 105.5 80.499s48.5 71 63.5 113s22.5 85.333 22.5 130v626h81v-1035h-81v202h-5c-20 -58 -58.667 -109.167 -116 -153.5
s-131.666 -66.5 -222.999 -66.5c-104 0 -188.5 29 -253.5 87s-97.5 144 -97.5 258zM359.999 1291c0 16.667 6.33301 31.5 19 44.5s27.667 19.5 45 19.5s32.333 -6.5 45 -19.5s19 -27.833 19 -44.5c0 -17.333 -6.33301 -32.666 -19 -45.999s-27.667 -20 -45 -20
s-32.333 6.66699 -45 20s-19 28.666 -19 45.999zM655.999 1291c0 16.667 6 31.5 18 44.5s26.667 19.5 44 19.5c18.667 0 34.334 -6.5 47.001 -19.5s19 -27.833 19 -44.5c0 -17.333 -6.33301 -32.666 -19 -45.999s-28.334 -20 -47.001 -20c-17.333 0 -32 6.66699 -44 20
s-18 28.666 -18 45.999z" />
    <glyph glyph-name="yacute" unicode="&#xfd;" horiz-adv-x="964" 
d="M57 1035h90l337 -951h5l332 951h86l-373 -1036l-44 -116c-28.667 -76.667 -63 -133.167 -103 -169.5s-96.333 -54.5 -169 -54.5c-32 0 -63.667 3 -95 9v73c26.667 -6 56 -9 88 -9c53.333 0 95.333 13.5 126 40.5s55 66.5 73 118.5l35 96zM422 1237l244 314h88l-263 -314
h-69z" />
    <glyph glyph-name="thorn" unicode="&#xfe;" horiz-adv-x="1146" 
d="M188 1435l79.001 0.00390625v-604h5c8 24.667 20.333 49 37 73s38.167 47.5 64.5 70.5s59.666 41.667 99.999 56s84.166 21.5 131.499 21.5c54.667 0 105.834 -9.33301 153.501 -28s90.167 -45.834 127.5 -81.501s66.666 -81.834 87.999 -138.501
s32 -120.334 32 -191.001v-192c0 -133.333 -37.5 -239.833 -112.5 -319.5s-171.5 -119.5 -289.5 -119.5c-42 0 -81 5.66699 -117 17s-65.667 25 -89 41s-44.166 34.667 -62.499 56s-31.833 40.166 -40.5 56.499s-15.667 31.833 -21 46.5h-5v-534h-80zM269.001 423.004
c0 -64.667 12.499 -124.501 37.499 -179.501s63 -100 114 -135s110.167 -52.5 177.5 -52.5c94.667 0 172.667 33.5 234 100.5s92 160.5 92 280.5v158c0 124.667 -31.167 219.834 -93.5 285.501s-140.166 98.5 -233.499 98.5c-98.667 0 -178 -35.5 -238 -106.5
s-90 -160.5 -90 -268.5v-181z" />
    <glyph glyph-name="ydieresis" unicode="&#xff;" horiz-adv-x="964" 
d="M57 1035h90l337 -951h5l332 951h86l-373 -1036l-44 -116c-28.667 -76.667 -63 -133.167 -103 -169.5s-96.333 -54.5 -169 -54.5c-32 0 -63.667 3 -95 9v73c26.667 -6 56 -9 88 -9c53.333 0 95.333 13.5 126 40.5s55 66.5 73 118.5l35 96zM270 1291
c0 16.667 6.33301 31.5 19 44.5s27.667 19.5 45 19.5s32.333 -6.5 45 -19.5s19 -27.833 19 -44.5c0 -17.333 -6.33301 -32.666 -19 -45.999s-27.667 -20 -45 -20s-32.333 6.66699 -45 20s-19 28.666 -19 45.999zM566 1291c0 16.667 6 31.5 18 44.5s26.667 19.5 44 19.5
c18.667 0 34.334 -6.5 47.001 -19.5s19 -27.833 19 -44.5c0 -17.333 -6.33301 -32.666 -19 -45.999s-28.334 -20 -47.001 -20c-17.333 0 -32 6.66699 -44 20s-18 28.666 -18 45.999z" />
    <glyph glyph-name="OE" unicode="&#x152;" horiz-adv-x="2018" 
d="M157 556v244.001c0 181.333 45 325.166 135 431.499s216 159.5 378 159.5c99.333 0 186.5 -22.167 261.5 -66.5s129.5 -103.833 163.5 -178.5h6v214h773v-76h-691v-550h657v-75h-657v-584h691v-75h-773v222h-6c-40 -80.667 -96 -143 -168 -187s-158 -66 -258 -66
c-162.667 0 -288.667 52.5 -378 157.5s-134 248.167 -134 429.5zM238 550.001c0 -155.333 38.167 -278.498 114.5 -369.498s181.833 -136.5 316.5 -136.5c130 0 234.333 43.5 313 130.5s118 199.167 118 336.5v343c0 133.333 -38.833 243.666 -116.5 330.999
s-182.5 131 -314.5 131c-133.333 0 -238.5 -46.333 -315.5 -139s-115.5 -216.334 -115.5 -371.001v-256z" />
    <glyph glyph-name="oe" unicode="&#x153;" horiz-adv-x="1853" 
d="M142 434l0.00195312 163c0 143.333 39.5 255 118.5 335s180.167 120 303.5 120c86.667 0 163.667 -21.333 231 -64s117 -104 149 -184h6c29.333 80.667 75.166 142.167 137.499 184.5s136.166 63.5 221.499 63.5c121.333 0 218 -41.667 290 -125
s108 -201.666 108 -354.999v-63h-720v-59c0 -124 29.667 -220.667 89 -290s141 -104 245 -104c86 0 155.167 20.333 207.5 61s82.833 86 91.5 136h83c-3.33301 -29.333 -13.5 -59.166 -30.5 -89.499s-40.5 -59.333 -70.5 -87s-69.667 -50.334 -119 -68.001
s-103.666 -26.5 -162.999 -26.5c-90 0 -167 21.167 -231 63.5s-110.333 102.166 -139 179.499h-6c-31.333 -78 -80.833 -138 -148.5 -180s-144.834 -63 -231.501 -63c-123.333 0 -224.5 39.5 -303.5 118.5s-118.5 190.167 -118.5 333.5zM222.002 445
c0 -124 31.501 -219.832 94.501 -287.499s145.5 -101.5 247.5 -101.5c101.333 0 183.5 33.667 246.5 101s94.5 163.333 94.5 288v141c0 123.333 -31.833 219.666 -95.5 288.999s-145.5 104 -245.5 104c-100.667 0 -182.834 -34.5 -246.501 -103.5s-95.5 -165.5 -95.5 -289.5
v-141zM987.003 577.001h639v8c0 123.333 -28.5 219.833 -85.5 289.5s-134.167 104.5 -231.5 104.5c-98 0 -176.167 -34.833 -234.5 -104.5s-87.5 -166.167 -87.5 -289.5v-8z" />
    <glyph glyph-name="Ydieresis" unicode="&#x178;" horiz-adv-x="1103" 
d="M41 1360h96l412 -668h6l413 668h94l-469 -751v-609h-81v607zM335 1570c0 16.667 6.16699 31.332 18.5 43.999s27.5 19 45.5 19c18.667 0 34 -6.16699 46 -18.5s18 -27.166 18 -44.499c0 -16.667 -6.16699 -31.5 -18.5 -44.5s-27.5 -19.5 -45.5 -19.5
c-17.333 0 -32.333 6.5 -45 19.5s-19 27.833 -19 44.5zM640 1570c0 16.667 6.16699 31.334 18.5 44.001s27.5 19 45.5 19c18.667 0 34.167 -6.33301 46.5 -19s18.5 -27.334 18.5 -44.001s-6.16699 -31.5 -18.5 -44.5s-27.833 -19.5 -46.5 -19.5
c-17.333 0 -32.333 6.5 -45 19.5s-19 27.833 -19 44.5z" />
    <glyph glyph-name="circumflex" unicode="&#x2c6;" horiz-adv-x="849" 
d="M157 1221l242 347h66l234 -347h-76l-190 288h-5l-196 -288h-75z" />
    <glyph glyph-name="tilde" unicode="&#x2dc;" horiz-adv-x="849" 
d="M127 1262c0 66 14.001 117.167 42.001 153.5s67 54.5 117 54.5c32.667 0 60.167 -7.16699 82.5 -21.5s46.833 -38.5 73.5 -72.5c19.333 -26 36.5 -44.333 51.5 -55s34.167 -16 57.5 -16c29.333 0 54 14.5 74 43.5s30.333 65.833 31 110.5h64
c0 -60.667 -16.167 -111.5 -48.5 -152.5s-71.833 -61.5 -118.5 -61.5c-36 0 -65.333 6.5 -88 19.5s-45.334 33.833 -68.001 62.5c-19.333 26.667 -37.333 46.667 -54 60s-36 20 -58 20c-30 0 -53.167 -12.5 -69.5 -37.5s-24.833 -60.833 -25.5 -107.5h-63z" />
    <glyph glyph-name="uni2000" unicode="&#x2000;" horiz-adv-x="876" 
 />
    <glyph glyph-name="uni2001" unicode="&#x2001;" horiz-adv-x="1752" 
 />
    <glyph glyph-name="uni2002" unicode="&#x2002;" horiz-adv-x="876" 
 />
    <glyph glyph-name="uni2003" unicode="&#x2003;" horiz-adv-x="1752" 
 />
    <glyph glyph-name="uni2004" unicode="&#x2004;" horiz-adv-x="584" 
 />
    <glyph glyph-name="uni2005" unicode="&#x2005;" horiz-adv-x="438" 
 />
    <glyph glyph-name="uni2006" unicode="&#x2006;" horiz-adv-x="292" 
 />
    <glyph glyph-name="uni2007" unicode="&#x2007;" horiz-adv-x="292" 
 />
    <glyph glyph-name="uni2008" unicode="&#x2008;" horiz-adv-x="219" 
 />
    <glyph glyph-name="uni2009" unicode="&#x2009;" horiz-adv-x="350" 
 />
    <glyph glyph-name="uni200A" unicode="&#x200a;" horiz-adv-x="97" 
 />
    <glyph glyph-name="uni2010" unicode="&#x2010;" horiz-adv-x="806" 
d="M88 525v73h630v-73h-630z" />
    <glyph glyph-name="uni2011" unicode="&#x2011;" horiz-adv-x="806" 
d="M88 525v73h630v-73h-630z" />
    <glyph glyph-name="figuredash" unicode="&#x2012;" horiz-adv-x="806" 
d="M88 525v73h630v-73h-630z" />
    <glyph glyph-name="endash" unicode="&#x2013;" horiz-adv-x="1145" 
d="M0 526v74h1145v-74h-1145z" />
    <glyph glyph-name="emdash" unicode="&#x2014;" horiz-adv-x="2048" 
d="M0 525v73h2048v-73h-2048z" />
    <glyph glyph-name="quoteleft" unicode="&#x2018;" horiz-adv-x="451" 
d="M145 930l91 430h70l-66 -430h-95z" />
    <glyph glyph-name="quoteright" unicode="&#x2019;" horiz-adv-x="443" 
d="M145 930l58 430h96l-85 -430h-69z" />
    <glyph glyph-name="quotesinglbase" unicode="&#x201a;" horiz-adv-x="447" 
d="M145 -328l62 412h95l-91 -412h-66z" />
    <glyph glyph-name="quotedblleft" unicode="&#x201c;" horiz-adv-x="715" 
d="M145 927l79 433h69l-55 -433h-93zM426 927l76 433h68l-50 -433h-94z" />
    <glyph glyph-name="quotedblright" unicode="&#x201d;" horiz-adv-x="722" 
d="M145 928l51 432h93l-76 -432h-68zM430 928l54 432h93l-77 -432h-70z" />
    <glyph glyph-name="quotedblbase" unicode="&#x201e;" horiz-adv-x="715" 
d="M145 -329l50 433h94l-76 -433h-68zM422 -329l55 433h93l-79 -433h-69z" />
    <glyph glyph-name="bullet" unicode="&#x2022;" horiz-adv-x="983" 
d="M290 592c0 56.667 19.833 104.834 59.5 144.501s87.834 59.5 144.501 59.5c56 0 104 -19.833 144 -59.5s60 -87.834 60 -144.501c0 -56 -20 -104 -60 -144s-88 -60 -144 -60c-56.667 0 -104.834 20 -144.501 60s-59.5 88 -59.5 144z" />
    <glyph glyph-name="ellipsis" unicode="&#x2026;" horiz-adv-x="1410" 
d="M160 68c0 24 8.16699 44.167 24.5 60.5s35.833 24.5 58.5 24.5c24 0 44.167 -8.16699 60.5 -24.5s24.5 -36.5 24.5 -60.5c0 -23.333 -8.16699 -43 -24.5 -59s-36.5 -24 -60.5 -24c-22.667 0 -42.167 8.16699 -58.5 24.5s-24.5 35.833 -24.5 58.5zM620 68
c0 24 8 44.167 24 60.5s35.667 24.5 59 24.5s43.333 -8.16699 60 -24.5s25 -36.5 25 -60.5c0 -22.667 -8.33301 -42.167 -25 -58.5s-36.667 -24.5 -60 -24.5s-43 8.16699 -59 24.5s-24 35.833 -24 58.5zM1079 68c0 24 8 44.167 24 60.5s35.667 24.5 59 24.5
s43.333 -8.16699 60 -24.5s25 -36.5 25 -60.5c0 -22.667 -8.33301 -42.167 -25 -58.5s-36.667 -24.5 -60 -24.5c-22.667 0 -42.167 8.16699 -58.5 24.5s-24.5 35.833 -24.5 58.5z" />
    <glyph glyph-name="uni202F" unicode="&#x202f;" horiz-adv-x="350" 
 />
    <glyph glyph-name="guilsinglleft" unicode="&#x2039;" horiz-adv-x="801" 
d="M146 557v8l367 404h99l-361 -403v-6l361 -405h-108z" />
    <glyph glyph-name="guilsinglright" unicode="&#x203a;" horiz-adv-x="800" 
d="M176 155l360 405v6l-360 403h99l367 -404v-8l-358 -402h-108z" />
    <glyph glyph-name="uni205F" unicode="&#x205f;" horiz-adv-x="438" 
 />
    <glyph glyph-name="Euro" unicode="&#x20ac;" 
d="M52 489l-0.00195312 70h143v230h-143v70h145c2 174 41 306.167 117 396.5s181 135.5 315 135.5c57.333 0 109.333 -8.83301 156 -26.5s85.334 -41.167 116.001 -70.5s56.5 -63.833 77.5 -103.5s36 -80.667 45 -123s13.5 -85.833 13.5 -130.5h-82
c0 70 -11.167 132.833 -33.5 188.5s-58.666 101.334 -108.999 137.001s-111.5 53.5 -183.5 53.5c-112.667 0 -198.834 -39.833 -258.501 -119.5s-90.167 -192.167 -91.5 -337.5h427v-70h-429v-230h429v-70h-427c1.33301 -140 34 -248.667 98 -326s148.667 -116 254 -116
c54 0 102.167 10.333 144.5 31s75.833 48.167 100.5 82.5s43.334 72.166 56.001 113.499s19 84.333 19 129h82c0 -39.333 -4.33301 -78.5 -13 -117.5s-23.167 -77.667 -43.5 -116s-45.5 -72 -75.5 -101s-68.333 -52.5 -115 -70.5s-98.667 -27 -156 -27
c-129.333 0 -233.333 42.833 -312 128.5s-119 215.5 -121 389.5h-145z" />
    <glyph glyph-name="trademark" unicode="&#x2122;" horiz-adv-x="1800" 
d="M139 1301v62h597v-62h-264v-628h-70v628h-263zM888 673v690h66l283 -547h2l278 547h66v-690h-64v546h-3l-254 -495h-49l-258 495h-2v-546h-65z" />
    <glyph glyph-name="uni25FC" unicode="&#x25fc;" horiz-adv-x="1035" 
d="M0 0v1035h1035v-1035h-1035z" />
    <glyph glyph-name="uniFB01" unicode="&#xfb01;" horiz-adv-x="1171" 
d="M66 964l0.000976562 71h182v130c0 94 21.667 161.667 65 203s112.666 62 207.999 62c44 0 81.667 -3.33301 113 -10v-69c-23.333 4.66699 -60.333 7 -111 7c-68.667 0 -118.167 -13.833 -148.5 -41.5s-45.5 -76.5 -45.5 -146.5v-135h290v-71h-290v-964h-81v964h-182z
M845.001 1340c0 21.333 7.16699 39.333 21.5 54s31.833 22 52.5 22c21.333 0 39.333 -7.33301 54 -22s22 -32.667 22 -54c0 -20.667 -7.33301 -38 -22 -52s-32.667 -21 -54 -21c-20.667 0 -38.167 7 -52.5 21s-21.5 31.333 -21.5 52zM879.001 0v1035h81v-1035h-81z" />
    <glyph glyph-name="uniFB02" unicode="&#xfb02;" horiz-adv-x="1195" 
d="M66 964l0.000976562 71h182v130c0 94 21.667 161.667 65 203s112.666 62 207.999 62c44 0 81.667 -3.33301 113 -10v-69c-23.333 4.66699 -60.333 7 -111 7c-68.667 0 -118.167 -13.833 -148.5 -41.5s-45.5 -76.5 -45.5 -146.5v-135h290v-71h-290v-964h-81v964h-182z
M909.001 0v1435h81v-1435h-81z" />
    <glyph glyph-name="glyph1" horiz-adv-x="0" 
 />
    </font>
</defs>
</svg>
