<?xml version="1.0" encoding="UTF-8" standalone="no"?>
<svg width="160px" height="58px" viewBox="0 0 160 58" version="1.1" xmlns="http://www.w3.org/2000/svg" xmlns:xlink="http://www.w3.org/1999/xlink" xmlns:sketch="http://www.bohemiancoding.com/sketch/ns">
    <!-- Generator: Sketch 3.3.2 (12043) - http://www.bohemiancoding.com/sketch -->
    <title>logo-rualecrimbranco</title>
    <desc>Created with Sketch.</desc>
    <defs></defs>
    <g id="App-(Flow)" stroke="none" stroke-width="1" fill="none" fill-rule="evenodd" sketch:type="MSPage">
        <g id="Timeline" sketch:type="MSArtboardGroup" transform="translate(-240.000000, -53.000000)">
            <g id="logo-rualecrimbranco" sketch:type="MSLayerGroup" transform="translate(240.000000, 53.000000)">
                <g id="Group" sketch:type="MSShapeGroup">
                    <path d="M68.9141194,23.3353661 C68.9141194,25.4080683 67.2489083,27.0965054 65.1877729,27.0965054 C63.1266376,27.0965054 61.4614265,25.4197127 61.4614265,23.3353661 L61.4614265,23.0442562 C59.7379913,25.2683355 57.5371179,27.2944601 53.7525473,27.2944601 C48.1048035,27.2944601 44.8209607,23.5333208 44.8209607,17.454947 L44.8209607,3.76113934 C44.8209607,1.68843717 46.4861718,0 48.5473071,0 C50.6084425,0 52.2736536,1.67679277 52.2736536,3.76113934 L52.2736536,15.0794906 C52.2736536,18.6426752 53.9388646,20.4708451 56.7918486,20.4708451 C59.6448326,20.4708451 61.4614265,18.6426752 61.4614265,15.0794906 L61.4614265,3.76113934 C61.4614265,1.68843717 63.1266376,0 65.1877729,0 C67.2489083,0 68.9141194,1.67679277 68.9141194,3.76113934 L68.9141194,23.3353661 L68.9141194,23.3353661 Z" id="Shape" fill="#FFFFFF"></path>
                    <path d="M70.8238719,19.1783173 L70.8238719,19.0735178 C70.8238719,13.2862538 75.1906841,10.6196876 81.4323144,10.6196876 C84.0873362,10.6196876 85.9970888,11.0621745 87.860262,11.7026162 L87.860262,11.2601292 C87.860262,8.15107598 85.9505095,6.41606123 82.2125182,6.41606123 C80.1513828,6.41606123 78.4861718,6.70717109 77.0538574,7.16130247 C76.6113537,7.31267959 76.3202329,7.35925717 75.9708879,7.35925717 C74.2474527,7.35925717 72.8733624,6.02015183 72.8733624,4.29678148 C72.8733624,2.95767614 73.7117904,1.8281699 74.8879185,1.38568292 C77.2518195,0.489064559 79.8136827,0 83.2954876,0 C87.371179,0 90.3173217,1.08292867 92.1804949,2.96932053 C94.1484716,4.94886756 95.0334789,7.85996612 95.0334789,11.4231508 L95.0334789,23.4867432 C95.0334789,25.5128678 93.4148472,27.0965054 91.4002911,27.0965054 C89.2343523,27.0965054 87.8136827,25.5594454 87.8136827,23.9874522 L87.8136827,23.9408746 C85.9970888,25.9669992 83.4934498,27.3061045 79.860262,27.3061045 C74.8995633,27.2944601 70.8238719,24.4182947 70.8238719,19.1783173 L70.8238719,19.1783173 Z M87.9650655,17.454947 L87.9650655,16.1158416 C86.6841339,15.5219775 85.0189229,15.1260681 83.202329,15.1260681 C80.0116448,15.1260681 78.0436681,16.4069515 78.0436681,18.7824079 L78.0436681,18.8755631 C78.0436681,20.9016877 79.7088792,22.0894159 82.1193595,22.0894159 C85.6011645,22.1010603 87.9650655,20.1680908 87.9650655,17.454947 L87.9650655,17.454947 Z" id="Shape" fill="#FFFFFF"></path>
                    <path d="M0,49.4304536 L0,49.3372985 C0,43.5966121 4.36681223,40.9416902 10.5967977,40.9416902 C13.2518195,40.9416902 15.1615721,41.3841772 17.0247453,42.0246189 L17.0247453,41.5821319 C17.0247453,38.484723 15.1149927,36.7729971 11.3770015,36.7729971 C9.31586608,36.7729971 7.65065502,37.0641069 6.22998544,37.5065939 C5.7874818,37.657971 5.49636099,37.7045486 5.14701601,37.7045486 C3.43522562,37.7045486 2.06113537,36.3770876 2.06113537,34.6653617 C2.06113537,33.3379007 2.89956332,32.2083945 4.07569141,31.7659075 C6.4279476,30.8809336 8.97816594,30.391869 12.4599709,30.391869 C16.5356623,30.391869 19.4818049,31.4747977 21.3449782,33.3379007 C23.3129549,35.3058034 24.1863173,38.1936132 24.1863173,41.733509 L24.1863173,53.7039463 C24.1863173,55.7184265 22.5676856,57.2904197 20.5531295,57.2904197 C18.3988355,57.2904197 16.9665211,55.7650041 16.9665211,54.1930109 L16.9665211,54.1464333 C15.1499272,56.1609135 12.6462882,57.4883744 9.01310044,57.4883744 C4.07569141,57.47673 0,54.6354978 0,49.4304536 L0,49.4304536 Z M17.1295488,47.7070833 L17.1295488,46.3796223 C15.8486172,45.7857582 14.1834061,45.4014932 12.3668122,45.4014932 C9.17612809,45.4014932 7.21979622,46.6823766 7.21979622,49.0345442 L7.21979622,49.1276994 C7.21979622,51.1421796 8.88500728,52.3182634 11.2954876,52.3182634 C14.7656477,52.3299078 17.1295488,50.4085827 17.1295488,47.7070833 L17.1295488,47.7070833 Z" id="Shape" fill="#FFFFFF"></path>
                    <path d="M40.3144105,0 C38.1018923,0 36.1921397,2.37545643 35.3770015,4.94886756 L35.3770015,3.76113934 C35.3770015,1.68843717 33.5836972,0 31.5225619,0 C29.4614265,0 27.6914119,1.67679277 27.6914119,3.76113934 L27.7030568,25.2101136 L27.7030568,53.5525692 C27.7030568,55.613627 29.4847162,57.2787753 31.5458515,57.2787753 C33.6069869,57.2787753 35.3886463,55.613627 35.3886463,53.5525692 L35.3886463,24.6046051 C35.3886463,24.5813163 35.3886463,24.6278938 35.3886463,24.6046051 L35.3886463,24.4182947 L35.1441048,16.3254407 C35.1441048,10.9806638 37.2518195,8.06956522 41.0363901,7.18459125 C42.5618632,6.83525943 43.8893741,5.64753121 43.8893741,3.67962858 C43.8893741,1.53706004 42.6200873,0 40.3144105,0 L40.3144105,0 Z" id="Shape" fill="#FFFFFF"></path>
                    <path d="M51.5283843,57.5698852 C43.6331878,57.5698852 37.7874818,52.0271535 37.7874818,43.9808771 L37.7874818,43.8877219 C37.7874818,36.3770876 43.13246,30.1939143 50.7947598,30.1939143 C59.5749636,30.1939143 63.4526929,37.4134387 63.4526929,42.8513709 C63.4526929,45.0055838 61.9272198,46.4378443 59.9708879,46.4378443 L45.1935953,46.4378443 C45.9272198,49.826363 48.279476,51.5846665 51.6215429,51.5846665 C53.6826783,51.5846665 55.3944687,50.9442249 56.9199418,49.8147186 C57.4556041,49.4188092 57.944687,49.2208545 58.7365357,49.2208545 C60.4017467,49.2208545 61.636099,50.5017379 61.636099,52.1668863 C61.636099,53.1450154 61.1935953,53.8786122 60.657933,54.3793212 C58.3522562,56.3472238 55.3595342,57.5698852 51.5283843,57.5698852 L51.5283843,57.5698852 Z M56.3377001,41.7684422 C55.8951965,38.426501 53.9272198,36.1791329 50.7947598,36.1791329 C47.7088792,36.1791329 45.6943231,38.3915679 45.1004367,41.7684422 L56.3377001,41.7684422 L56.3377001,41.7684422 Z" id="Shape" fill="#FFFFFF"></path>
                    <path d="M107.202329,12.3430579 C107.761281,14.4506933 108.262009,16.569973 108.86754,18.665964 C109.56623,21.0763536 110.614265,23.3353661 111.906841,25.489579 C111.941776,25.547801 111.988355,25.5827342 112.046579,25.6642449 C112.244541,25.1169584 112.128093,24.6511826 111.895197,24.1737625 C111.394469,23.125767 110.858806,22.0894159 110.451237,21.0064872 C109.438137,18.3282766 108.995633,15.5569107 109.496361,12.7040341 C109.54294,12.4012799 109.624454,12.11017 109.694323,11.8190602 C109.705968,11.7724826 109.717613,11.725905 109.729258,11.667683 C109.740902,11.6094611 109.915575,11.0388858 109.950509,10.957375 C110.26492,10.2820001 110.57933,9.60662526 110.928675,8.94289479 C110.998544,8.80316206 111.196507,8.7100069 111.347889,8.64014054 C111.743814,8.47711902 112.128093,8.68671811 112.186317,9.1175607 C112.221252,9.33880419 112.174672,9.57169208 112.139738,9.80457996 C112.104803,9.96760148 112.02329,10.1189786 111.953421,10.2587113 C111.883552,10.4100885 111.802038,10.5498212 111.720524,10.6895539 C111.557496,10.6429763 111.231441,10.3751553 111.720524,10.6895539 C110.229985,14.7185143 110.416303,19.5392936 112.069869,23.3586549 C111.895197,22.7997239 111.708879,22.2524374 111.557496,21.6935065 C111.068413,19.8420478 110.9869,17.9789447 111.557496,16.127486 C111.673945,15.7548654 111.825328,15.4055336 111.988355,15.0562018 C112.093159,14.8349583 112.279476,14.648648 112.535662,14.7418031 C112.791849,14.8349583 112.791849,15.1027793 112.733624,15.3123784 C112.640466,15.6267771 112.500728,15.9295313 112.384279,16.24393 C111.627365,18.1768994 111.650655,20.1331577 112.139738,22.1127047 C112.209607,22.4154589 112.302766,22.7182132 112.395924,23.0326118 C112.430859,23.0326118 112.454148,23.0326118 112.489083,23.0209674 C112.524017,22.4038145 112.535662,21.7866616 112.582242,21.1695088 C112.803493,18.0488111 113.37409,14.9863354 114.224163,11.9704373 C114.282387,11.7491938 114.864629,10.6546207 115.10917,10.5498212 C115.237263,10.4915992 114.829694,11.1669741 114.852984,10.9923082 C114.899563,10.7128427 115.074236,10.4799548 115.342067,10.4915992 C115.656477,10.5032436 115.737991,10.7361315 115.714702,10.9690194 C115.668122,11.4697283 115.633188,11.9937261 115.47016,12.4595019 C114.41048,15.4754 113.665211,18.5728088 113.152838,21.7167953 C113.141194,21.8099504 113.129549,21.91475 113.199418,22.0311939 C113.234352,21.9380388 113.280932,21.8332392 113.315866,21.7400841 C113.770015,20.3078236 114.352256,18.9454294 115.167394,17.6761905 C116.390102,15.7665098 117.997089,14.2876717 120.116448,13.4026978 C120.395924,13.2862538 120.733624,13.2746094 121.048035,13.2862538 C121.187773,13.2978982 121.39738,13.4725642 121.443959,13.6122969 C121.478894,13.7287408 121.37409,13.9616287 121.257642,14.0664283 C121.094614,14.2178054 120.885007,14.3458937 120.663755,14.4274045 C117.92722,15.417178 116.064047,17.338503 114.783115,19.8886254 C113.921397,21.6003513 113.280932,23.3819437 112.978166,25.2799799 C112.966521,25.3382019 112.966521,25.3964239 113.0131,25.4779346 C113.327511,24.8957149 113.618632,24.3134952 113.944687,23.7429199 C115.085881,21.7400841 116.483261,19.9584917 118.26492,18.4912981 C119.417758,17.5481021 120.687045,16.7795721 122.09607,16.2905076 C122.480349,16.1624192 122.876274,16.1158416 123.260553,16.2788632 C123.737991,16.4884623 123.842795,16.9891712 123.423581,17.3035699 C123.120815,17.5481021 122.759825,17.7460568 122.387191,17.8625008 C121.176128,18.2351214 120.046579,18.7824079 118.998544,19.492716 C116.89083,20.9249765 115.295488,22.8346571 113.933042,24.9539369 C113.141194,26.1765983 112.524017,27.4574816 112.372635,28.9246753 C112.36099,29.0061861 112.36099,29.0993412 112.407569,29.2041408 C112.535662,28.9130309 112.652111,28.6102767 112.780204,28.3191668 C113.478894,26.6889516 114.43377,25.2334023 115.83115,24.1155405 C116.390102,23.6614091 117.030568,23.3004329 117.659389,22.9394567 C118.090247,22.6949244 118.486172,22.7764352 118.649199,23.0559006 C118.788937,23.3120773 118.614265,23.6381203 118.183406,23.894297 C117.601164,24.2319844 116.995633,24.5347387 116.436681,24.9073593 C115.423581,25.5710898 114.643377,26.4793525 113.979622,27.4807704 C112.687045,29.4486731 112.011645,31.6261748 111.836972,33.966698 C111.813683,34.3276743 111.778748,34.7002949 111.755459,35.0612711 C111.755459,35.0845599 111.743814,35.1078487 111.732169,35.1544263 C111.569141,35.1078487 111.406114,35.0379823 111.243086,35.0030491 C110.998544,34.9564715 110.951965,34.8400276 110.975255,34.6071397 C111.091703,33.5009223 111.161572,32.3830604 111.289665,31.2651986 C111.464338,29.7863605 111.056769,28.4472552 110.451237,27.1197942 C109.56623,25.1868248 108.518195,23.3586549 107.179039,21.7167953 C106.061135,20.3544012 104.780204,19.1666729 103.254731,18.2700546 C102.730713,17.9556559 102.160116,17.7344124 101.647744,17.4316582 C101.286754,17.2220591 100.925764,16.9891712 100.657933,16.6747726 C100.262009,16.2089968 100.50655,15.6267771 101.123726,15.6151327 C101.56623,15.6034883 102.055313,15.7082878 102.462882,15.8829538 C104.128093,16.6049062 105.490539,17.7460568 106.678311,19.0968066 C108.657933,21.3674635 109.950509,24.0223853 110.928675,26.8403288 C111.138282,27.4458373 111.336245,28.0513458 111.557496,28.7034318 C111.592431,28.6219211 111.627365,28.5753435 111.63901,28.5171215 C111.68559,28.2725892 111.708879,28.0397014 111.767103,27.7951691 C111.941776,27.0033503 111.743814,26.3046866 111.336245,25.6176674 C109.892285,23.1956334 108.657933,20.6804442 107.668122,18.0488111 C106.969432,16.1973524 106.317322,14.3226049 105.665211,12.4595019 C105.560408,12.1567476 105.513828,11.8190602 105.455604,11.5745279 C105.257642,10.130623 106.177584,9.9326683 106.503639,10.3867997" id="Shape" fill="#F7D277"></path>
                    <path d="M64.6754003,43.9808771 L64.6754003,43.8877219 C64.6754003,36.3770876 70.4163028,30.1939143 78.4628821,30.1939143 C82.43377,30.1939143 85.2401747,31.276843 87.441048,33.139946 C87.930131,33.5358554 88.6171761,34.4208294 88.6171761,35.6900684 C88.6171761,37.5531715 87.0917031,39.0320095 85.2285298,39.0320095 C84.2503639,39.0320095 83.5167394,38.6361001 83.0742358,38.2984127 C81.7467249,37.273706 80.3726346,36.6332643 78.4163028,36.6332643 C74.6899563,36.6332643 72.0349345,39.9169835 72.0349345,43.7945668 L72.0349345,43.8877219 C72.0349345,47.9166824 74.6317322,51.153824 78.7074236,51.153824 C80.6754003,51.153824 82.1892285,50.4668047 83.6098981,49.3372985 C84.0058224,49.0461886 84.7394469,48.6502792 85.6244541,48.6502792 C87.3944687,48.6502792 88.768559,50.0708953 88.768559,51.8408432 C88.768559,52.8189723 88.3260553,53.6107911 87.6855895,54.1930109 C85.4730713,56.2074911 82.6783115,57.5815296 78.3580786,57.5815296 C70.4745269,57.5698852 64.6754003,51.4915114 64.6754003,43.9808771 L64.6754003,43.9808771 Z" id="Shape" fill="#FFFFFF"></path>
                    <path d="M90.7947598,34.1180752 C90.7947598,32.0570174 92.4599709,30.391869 94.5211063,30.391869 C96.5822416,30.391869 98.2474527,32.0570174 98.2474527,34.1180752 L98.2474527,35.294159 C99.3304221,32.7440366 101.088792,30.391869 103.30131,30.391869 C105.606987,30.391869 106.934498,31.9172846 106.934498,34.02492 C106.934498,35.9928226 105.653566,37.1689065 104.139738,37.5065939 C100.366812,38.3915679 98.2474527,41.2793776 98.2474527,46.5892214 L98.2474527,53.5525692 C98.2474527,55.613627 96.5822416,57.2787753 94.5211063,57.2787753 C92.4599709,57.2787753 90.7947598,55.613627 90.7947598,53.5525692 L90.7947598,34.1180752 L90.7947598,34.1180752 Z" id="Shape" fill="#FFFFFF"></path>
                    <path d="M108.459971,34.1180752 C108.459971,32.0570174 110.125182,30.391869 112.186317,30.391869 C114.247453,30.391869 115.912664,32.0570174 115.912664,34.1180752 L115.912664,53.5525692 C115.912664,55.613627 114.247453,57.2787753 112.186317,57.2787753 C110.125182,57.2787753 108.459971,55.613627 108.459971,53.5525692 L108.459971,34.1180752 L108.459971,34.1180752 Z" id="Shape" fill="#FFFFFF"></path>
                    <path d="M119.732169,34.141364 C119.732169,32.0803062 121.39738,30.4151578 123.458515,30.4035134 C125.519651,30.4035134 127.184862,32.0686618 127.196507,34.1297196 L127.196507,34.4208294 C128.908297,32.2083945 131.167394,30.1939143 134.951965,30.1939143 C138.387191,30.1939143 140.983988,31.7076856 142.369723,34.3626074 C144.6754,31.661108 147.423581,30.1822699 150.998544,30.1822699 C156.541485,30.1822699 159.883552,33.5125667 159.895197,39.8354727 L159.906841,53.5292804 C159.906841,55.5903382 158.24163,57.2554865 156.180495,57.2671309 C154.11936,57.2787753 152.454148,55.6019826 152.442504,53.5409248 L152.430859,42.3040843 C152.430859,38.7758329 150.858806,36.9593074 148.052402,36.9593074 C145.257642,36.9593074 143.534207,38.7758329 143.545852,42.3157287 L143.557496,53.5525692 C143.557496,55.613627 141.892285,57.2787753 139.83115,57.2904197 C137.770015,57.3020641 136.104803,55.6252713 136.093159,53.5642136 L136.081514,42.3273731 C136.081514,38.7991217 134.509461,36.9825961 131.703057,36.9825961 C128.908297,36.9825961 127.184862,38.7991217 127.196507,42.3390175 L127.208151,53.575858 C127.208151,55.6369157 125.54294,57.3020641 123.481805,57.3137085 C121.42067,57.3137085 119.755459,55.6485601 119.743814,53.5875024 L119.732169,34.141364 L119.732169,34.141364 Z" id="Shape" fill="#FFFFFF"></path>
                </g>
            </g>
        </g>
    </g>
</svg>