<?xml version="1.0" encoding="UTF-8" standalone="no"?>
<svg width="213px" height="77px" viewBox="0 0 213 77" version="1.1" xmlns="http://www.w3.org/2000/svg" xmlns:xlink="http://www.w3.org/1999/xlink" xmlns:sketch="http://www.bohemiancoding.com/sketch/ns">
    <!-- Generator: Sketch 3.3.2 (12043) - http://www.bohemiancoding.com/sketch -->
    <title>Imported Layers</title>
    <desc>Created with Sketch.</desc>
    <defs></defs>
    <g id="App-(Flow)" stroke="none" stroke-width="1" fill="none" fill-rule="evenodd" sketch:type="MSPage">
        <g id="Splash" sketch:type="MSArtboardGroup" transform="translate(-225.000000, -56.000000)">
            <g id="Imported-Layers" sketch:type="MSLayerGroup" transform="translate(225.443396, 56.000000)">
                <path d="M91.4972359,31.0711728 C91.4972359,33.8240392 89.2811848,36.0527926 86.5437736,36.0527926 C83.8063624,36.0527926 81.5904658,33.8240392 81.5904658,31.0711728 L81.5904658,30.6781267 C79.3093414,33.6276705 76.3764008,36.3149263 71.357865,36.3149263 C63.86283,36.3149263 59.4959558,31.3334608 59.4959558,23.2715392 L59.4959558,5.11546544 C59.4959558,2.36259908 61.7120069,0.134154378 64.4492636,0.134154378 C67.1866748,0.134154378 69.4025713,2.36259908 69.4025713,5.11546544 L69.4025713,20.1251636 C69.4025713,24.8444954 71.6186224,27.2696175 75.3989085,27.2696175 C79.1788854,27.2696175 81.5904658,24.8444954 81.5904658,20.1251636 L81.5904658,5.11546544 C81.5904658,2.36259908 83.8063624,0.134154378 86.5437736,0.134154378 C89.2811848,0.134154378 91.4972359,2.36259908 91.4972359,5.11546544 L91.4972359,31.0711728" id="Fill-1" fill="#8C749E" sketch:type="MSShapeGroup"></path>
                <path d="M94.0374175,25.5657488 L94.0374175,25.4342189 C94.0374175,17.7658065 99.8379161,14.2263848 108.115223,14.2263848 C111.634752,14.2263848 114.176634,14.8161083 116.653288,15.6682742 L116.653288,15.0785507 C116.653288,10.9490968 114.111406,8.6548871 109.157943,8.6548871 C106.420687,8.6548871 104.20479,9.04839631 102.314725,9.63811982 C101.728136,9.83479724 101.337078,9.90056221 100.880791,9.90056221 C98.5996665,9.90056221 96.7746741,8.13077419 96.7746741,5.83671889 C96.7746741,4.06693088 97.8826224,2.5592765 99.4468574,1.969553 C102.575327,0.789642857 105.964555,0.134154378 110.592032,0.134154378 C116.001472,0.134154378 119.912059,1.57604378 122.388713,4.06693088 C124.995668,6.68888479 126.168999,10.5560507 126.168999,15.2749194 L126.168999,31.2678502 C126.168999,33.9554147 124.018021,36.0527926 121.345838,36.0527926 C118.47828,36.0527926 116.58806,34.0207166 116.58806,31.9233387 L116.58806,31.8580369 C114.176634,34.5451382 110.852634,36.3149263 106.029628,36.3149263 C99.4468574,36.3149263 94.0374175,32.5135253 94.0374175,25.5657488 L94.0374175,25.5657488 Z M116.783589,23.2715392 L116.783589,21.5019055 C115.089053,20.7153502 112.873002,20.1909286 110.461576,20.1909286 C106.225157,20.1909286 103.618202,21.8949516 103.618202,25.0413272 L103.618202,25.1722396 C103.618202,27.8594954 105.834099,29.4327604 109.027797,29.4327604 C113.655274,29.4327604 116.783589,26.8762627 116.783589,23.2715392 L116.783589,23.2715392 Z" id="Fill-2" fill="#8C749E" sketch:type="MSShapeGroup"></path>
                <path d="M0.0290589108,65.6663295 L0.0290589108,65.5361889 C0.0290589108,57.9244332 5.82646618,54.4114101 14.0989816,54.4114101 C17.6165009,54.4114101 20.1568371,54.9969654 22.6320999,55.8424931 L22.6320999,55.2570922 C22.6320999,51.1582051 20.0919183,48.8811313 15.1412382,48.8811313 C12.4053727,48.8811313 10.1907127,49.2713986 8.30157436,49.8574171 C7.71544995,50.0525507 7.32470034,50.1173894 6.86856818,50.1173894 C4.5888348,50.1173894 2.76492445,48.3610323 2.76492445,46.0839585 C2.76492445,44.3271382 3.87209986,42.8307535 5.435562,42.2451982 C8.56233171,41.0742419 11.9495496,40.4238479 16.5742444,40.4238479 C21.9807475,40.4238479 25.889171,41.8549309 28.3645883,44.3271382 C30.9699979,46.9294862 32.1425558,50.7677834 32.1425558,55.4522258 L32.1425558,71.3265945 C32.1425558,73.9939355 29.9929693,76.0757212 27.3223317,76.0757212 C24.4561648,76.0757212 22.567181,74.0587742 22.567181,71.9769885 L22.567181,71.9119954 C20.1568371,74.5793364 16.8348472,76.3358479 12.0144685,76.3358479 C5.435562,76.3358479 0.0290589108,72.5623894 0.0290589108,65.6663295 L0.0290589108,65.6663295 Z M22.7625558,63.3894101 L22.7625558,61.6328986 C21.0689469,60.8522097 18.8541323,60.3316475 16.4440976,60.3316475 C12.2098433,60.3316475 9.60443372,62.0231659 9.60443372,65.1457673 L9.60443372,65.2760622 C9.60443372,67.9434032 11.8190937,69.5047811 15.0109368,69.5047811 C19.6359407,69.5047811 22.7625558,66.9675806 22.7625558,63.3894101 L22.7625558,63.3894101 Z" id="Fill-3" fill="#8C749E" sketch:type="MSShapeGroup"></path>
                <path d="M53.5360969,0.134154378 C50.6031563,0.134154378 48.0708577,3.28052995 46.988877,6.68888479 L46.988877,5.11546544 C46.988877,2.36259908 44.6069737,0.134154378 41.8695625,0.134154378 C39.1321513,0.134154378 36.7776067,2.36259908 36.7776067,5.11546544 L36.7873445,33.5557304 L36.7873445,71.1313065 C36.7873445,73.8636406 39.1522452,76.0757212 41.8881107,76.0757212 C44.6239763,76.0757212 46.988877,73.8636406 46.988877,71.1313065 L46.988877,32.7466359 C46.988877,32.7190023 46.988877,32.7742696 46.988877,32.7466359 L46.988877,32.4982419 L46.6709292,21.7638848 C46.6709292,14.6851959 49.4664583,10.81803 54.4851486,9.63811982 C56.5055157,9.17930876 58.2795004,7.60635253 58.2795004,4.984553 C58.2795004,2.16623041 56.5993389,0.134154378 53.5360969,0.134154378" id="Fill-4" fill="#8C749E" sketch:type="MSShapeGroup"></path>
                <path d="M68.4258519,76.4661429 C57.9385219,76.4661429 50.1869029,69.1143594 50.1869029,58.4449954 L50.1869029,58.3147005 C50.1869029,48.3610323 57.2871695,40.1632581 67.4488233,40.1632581 C79.1087112,40.1632581 84.2546115,49.7271221 84.2546115,56.9486106 C84.2546115,59.8110853 82.2353264,61.6977373 79.6299168,61.6977373 L60.023035,61.6977373 C61.0000636,66.1868917 64.1266788,68.5289585 68.5561533,68.5289585 C71.2920188,68.5289585 73.5719067,67.6832765 75.5911919,66.1868917 C76.3077723,65.6663295 76.9589701,65.4063571 78.0012267,65.4063571 C80.2160412,65.4063571 81.8444222,67.0978756 81.8444222,69.3094931 C81.8444222,70.6107442 81.2582978,71.5865668 80.5417174,72.237424 C77.4801757,74.8399263 73.5066788,76.4661429 68.4258519,76.4661429 L68.4258519,76.4661429 Z M74.8095381,55.5170645 C74.2234137,51.093212 71.617695,48.1004424 67.4488233,48.1004424 C63.345025,48.1004424 60.6743874,51.0283733 59.8925791,55.5170645 L74.8095381,55.5170645 L74.8095381,55.5170645 Z" id="Fill-5" fill="#8C749E" sketch:type="MSShapeGroup"></path>
                <path d="M142.320653,16.4909539 C143.056863,19.284576 143.733101,22.0951797 144.531448,24.870894 C145.451286,28.0683687 146.852452,31.0682396 148.55889,33.9246935 C148.601087,33.9952442 148.665387,34.0525184 148.749473,34.1513203 C149.01023,33.424818 148.853807,32.8023664 148.554716,32.1737396 C147.893781,30.7848018 147.175809,29.4146982 146.631264,27.9802189 C145.282188,24.4258226 144.696528,20.7613548 145.356227,16.9659747 C145.425164,16.5695323 145.524552,16.1783387 145.619766,15.7865276 C145.635223,15.7221521 145.650835,15.6577765 145.666137,15.5934009 C145.685613,15.5106544 145.914374,14.7543571 145.962291,14.6506152 C146.377926,13.7513641 146.800826,12.8542742 147.26314,11.9784885 C147.359282,11.7966313 147.612002,11.6655645 147.820979,11.5814286 C148.347903,11.3690046 148.855662,11.6485829 148.931864,12.2100553 C148.971897,12.5046083 148.920271,12.8196935 148.862617,13.1164078 C148.821656,13.3275968 148.709749,13.5273618 148.614534,13.7251198 C148.520093,13.9216429 148.407103,14.109212 148.307561,14.2909147 C148.084982,14.2256129 147.659764,13.8753295 148.307561,14.2909147 C146.330782,19.6249793 146.570518,26.0222442 148.771885,31.0909332 C148.543433,30.3562488 148.286076,29.6289747 148.091629,28.8853364 C147.449087,26.4267143 147.340425,23.9592926 148.087301,21.5002074 C148.235841,21.0117558 148.449919,20.5402857 148.666315,20.0760714 C148.802335,19.7842972 149.046245,19.5389908 149.396961,19.6634194 C149.74134,19.7853779 149.738403,20.134735 149.657873,20.416629 C149.537773,20.8365369 149.3543,21.2386912 149.193703,21.6468664 C148.188079,24.2033641 148.221003,26.8041682 148.862153,29.4298272 C148.961541,29.8372304 149.08566,30.2386129 149.19834,30.6429286 C149.239301,30.6395323 149.280262,30.6361359 149.321222,30.6327396 C149.360328,29.8153088 149.382741,28.9966429 149.441322,28.1806014 C149.738712,24.0397235 150.497026,19.9805115 151.628469,15.9882995 C151.709927,15.7005392 152.474269,14.2452189 152.80721,14.1098295 C152.979863,14.0397419 152.43099,14.9309654 152.467004,14.6973917 C152.524504,14.3256498 152.756047,14.0190553 153.112483,14.0261567 C153.526881,14.0343387 153.643581,14.3522028 153.610812,14.6657442 C153.541411,15.330341 153.501223,16.0210276 153.28359,16.6433249 C151.883971,20.6438733 150.893804,24.7427604 150.212156,28.9205346 C150.191289,29.0482051 150.18387,29.1781912 150.26811,29.3441475 C150.317572,29.21447 150.373526,29.0866452 150.415414,28.9546521 C151.018541,27.0593548 151.796176,25.2444885 152.87352,23.5642396 C154.50051,21.0264217 156.636649,19.0726152 159.436969,17.9018134 C159.80948,17.7460461 160.263757,17.7255138 160.674601,17.7472811 C160.86673,17.75747 161.141398,17.98703 161.201371,18.1739816 C161.253151,18.3353065 161.10322,18.6297051 160.953443,18.7704977 C160.735501,18.9752028 160.45434,19.1413134 160.171016,19.2435115 C156.540971,20.5543341 154.059525,23.1040392 152.358806,26.4798203 C151.218089,28.7439263 150.363788,31.1116198 149.96531,33.6275161 C149.952635,33.7073295 149.953408,33.7891498 150.007662,33.8885691 C150.418042,33.120076 150.81111,32.3418571 151.242047,31.5849424 C152.751101,28.9339654 154.607007,26.5622581 156.978864,24.6215737 C158.511412,23.3677166 160.187864,22.3523733 162.071592,21.706765 C162.581978,21.5317005 163.101329,21.4704124 163.618825,21.6956498 C164.25132,21.9710599 164.38904,22.630871 163.842486,23.0575714 C163.436279,23.3745092 162.958353,23.6503825 162.468216,23.8002834 C160.853437,24.2939839 159.35613,25.0155461 157.966403,25.9614194 C155.172883,27.8625829 153.055138,30.3905207 151.23741,33.2023594 C150.188816,34.8245622 149.374394,36.5267327 149.171136,38.4739009 C149.159389,38.5869055 149.148569,38.6999101 149.220444,38.8405484 C149.385059,38.4481198 149.547665,38.054765 149.714445,37.6632627 C150.636602,35.4979585 151.908393,33.5730207 153.75858,32.093 C154.506383,31.4947857 155.351565,31.0080323 156.18809,30.5330115 C156.762158,30.2069654 157.292947,30.3167281 157.496514,30.6821406 C157.682769,31.0168318 157.447052,31.4531037 156.871593,31.7905737 C156.101068,32.2425922 155.296538,32.6415046 154.552754,33.1328894 C153.210788,34.0196359 152.165595,35.2106613 151.290118,36.5478825 C149.580279,39.1593387 148.681153,42.0429631 148.441881,45.1425622 C148.40463,45.6253018 148.369852,46.1081959 148.332756,46.5909355 C148.330592,46.6188779 148.317917,46.645894 148.296587,46.7212304 C148.078954,46.6536129 147.865958,46.5629931 147.643998,46.5242442 C147.323731,46.4683594 147.261595,46.301477 147.292199,45.9987419 C147.441667,44.5252051 147.542446,43.046265 147.71309,41.5751982 C147.94046,39.6169147 147.401325,37.8326152 146.602359,36.0842857 C145.432275,33.5243917 144.041311,31.1012765 142.253106,28.9183733 C140.770947,27.1090645 139.067137,25.5432097 137.050634,24.3436935 C136.360948,23.9335115 135.603716,23.6366429 134.911094,23.230629 C134.438578,22.9536751 133.951995,22.639053 133.601588,22.230106 C133.073118,21.6135207 133.406832,20.8400876 134.2228,20.8227972 C134.815725,20.8101382 135.456721,20.9466083 136.002349,21.1852765 C138.206189,22.1490576 140.021444,23.6511544 141.592634,25.4505829 C144.222156,28.4618779 145.936168,31.9792235 147.233,35.722424 C147.510914,36.5244171 147.776308,37.3305783 148.067825,38.1952488 C148.114968,38.0865668 148.157011,38.0235806 148.169531,37.9551912 C148.227649,37.6380991 148.2615,37.3159124 148.333065,37.0020622 C148.572646,35.9507488 148.308952,35.0312742 147.75946,34.1127258 C145.842809,30.9089217 144.201753,27.5638618 142.883437,24.0705991 C141.957262,21.6166083 141.096778,19.1379171 140.224238,16.6641659 C140.080952,16.2578433 140.026699,15.8203364 139.953433,15.4958341 C139.695458,13.5877235 140.908822,13.3232742 141.349961,13.9180922" id="Fill-6" fill="#F8D277" sketch:type="MSShapeGroup"></path>
                <path d="M85.8842291,58.4449954 L85.8842291,58.3147005 C85.8842291,48.3610323 93.5053921,40.1632581 104.188251,40.1632581 C109.464453,40.1632581 113.177347,41.5948041 116.108742,44.0670115 C116.760095,44.5875737 117.671895,45.75853 117.671895,47.4500484 C117.671895,49.9222558 115.65261,51.8739009 113.177347,51.8739009 C111.874642,51.8739009 110.897614,51.3533387 110.311335,50.8980783 C108.552498,49.5319885 106.728588,48.6859977 104.123023,48.6859977 C99.172498,48.6859977 95.6549787,53.0448571 95.6549787,58.1848687 L95.6549787,58.3147005 C95.6549787,63.6493825 99.10727,67.9434032 104.513773,67.9434032 C107.119492,67.9434032 109.138777,67.0325737 111.027761,65.5361889 C111.548966,65.1457673 112.525995,64.6256682 113.698398,64.6256682 C116.043514,64.6256682 117.86727,66.5123203 117.86727,68.8543871 C117.86727,70.1554839 117.281146,71.1962995 116.434264,71.9769885 C113.503023,74.6446382 109.790129,76.4661429 104.05795,76.4661429 C93.5706201,76.4661429 85.8842291,68.3986636 85.8842291,58.4449954" id="Fill-7" fill="#8C749E" sketch:type="MSShapeGroup"></path>
                <path d="M120.539453,45.3682627 C120.539453,42.6354654 122.754113,40.4238479 125.490133,40.4238479 C128.225844,40.4238479 130.440659,42.6354654 130.440659,45.3682627 L130.440659,46.9294862 C131.873665,43.5464493 134.218626,40.4238479 137.149867,40.4238479 C140.211408,40.4238479 141.970245,42.4403318 141.970245,45.2379677 C141.970245,47.84047 140.276636,49.4016935 138.257351,49.8574171 C133.241598,51.0283733 130.440659,54.8666705 130.440659,61.8930253 L130.440659,71.1313065 C130.440659,73.8636406 128.225844,76.0757212 125.490133,76.0757212 C122.754113,76.0757212 120.539453,73.8636406 120.539453,71.1313065 L120.539453,45.3682627" id="Fill-8" fill="#8C749E" sketch:type="MSShapeGroup"></path>
                <path d="M143.990613,45.3682627 C143.990613,42.6354654 146.205272,40.4238479 148.941138,40.4238479 C151.677004,40.4238479 153.891664,42.6354654 153.891664,45.3682627 L153.891664,71.1313065 C153.891664,73.8636406 151.677004,76.0757212 148.941138,76.0757212 C146.205272,76.0757212 143.990613,73.8636406 143.990613,71.1313065 L143.990613,45.3682627" id="Fill-9" fill="#8C749E" sketch:type="MSShapeGroup"></path>
                <path d="M158.964298,45.3847811 C158.962598,42.6521382 161.175867,40.438977 163.911732,40.4372788 C166.647598,40.4355806 168.863649,42.6459631 168.865349,45.378606 L168.865504,45.7688733 C171.143537,42.8397074 174.13846,40.1703594 179.154058,40.1672719 C183.713834,40.1644931 187.167362,42.1792788 188.993591,45.69153 C192.052814,42.1113525 195.699553,40.1570829 200.454549,40.1541498 C207.815109,40.1495184 212.247366,44.5710553 212.252622,52.9635 L212.263905,71.114788 C212.265605,73.8471221 210.052336,76.0605922 207.316471,76.0622903 C204.580605,76.0639885 202.364554,73.8532972 202.362854,71.1209631 L202.35358,56.2224171 C202.350643,51.538129 200.264739,49.1324585 196.55169,49.1347742 C192.838796,49.1370899 190.560454,51.5453848 190.563391,56.2298272 L190.572665,71.1283733 C190.574365,73.860553 188.361096,76.074023 185.625231,76.0757212 C182.889365,76.0774194 180.673314,73.8667281 180.671614,71.134394 L180.66234,56.2358479 C180.659403,51.5515599 178.573499,49.1460438 174.860604,49.1483594 C171.147556,49.1505207 168.869213,51.55897 168.871996,56.2432581 L168.88127,71.1418041 C168.88297,73.8739839 166.669701,76.0874539 163.933836,76.0891521 C161.19797,76.0908502 158.982074,73.880159 158.980373,71.1478249 L158.964298,45.3847811" id="Fill-10" fill="#8C749E" sketch:type="MSShapeGroup"></path>
            </g>
        </g>
    </g>
</svg>