<?xml version="1.0" encoding="UTF-8" standalone="no"?>
<svg width="20px" height="29px" viewBox="0 0 20 29" version="1.1" xmlns="http://www.w3.org/2000/svg" xmlns:xlink="http://www.w3.org/1999/xlink" xmlns:sketch="http://www.bohemiancoding.com/sketch/ns">
    <!-- Generator: Sketch 3.3.2 (12043) - http://www.bohemiancoding.com/sketch -->
    <title>pin71</title>
    <desc>Created with Sketch.</desc>
    <defs></defs>
    <g id="App-(Flow)" stroke="none" stroke-width="1" fill="none" fill-rule="evenodd" sketch:type="MSPage">
        <g id="My-Profile" sketch:type="MSArtboardGroup" transform="translate(-34.000000, -370.000000)" fill="#C0C0C0">
            <g id="pin71" sketch:type="MSLayerGroup" transform="translate(34.000000, 370.000000)">
                <g id="Group" sketch:type="MSShapeGroup">
                    <path d="M9.98923977,0 C4.48532164,0 0.0231578947,4.44839163 0.0231578947,9.93526406 C0.0231578947,10.3553086 0.0569590643,10.7646845 0.108479532,11.1705041 C0.96005848,18.9312723 9.34210526,27.8758608 9.34210526,27.8758608 C9.49146199,28.0424794 9.6354386,28.1452606 9.77409357,28.2196502 L9.78122807,28.2232064 L10.0603509,28.311821 L10.3394737,28.2232064 L10.3466082,28.2196502 C10.4852632,28.1452023 10.6292982,28.0371159 10.7785965,27.8758608 C10.7785965,27.8758608 19.0397661,18.9152984 19.8717544,11.1528395 C19.9215205,10.7523251 19.9553216,10.3464472 19.9553216,9.93351509 C19.9535088,4.44839163 15.4931579,0 9.98923977,0 L9.98923977,0 Z M9.98923977,16.3260631 C6.45508772,16.3260631 3.57871345,13.4585665 3.57871345,9.93532236 C3.57871345,6.41207819 6.45508772,3.54458162 9.98923977,3.54458162 C13.5233918,3.54458162 16.3980117,6.41207819 16.3980117,9.93532236 C16.3980117,13.4585665 13.5233918,16.3260631 9.98923977,16.3260631 L9.98923977,16.3260631 Z" id="Shape"></path>
                </g>
            </g>
        </g>
    </g>
</svg>