<?xml version="1.0" encoding="UTF-8" standalone="no"?>
<svg width="122px" height="122px" viewBox="0 0 122 122" version="1.1" xmlns="http://www.w3.org/2000/svg" xmlns:xlink="http://www.w3.org/1999/xlink" xmlns:sketch="http://www.bohemiancoding.com/sketch/ns">
    <!-- Generator: Sketch 3.3.2 (12043) - http://www.bohemiancoding.com/sketch -->
    <title>icon-acessorios copy + Group</title>
    <desc>Created with Sketch.</desc>
    <defs></defs>
    <g id="App-(Flow)" stroke="none" stroke-width="1" fill="none" fill-rule="evenodd" sketch:type="MSPage">
        <g id="New-Product---02" sketch:type="MSArtboardGroup" transform="translate(-57.000000, -723.000000)">
            <g id="icon-acessorios-copy-+-Group" sketch:type="MSLayerGroup" transform="translate(59.000000, 725.000000)">
                <g id="icon-acessorios-copy" stroke="#F7D277" stroke-width="3" sketch:type="MSShapeGroup">
                    <ellipse id="Oval" cx="59.1124899" cy="59.1124899" rx="59.0356206" ry="59.0356206"></ellipse>
                </g>
                <g id="Group" transform="translate(19.000000, 29.000000)" fill="#F7D277" sketch:type="MSShapeGroup">
                    <rect id="Rectangle-path" x="10.476087" y="10.3666667" width="3.43478261" height="44.4333333"></rect>
                    <path d="M12.1934783,12.0888889 C8.93043478,12.0888889 6.1826087,9.33333333 6.1826087,6.06111111 C6.1826087,2.78888889 8.93043478,0.0333333333 12.1934783,0.0333333333 C15.4565217,0.0333333333 18.2043478,2.78888889 18.2043478,6.06111111 C18.2043478,9.33333333 15.4565217,12.0888889 12.1934783,12.0888889 L12.1934783,12.0888889 Z M12.1934783,3.47777778 C10.8195652,3.47777778 9.6173913,4.68333333 9.6173913,6.06111111 C9.6173913,7.43888889 10.8195652,8.64444444 12.1934783,8.64444444 C13.5673913,8.64444444 14.7695652,7.43888889 14.7695652,6.06111111 C14.7695652,4.68333333 13.5673913,3.47777778 12.1934783,3.47777778 L12.1934783,3.47777778 Z" id="Shape"></path>
                    <rect id="Rectangle-path" x="65.0891304" y="10.3666667" width="3.43478261" height="44.4333333"></rect>
                    <path d="M66.8065217,12.0888889 C63.5434783,12.0888889 60.7956522,9.33333333 60.7956522,6.06111111 C60.7956522,2.78888889 63.5434783,0.0333333333 66.8065217,0.0333333333 C70.0695652,0.0333333333 72.8173913,2.78888889 72.8173913,6.06111111 C72.8173913,9.33333333 70.0695652,12.0888889 66.8065217,12.0888889 L66.8065217,12.0888889 Z M66.8065217,3.47777778 C65.4326087,3.47777778 64.2304348,4.68333333 64.2304348,6.06111111 C64.2304348,7.43888889 65.4326087,8.64444444 66.8065217,8.64444444 C68.1804348,8.64444444 69.3826087,7.43888889 69.3826087,6.06111111 C69.3826087,4.68333333 68.1804348,3.47777778 66.8065217,3.47777778 L66.8065217,3.47777778 Z" id="Shape"></path>
                    <path d="M68.523913,46.1888889 L10.476087,46.1888889 L10.476087,18.9777778 L68.523913,18.9777778 L68.523913,46.1888889 L68.523913,46.1888889 Z M13.9108696,42.7444444 L65.0891304,42.7444444 L65.0891304,22.4222222 L13.9108696,22.4222222 L13.9108696,42.7444444 L13.9108696,42.7444444 Z" id="Shape"></path>
                    <g transform="translate(20.608696, 20.666667)">
                        <g transform="translate(27.478261, 5.888889)" id="Shape">
                            <path d="M5.15217391,11.1944444 C2.2326087,11.1944444 0,8.95555556 0,6.02777778 C0,3.1 2.2326087,0.861111111 5.15217391,0.861111111 L5.15217391,4.30555556 C4.12173913,4.30555556 3.43478261,4.99444444 3.43478261,6.02777778 C3.43478261,7.06111111 4.12173913,7.75 5.15217391,7.75 L5.15217391,11.1944444 L5.15217391,11.1944444 Z"></path>
                            <path d="M5.15217391,11.1944444 L5.15217391,7.75 C6.1826087,7.75 6.86956522,7.06111111 6.86956522,6.02777778 C6.86956522,4.99444444 6.1826087,4.30555556 5.15217391,4.30555556 L5.15217391,0.861111111 C8.07173913,0.861111111 10.3043478,3.1 10.3043478,6.02777778 C10.3043478,8.95555556 7.9,11.1944444 5.15217391,11.1944444 L5.15217391,11.1944444 Z"></path>
                        </g>
                        <g transform="translate(13.739130, 5.888889)" id="Shape">
                            <path d="M5.15217391,11.1944444 L5.15217391,7.75 C6.1826087,7.75 6.86956522,7.06111111 6.86956522,6.02777778 C6.86956522,4.99444444 6.1826087,4.30555556 5.15217391,4.30555556 L5.15217391,0.861111111 C8.07173913,0.861111111 10.3043478,3.1 10.3043478,6.02777778 C10.3043478,8.95555556 8.07173913,11.1944444 5.15217391,11.1944444 L5.15217391,11.1944444 Z"></path>
                            <path d="M5.15217391,11.1944444 C2.2326087,11.1944444 0,8.95555556 0,6.02777778 C0,3.1 2.2326087,0.861111111 5.15217391,0.861111111 L5.15217391,4.30555556 C4.12173913,4.30555556 3.43478261,4.99444444 3.43478261,6.02777778 C3.43478261,7.06111111 4.12173913,7.75 5.15217391,7.75 L5.15217391,11.1944444 L5.15217391,11.1944444 Z"></path>
                        </g>
                        <g transform="translate(0.000000, 5.888889)" id="Shape">
                            <path d="M5.15217391,11.1944444 L5.15217391,7.75 C6.1826087,7.75 6.86956522,7.06111111 6.86956522,6.02777778 C6.86956522,4.99444444 6.1826087,4.30555556 5.15217391,4.30555556 L5.15217391,0.861111111 C8.07173913,0.861111111 10.3043478,3.1 10.3043478,6.02777778 C10.3043478,8.95555556 8.07173913,11.1944444 5.15217391,11.1944444 L5.15217391,11.1944444 Z"></path>
                            <path d="M5.15217391,11.1944444 C2.2326087,11.1944444 0,8.95555556 0,6.02777778 C0,3.1 2.2326087,0.861111111 5.15217391,0.861111111 L5.15217391,4.30555556 C4.12173913,4.30555556 3.43478261,4.99444444 3.43478261,6.02777778 C3.43478261,7.06111111 4.12173913,7.75 5.15217391,7.75 L5.15217391,11.1944444 L5.15217391,11.1944444 Z"></path>
                        </g>
                        <rect id="Rectangle-path" x="30.9130435" y="0.0333333333" width="3.43478261" height="8.95555556"></rect>
                        <rect id="Rectangle-path" x="30.9130435" y="14.8444444" width="3.43478261" height="8.95555556"></rect>
                        <rect id="Rectangle-path" x="17.173913" y="0.0333333333" width="3.43478261" height="8.95555556"></rect>
                        <rect id="Rectangle-path" x="17.173913" y="14.8444444" width="3.43478261" height="8.95555556"></rect>
                        <rect id="Rectangle-path" x="3.43478261" y="0.0333333333" width="3.43478261" height="8.95555556"></rect>
                        <rect id="Rectangle-path" x="3.43478261" y="14.8444444" width="3.43478261" height="8.95555556"></rect>
                    </g>
                    <path d="M39.5,59.9666667 C25.2456522,59.9666667 10.8195652,56.8666667 0,50.4944444 L1.7173913,47.5666667 C22.4978261,59.6222222 56.5021739,59.6222222 77.2826087,47.5666667 L79,50.4944444 C68.1804348,56.8666667 53.7543478,59.9666667 39.5,59.9666667 L39.5,59.9666667 Z" id="Shape"></path>
                </g>
            </g>
        </g>
    </g>
</svg>