<?xml version="1.0" encoding="utf-8"?>
<!-- Generator: Adobe Illustrator 17.1.0, SVG Export Plug-In . SVG Version: 6.00 Build 0)  -->
<!DOCTYPE svg PUBLIC "-//W3C//DTD SVG 1.1//EN" "http://www.w3.org/Graphics/SVG/1.1/DTD/svg11.dtd">
<svg version="1.1" id="Camada_1" xmlns="http://www.w3.org/2000/svg" xmlns:xlink="http://www.w3.org/1999/xlink" x="0px" y="0px"
	 width="500px" height="500px" viewBox="0 0 500 500" enable-background="new 0 0 500 500" xml:space="preserve">
<path fill="#FFFFFF" d="M491.9,194.9C491.9,88.9,406,3,300,3v191.9H491.9z"/>
<path fill="#FFFFFF" d="M204.1,322.8c-63.6,0-115.1-51.6-115.1-115.1h402.9c0,63.6-51.6,115.1-115.1,115.1H204.1z"/>
<path fill="#FFFFFF" d="M188.1,495.4c-42.3,0-76.8-34.4-76.8-76.8s34.4-76.8,76.8-76.8s76.8,34.4,76.8,76.8S230.4,495.4,188.1,495.4
	z M188.1,367.5c-28.2,0-51.2,23-51.2,51.2c0,28.2,23,51.2,51.2,51.2s51.2-23,51.2-51.2C239.3,390.4,216.3,367.5,188.1,367.5z"/>
<path fill="#FFFFFF" d="M386.4,495.4c-42.3,0-76.8-34.4-76.8-76.8s34.4-76.8,76.8-76.8s76.8,34.4,76.8,76.8S428.7,495.4,386.4,495.4
	z M386.4,367.5c-28.2,0-51.2,23-51.2,51.2c0,28.2,23,51.2,51.2,51.2s51.2-23,51.2-51.2C437.5,390.4,414.6,367.5,386.4,367.5z"/>
<path fill="#FFFFFF" d="M21.8,102.1c-7.1,0-12.8,5.7-12.8,12.8s5.7,12.8,12.8,12.8c37,0,67.2,30.1,67.2,67.2h25.6
	C114.5,143.7,72.9,102.1,21.8,102.1z"/>
</svg>
