<?xml version="1.0" encoding="utf-8"?>
<!-- Generator: Adobe Illustrator 17.1.0, SVG Export Plug-In . SVG Version: 6.00 Build 0)  -->
<!DOCTYPE svg PUBLIC "-//W3C//DTD SVG 1.1//EN" "http://www.w3.org/Graphics/SVG/1.1/DTD/svg11.dtd">
<svg version="1.1" id="Camada_1" xmlns="http://www.w3.org/2000/svg" xmlns:xlink="http://www.w3.org/1999/xlink" x="0px" y="0px"
	 width="160px" height="160px" viewBox="0 0 160 160" enable-background="new 0 0 160 160" xml:space="preserve">
<circle fill="#9FD5E5" cx="79.9" cy="79.9" r="76.8"/>
<g>
	<path fill="#FFFFFF" d="M103.2,113.4c-0.5,0-1-0.3-1.2-0.8c-0.3-0.7,0-1.4,0.7-1.7c2.1-0.9,4-2.2,5.6-3.8c1.6-1.6,2.9-3.5,3.8-5.6
		c0.3-0.7,1.1-1,1.7-0.7c0.7,0.3,1,1.1,0.7,1.7c-1,2.4-2.5,4.6-4.4,6.5c-1.9,1.9-4,3.3-6.5,4.4C103.5,113.4,103.4,113.4,103.2,113.4
		z"/>
	<g>
		<path fill="#FFFFFF" d="M45.8,63c-2.8,0-5.1-2.3-5.1-5.1s2.3-5.1,5.1-5.1s5.1,2.3,5.1,5.1S48.6,63,45.8,63z M45.8,55.4
			c-1.4,0-2.5,1.1-2.5,2.5s1.1,2.5,2.5,2.5s2.5-1.1,2.5-2.5S47.2,55.4,45.8,55.4z"/>
	</g>
	<g>
		<path fill="#FFFFFF" d="M61.1,76.2c-0.7,0-1.3-0.6-1.3-1.3c0-1-0.8-1.7-1.7-1.7s-1.7,0.8-1.7,1.7c0,0.7-0.6,1.3-1.3,1.3
			s-1.3-0.6-1.3-1.3c0-2.4,2-4.4,4.4-4.4s4.4,2,4.4,4.4C62.4,75.6,61.8,76.2,61.1,76.2z"/>
	</g>
	<g>
		<path fill="#FFFFFF" d="M67.2,84.2c-0.7,0-1.3-0.6-1.3-1.3c0-1-0.8-1.7-1.7-1.7c-1,0-1.7,0.8-1.7,1.7c0,0.7-0.6,1.3-1.3,1.3
			s-1.3-0.6-1.3-1.3c0-2.4,2-4.4,4.4-4.4c2.4,0,4.4,2,4.4,4.4C68.5,83.6,67.9,84.2,67.2,84.2z"/>
	</g>
	<g>
		<path fill="#FFFFFF" d="M51,50.2c-2.2,0-3.9-1.7-3.9-3.9s1.8-3.9,3.9-3.9c2.2,0,3.9,1.7,3.9,3.9S53.2,50.2,51,50.2z M51,45.1
			c-0.7,0-1.3,0.6-1.3,1.3s0.6,1.3,1.3,1.3s1.3-0.6,1.3-1.3S51.7,45.1,51,45.1z"/>
	</g>
	<g>
		<path fill="#FFFFFF" d="M94.6,48.2c0,0-0.7,5.4-2.5,4.4C90.3,51.5,94.6,48.2,94.6,48.2z"/>
		<path fill="#FFFFFF" d="M98,50.2c0,0-0.7,5.4-2.5,4.4C93.7,53.5,98,50.2,98,50.2z"/>
		<path fill="#FFFFFF" d="M101.4,52.2c0,0-0.7,5.4-2.5,4.4C97.1,55.5,101.4,52.2,101.4,52.2z"/>
		<path fill="#FFFFFF" d="M91.1,54.3c0,0-0.7,5.4-2.5,4.4C86.7,57.6,91.1,54.3,91.1,54.3z"/>
		<path fill="#FFFFFF" d="M94.5,56.3c0,0-0.7,5.4-2.5,4.4C90.2,59.7,94.5,56.3,94.5,56.3z"/>
		<path fill="#FFFFFF" d="M97.9,58.3c0,0-0.7,5.4-2.5,4.4C93.6,61.6,97.9,58.3,97.9,58.3z"/>
	</g>
	<g>
		<path fill="#FFFFFF" d="M120.5,88.3c0-0.7-0.6-1.3-1.3-1.3h-4.6V38.5c0-0.7-0.6-1.3-1.3-1.3h-8c-0.5,0-0.9,0.2-1.1,0.6l-2.1,3.3
			c-0.2-0.1-0.4-0.2-0.7-0.3c-0.5-0.2-1.1-0.3-1.7-0.4c-0.6-0.1-1.1-0.1-1.7,0c-0.6,0-1.1,0.1-1.6,0.3c-0.5,0.1-1.1,0.3-1.6,0.6
			c-0.5,0.2-1,0.5-1.4,0.9c-0.4,0.3-0.9,0.7-1.2,1.1c-0.3,0.3-0.4,0.7-0.3,1.1c0.1,0.4,0.3,0.7,0.6,0.9l12.4,7.2
			c0.2,0.1,0.4,0.2,0.7,0.2c0.2,0,0.3,0,0.5-0.1c0.4-0.1,0.7-0.4,0.8-0.8c0.2-0.5,0.3-1.1,0.4-1.7c0.1-0.6,0.1-1.1,0-1.7
			c0-0.5-0.1-1.1-0.3-1.6c-0.1-0.5-0.3-1.1-0.6-1.5c-0.2-0.5-0.5-1-0.9-1.4c-0.3-0.5-0.7-0.9-1.2-1.2l-0.1-0.1l1.7-2.7h6v47.3h-8
			c1.2-1.4,1.9-3.1,1.9-5.1c0-4.3-3.5-7.7-7.7-7.7c-4.2,0-7.7,3.5-7.7,7.7c0,2,0.7,3.7,1.9,5.1h-8.4c0.1-0.4,0.1-0.9,0.1-1.4
			c0-4.2-3-7.8-7-8.7c0.7-1.2,1.1-2.6,1.1-4c0-4.1-3-7.5-7-8c0.2-0.7,0.3-1.4,0.3-2.1c0-4.1-3.4-7.5-7.5-7.5s-7.5,3.4-7.5,7.5
			c0,0.2,0,0.5,0,0.7c-0.2,0-0.4,0-0.6,0c-4.8,0-8.7,3.9-8.7,8.7c0,0.8,0.1,1.7,0.4,2.4c-3.1,1.9-4.9,5.3-4.9,9
			c0,1.1,0.2,2.2,0.5,3.3h-5.9c-0.7,0-1.3,0.6-1.3,1.3l-0.2,9.2V99c0,2.7,0.5,5.4,1.6,7.9c1,2.4,2.5,4.6,4.4,6.5
			c1.9,1.9,4,3.3,6.5,4.4c2.1,0.9,4.3,1.4,6.6,1.5v0.1c0.1,0.6,0.1,2.4-0.7,3.4c-0.4,0.4-0.9,0.6-1.7,0.6c-0.7,0-1.3,0.6-1.3,1.3
			c0,0.7,0.6,1.3,1.3,1.3c1.9,0,3.1-0.8,3.7-1.6c1.5-1.7,1.4-4.2,1.3-5.1h43c-0.1,0.9-0.2,3.4,1.3,5.1c0.6,0.7,1.7,1.6,3.7,1.6
			c0.7,0,1.3-0.6,1.3-1.3c0-0.7-0.6-1.3-1.3-1.3c-0.8,0-1.3-0.2-1.7-0.6c-0.8-0.9-0.8-2.7-0.7-3.4c0-0.1,0-0.1,0-0.2
			c1.8-0.2,3.7-0.7,5.4-1.4c2.4-1,4.6-2.5,6.5-4.4c1.9-1.9,3.3-4,4.4-6.5s1.6-5.2,1.6-7.9L120.5,88.3z M104.5,47.5
			c0.1,0.4,0.2,0.8,0.2,1.1c0,0.2,0,0.4,0,0.6l-9.2-5.3c0.2-0.1,0.4-0.2,0.6-0.3c0.3-0.2,0.7-0.3,1.1-0.4c0.4-0.1,0.7-0.2,1.1-0.2
			s0.8,0,1.2,0c0.4,0,0.8,0.1,1.1,0.3c0.4,0.1,0.8,0.3,1.1,0.5c0.4,0.2,0.7,0.4,1,0.7c0.3,0.3,0.6,0.5,0.8,0.9
			c0.2,0.3,0.4,0.6,0.6,1C104.2,46.8,104.4,47.1,104.5,47.5z M93,81.9c0-2.8,2.3-5.1,5.1-5.1c2.8,0,5.1,2.3,5.1,5.1
			c0,2.8-2.3,5.1-5.1,5.1l0,0C95.3,87,93,84.7,93,81.9z M49.6,76.5l1.1-0.6l-0.5-1.2c-0.4-0.8-0.5-1.6-0.5-2.5
			c0-3.4,2.7-6.1,6.1-6.1c0.7,0,1.3,0.1,1.9,0.3l2.8,0.9l-1.1-2.7C59.2,64,59,63.4,59,62.7c0-2.7,2.2-4.9,4.9-4.9
			c2.7,0,4.9,2.2,4.9,4.9c0,0.9-0.3,1.9-0.8,2.6l-1.6,2.4l2.9-0.4c0.2,0,0.5-0.1,0.7-0.1c3,0,5.4,2.4,5.4,5.4c0,1.6-0.7,3.1-1.9,4.1
			l-3.2,2.7l4.1-0.4c0.2,0,0.4,0,0.6,0c3.5,0,6.3,2.8,6.3,6.3c0,0.5-0.1,0.9-0.2,1.4H45.8c-0.5-1-0.7-2.1-0.7-3.3
			C45.1,80.7,46.9,77.9,49.6,76.5z M118.1,99.1c0,2.4-0.5,4.7-1.4,6.9c-0.9,2.1-2.2,4-3.8,5.6s-3.5,2.9-5.6,3.8
			c-2.2,0.9-4.5,1.4-6.9,1.4H55.9c-2.4,0-4.7-0.5-6.9-1.4c-2.1-0.9-4-2.2-5.6-3.8c-1.6-1.6-2.9-3.5-3.8-5.6
			c-0.9-2.2-1.4-4.5-1.4-6.9v-1.5l0.2-7.9h59.7l0,0l0,0h19.7l0.2,7.9v1.5H118.1z"/>
	</g>
</g>
</svg>
