<?xml version="1.0" encoding="utf-8"?>
<!-- Generator: Adobe Illustrator 17.1.0, SVG Export Plug-In . SVG Version: 6.00 Build 0)  -->
<!DOCTYPE svg PUBLIC "-//W3C//DTD SVG 1.1//EN" "http://www.w3.org/Graphics/SVG/1.1/DTD/svg11.dtd">
<svg version="1.1" id="Camada_1" xmlns="http://www.w3.org/2000/svg" xmlns:xlink="http://www.w3.org/1999/xlink" x="0px" y="0px"
	 width="160px" height="160px" viewBox="0 0 160 160" enable-background="new 0 0 160 160" xml:space="preserve">
<circle fill="#DEB0F4" cx="79.9" cy="79.9" r="76.8"/>
<g>
	<defs>
		<rect id="SVGID_1_" x="46.8" y="59.5" width="3.9" height="50.1"/>
	</defs>
	<use xlink:href="#SVGID_1_"  overflow="visible" fill-rule="evenodd" clip-rule="evenodd" fill="#FFFFFF"/>
	<clipPath id="SVGID_2_">
		<use xlink:href="#SVGID_1_"  overflow="visible"/>
	</clipPath>
	<rect x="37.1" y="49.8" clip-path="url(#SVGID_2_)" fill="#FFFFFF" width="23.3" height="69.5"/>
</g>
<g>
	<defs>
		<path id="SVGID_3_" d="M48.7,51.7c-1.6,0-2.9,1.4-2.9,2.9s1.4,2.9,2.9,2.9s2.9-1.4,2.9-2.9S50.3,51.7,48.7,51.7z M48.7,61.4
			c-3.7,0-6.8-3.1-6.8-6.8c0-3.7,3.1-6.8,6.8-6.8c3.7,0,6.8,3.1,6.8,6.8C55.5,58.3,52.4,61.4,48.7,61.4z"/>
	</defs>
	<use xlink:href="#SVGID_3_"  overflow="visible" fill-rule="evenodd" clip-rule="evenodd" fill="#FFFFFF"/>
	<clipPath id="SVGID_4_">
		<use xlink:href="#SVGID_3_"  overflow="visible"/>
	</clipPath>
	<rect x="32.2" y="38.1" clip-path="url(#SVGID_4_)" fill="#FFFFFF" width="33" height="33"/>
</g>
<g>
	<defs>
		<rect id="SVGID_5_" x="108.5" y="59.5" width="3.9" height="50.1"/>
	</defs>
	<use xlink:href="#SVGID_5_"  overflow="visible" fill-rule="evenodd" clip-rule="evenodd" fill="#FFFFFF"/>
	<clipPath id="SVGID_6_">
		<use xlink:href="#SVGID_5_"  overflow="visible"/>
	</clipPath>
	<rect x="98.8" y="49.8" clip-path="url(#SVGID_6_)" fill="#FFFFFF" width="23.3" height="69.5"/>
</g>
<g>
	<defs>
		<path id="SVGID_7_" d="M110.5,51.7c-1.6,0-2.9,1.4-2.9,2.9s1.4,2.9,2.9,2.9s2.9-1.4,2.9-2.9S112,51.7,110.5,51.7z M110.5,61.4
			c-3.7,0-6.8-3.1-6.8-6.8c0-3.7,3.1-6.8,6.8-6.8c3.7,0,6.8,3.1,6.8,6.8C117.3,58.3,114.2,61.4,110.5,61.4z"/>
	</defs>
	<use xlink:href="#SVGID_7_"  overflow="visible" fill-rule="evenodd" clip-rule="evenodd" fill="#FFFFFF"/>
	<clipPath id="SVGID_8_">
		<use xlink:href="#SVGID_7_"  overflow="visible"/>
	</clipPath>
	<rect x="94" y="38.1" clip-path="url(#SVGID_8_)" fill="#FFFFFF" width="33" height="33"/>
</g>
<g>
	<defs>
		<path id="SVGID_9_" d="M50.6,96h57.9V73.1H50.6V96z M112.4,99.9H46.8V69.2h65.6V99.9z"/>
	</defs>
	<use xlink:href="#SVGID_9_"  overflow="visible" fill-rule="evenodd" clip-rule="evenodd" fill="#FFFFFF"/>
	<clipPath id="SVGID_10_">
		<use xlink:href="#SVGID_9_"  overflow="visible"/>
	</clipPath>
	<rect x="37.1" y="59.5" clip-path="url(#SVGID_10_)" fill="#FFFFFF" width="85.1" height="50.1"/>
</g>
<g>
	<defs>
		<path id="SVGID_11_" d="M95.1,90.3c-3.3,0-5.8-2.5-5.8-5.8c0-3.3,2.5-5.8,5.8-5.8v3.9c-1.2,0-1.9,0.8-1.9,1.9
			c0,1.2,0.8,1.9,1.9,1.9V90.3z"/>
	</defs>
	<use xlink:href="#SVGID_11_"  overflow="visible" fill-rule="evenodd" clip-rule="evenodd" fill="#FFFFFF"/>
	<clipPath id="SVGID_12_">
		<use xlink:href="#SVGID_11_"  overflow="visible"/>
	</clipPath>
	<rect x="79.6" y="69" clip-path="url(#SVGID_12_)" fill="#FFFFFF" width="25.2" height="31.1"/>
</g>
<g>
	<defs>
		<path id="SVGID_13_" d="M95.1,90.3v-3.9c1.2,0,1.9-0.8,1.9-1.9c0-1.2-0.8-1.9-1.9-1.9v-3.9c3.3,0,5.8,2.5,5.8,5.8
			C100.9,87.8,98.2,90.3,95.1,90.3z"/>
	</defs>
	<use xlink:href="#SVGID_13_"  overflow="visible" fill-rule="evenodd" clip-rule="evenodd" fill="#FFFFFF"/>
	<clipPath id="SVGID_14_">
		<use xlink:href="#SVGID_13_"  overflow="visible"/>
	</clipPath>
	<rect x="85.4" y="69" clip-path="url(#SVGID_14_)" fill="#FFFFFF" width="25.2" height="31.1"/>
</g>
<g>
	<defs>
		<path id="SVGID_15_" d="M79.6,90.3v-3.9c1.2,0,1.9-0.8,1.9-1.9c0-1.2-0.8-1.9-1.9-1.9v-3.9c3.3,0,5.8,2.5,5.8,5.8
			C85.4,87.8,82.9,90.3,79.6,90.3z"/>
	</defs>
	<use xlink:href="#SVGID_15_"  overflow="visible" fill-rule="evenodd" clip-rule="evenodd" fill="#FFFFFF"/>
	<clipPath id="SVGID_16_">
		<use xlink:href="#SVGID_15_"  overflow="visible"/>
	</clipPath>
	<rect x="69.9" y="69" clip-path="url(#SVGID_16_)" fill="#FFFFFF" width="25.2" height="31.1"/>
</g>
<g>
	<defs>
		<path id="SVGID_17_" d="M79.6,90.3c-3.3,0-5.8-2.5-5.8-5.8c0-3.3,2.5-5.8,5.8-5.8v3.9c-1.2,0-1.9,0.8-1.9,1.9
			c0,1.2,0.8,1.9,1.9,1.9V90.3z"/>
	</defs>
	<use xlink:href="#SVGID_17_"  overflow="visible" fill-rule="evenodd" clip-rule="evenodd" fill="#FFFFFF"/>
	<clipPath id="SVGID_18_">
		<use xlink:href="#SVGID_17_"  overflow="visible"/>
	</clipPath>
	<rect x="64" y="69" clip-path="url(#SVGID_18_)" fill="#FFFFFF" width="25.2" height="31.1"/>
</g>
<g>
	<defs>
		<path id="SVGID_19_" d="M64,90.3v-3.9c1.2,0,1.9-0.8,1.9-1.9c0-1.2-0.8-1.9-1.9-1.9v-3.9c3.3,0,5.8,2.5,5.8,5.8
			C69.9,87.8,67.4,90.3,64,90.3z"/>
	</defs>
	<use xlink:href="#SVGID_19_"  overflow="visible" fill-rule="evenodd" clip-rule="evenodd" fill="#FFFFFF"/>
	<clipPath id="SVGID_20_">
		<use xlink:href="#SVGID_19_"  overflow="visible"/>
	</clipPath>
	<rect x="54.3" y="69" clip-path="url(#SVGID_20_)" fill="#FFFFFF" width="25.2" height="31.1"/>
</g>
<g>
	<defs>
		<path id="SVGID_21_" d="M64,90.3c-3.3,0-5.8-2.5-5.8-5.8c0-3.3,2.5-5.8,5.8-5.8v3.9c-1.2,0-1.9,0.8-1.9,1.9c0,1.2,0.8,1.9,1.9,1.9
			V90.3z"/>
	</defs>
	<use xlink:href="#SVGID_21_"  overflow="visible" fill-rule="evenodd" clip-rule="evenodd" fill="#FFFFFF"/>
	<clipPath id="SVGID_22_">
		<use xlink:href="#SVGID_21_"  overflow="visible"/>
	</clipPath>
	<rect x="48.5" y="69" clip-path="url(#SVGID_22_)" fill="#FFFFFF" width="25.2" height="31.1"/>
</g>
<g>
	<defs>
		<rect id="SVGID_23_" x="93.2" y="71.1" width="3.9" height="10.1"/>
	</defs>
	<use xlink:href="#SVGID_23_"  overflow="visible" fill-rule="evenodd" clip-rule="evenodd" fill="#FFFFFF"/>
	<clipPath id="SVGID_24_">
		<use xlink:href="#SVGID_23_"  overflow="visible"/>
	</clipPath>
	<rect x="83.5" y="61.4" clip-path="url(#SVGID_24_)" fill="#FFFFFF" width="23.3" height="29.5"/>
</g>
<g>
	<defs>
		<rect id="SVGID_25_" x="93.2" y="87.8" width="3.9" height="10.1"/>
	</defs>
	<use xlink:href="#SVGID_25_"  overflow="visible" fill-rule="evenodd" clip-rule="evenodd" fill="#FFFFFF"/>
	<clipPath id="SVGID_26_">
		<use xlink:href="#SVGID_25_"  overflow="visible"/>
	</clipPath>
	<rect x="83.5" y="78.1" clip-path="url(#SVGID_26_)" fill="#FFFFFF" width="23.3" height="29.5"/>
</g>
<g>
	<defs>
		<rect id="SVGID_27_" x="77.6" y="71.1" width="3.9" height="10.1"/>
	</defs>
	<use xlink:href="#SVGID_27_"  overflow="visible" fill-rule="evenodd" clip-rule="evenodd" fill="#FFFFFF"/>
	<clipPath id="SVGID_28_">
		<use xlink:href="#SVGID_27_"  overflow="visible"/>
	</clipPath>
	<rect x="67.9" y="61.4" clip-path="url(#SVGID_28_)" fill="#FFFFFF" width="23.3" height="29.5"/>
</g>
<g>
	<defs>
		<rect id="SVGID_29_" x="77.6" y="87.8" width="3.9" height="10.1"/>
	</defs>
	<use xlink:href="#SVGID_29_"  overflow="visible" fill-rule="evenodd" clip-rule="evenodd" fill="#FFFFFF"/>
	<clipPath id="SVGID_30_">
		<use xlink:href="#SVGID_29_"  overflow="visible"/>
	</clipPath>
	<rect x="67.9" y="78.1" clip-path="url(#SVGID_30_)" fill="#FFFFFF" width="23.3" height="29.5"/>
</g>
<g>
	<defs>
		<rect id="SVGID_31_" x="62.1" y="71.1" width="3.9" height="10.1"/>
	</defs>
	<use xlink:href="#SVGID_31_"  overflow="visible" fill-rule="evenodd" clip-rule="evenodd" fill="#FFFFFF"/>
	<clipPath id="SVGID_32_">
		<use xlink:href="#SVGID_31_"  overflow="visible"/>
	</clipPath>
	<rect x="52.4" y="61.4" clip-path="url(#SVGID_32_)" fill="#FFFFFF" width="23.3" height="29.5"/>
</g>
<g>
	<defs>
		<rect id="SVGID_33_" x="62.1" y="87.8" width="3.9" height="10.1"/>
	</defs>
	<use xlink:href="#SVGID_33_"  overflow="visible" fill-rule="evenodd" clip-rule="evenodd" fill="#FFFFFF"/>
	<clipPath id="SVGID_34_">
		<use xlink:href="#SVGID_33_"  overflow="visible"/>
	</clipPath>
	<rect x="52.4" y="78.1" clip-path="url(#SVGID_34_)" fill="#FFFFFF" width="23.3" height="29.5"/>
</g>
<g>
	<defs>
		<path id="SVGID_35_" d="M79.6,115.4c-16.1,0-32.4-3.5-44.7-10.7l1.9-3.3c23.5,13.6,62,13.6,85.4,0l1.9,3.3
			C112,111.9,95.7,115.4,79.6,115.4z"/>
	</defs>
	<use xlink:href="#SVGID_35_"  overflow="visible" fill-rule="evenodd" clip-rule="evenodd" fill="#FFFFFF"/>
	<clipPath id="SVGID_36_">
		<use xlink:href="#SVGID_35_"  overflow="visible"/>
	</clipPath>
	<rect x="25.2" y="91.7" clip-path="url(#SVGID_36_)" fill="#FFFFFF" width="108.8" height="33.4"/>
</g>
</svg>
