<?xml version="1.0" encoding="UTF-8" standalone="no"?>
<svg width="126px" height="126px" viewBox="0 0 126 126" version="1.1" xmlns="http://www.w3.org/2000/svg" xmlns:xlink="http://www.w3.org/1999/xlink" xmlns:sketch="http://www.bohemiancoding.com/sketch/ns">
    <!-- Generator: Sketch 3.3.2 (12043) - http://www.bohemiancoding.com/sketch -->
    <title>icon-roupas copy 2</title>
    <desc>Created with Sketch.</desc>
    <defs></defs>
    <g id="App-(Flow)" stroke="none" stroke-width="1" fill="none" fill-rule="evenodd" sketch:type="MSPage">
        <g id="New-Product---02" sketch:type="MSArtboardGroup" transform="translate(-456.000000, -721.000000)">
            <g id="icon-roupas-copy-2" sketch:type="MSLayerGroup" transform="translate(458.000000, 723.000000)">
                <ellipse id="Oval" stroke="#F7D277" stroke-width="3" sketch:type="MSShapeGroup" cx="60.9207792" cy="60.9207792" rx="60.8415584" ry="60.8415584"></ellipse>
                <path d="M62.1883117,96.4116883 C58.2272727,96.4116883 55.612987,94.9064935 55.612987,92.6883117 C55.612987,87.6181818 51.0181818,82.0727273 43.5714286,82.0727273 C42.7792208,82.0727273 42.1454545,81.438961 42.1454545,80.6467532 L42.1454545,53.5532468 L38.025974,53.8701299 C37.6298701,53.8701299 37.1545455,53.7116883 36.8376623,53.3948052 L30.8168831,46.661039 C30.3415584,46.1857143 30.3415584,45.3935065 30.7376623,44.838961 C31.1337662,44.3636364 40.0064935,33.0350649 51.8103896,30.3415584 C52.5233766,30.1831169 53.3155844,30.6584416 53.474026,31.3714286 C54.2662338,34.5402597 57.4350649,43.4922078 61.7922078,43.4922078 C66.3077922,43.4922078 69.8727273,34.461039 70.7441558,31.3714286 C70.9818182,30.6584416 71.6948052,30.1831169 72.4077922,30.4207792 C84.2116883,33.1935065 93.1636364,44.3636364 93.5597403,44.838961 C93.9558442,45.3935065 93.9558442,46.1857143 93.4805195,46.661039 L87.0636364,53.474026 C86.7467532,53.7909091 86.3506494,53.9493506 85.9545455,53.9493506 L81.438961,53.6324675 L81.438961,80.8051948 C81.438961,81.5974026 80.8051948,82.2311688 80.012987,82.2311688 C75.0220779,82.2311688 68.6051948,88.1727273 68.6051948,92.8467532 C68.6844156,94.9857143 66.1493506,96.4116883 62.1883117,96.4116883 L62.1883117,96.4116883 L62.1883117,96.4116883 Z M44.9181818,79.3792208 C53.2363636,80.012987 58.3857143,86.5883117 58.3857143,92.6883117 C58.4649351,92.925974 59.8116883,93.638961 62.1090909,93.638961 C64.4064935,93.638961 65.7532468,92.925974 65.8324675,92.6883117 C65.8324675,86.9051948 72.3285714,80.3298701 78.587013,79.3792208 L78.587013,52.0480519 C78.587013,51.6519481 78.7454545,51.2558442 79.0623377,51.0181818 C79.3792208,50.7805195 79.6961039,50.6220779 80.0922078,50.6220779 L85.4,51.0181818 L90.4701299,45.6311688 C88.2519481,43.0961039 81.3597403,35.9662338 72.9623377,33.4311688 C71.6948052,37.0753247 67.9714286,46.2649351 61.7922078,46.2649351 C55.5337662,46.2649351 52.1272727,37.0753247 51.0181818,33.4311688 C42.6207792,35.9662338 35.7285714,43.1753247 33.5896104,45.7103896 L38.3428571,51.0181818 L43.3337662,50.6220779 C43.7298701,50.6220779 44.125974,50.7012987 44.3636364,51.0181818 C44.6805195,51.2558442 44.838961,51.6519481 44.838961,52.0480519 L44.9181818,79.3792208 L44.9181818,79.3792208 Z" id="Shape" fill="#F7D277" sketch:type="MSShapeGroup"></path>
                <path d="M62.0298701,71.8532468 C61.8714286,71.8532468 61.712987,71.8532468 61.4753247,71.774026 C55.0584416,69.238961 50.225974,61.4753247 51.9688312,56.4844156 C52.761039,54.2662338 54.5831169,52.8402597 56.8805195,52.8402597 C58.7818182,52.8402597 60.6038961,53.7909091 62.0298701,55.5337662 C63.4558442,53.7909091 65.2779221,52.8402597 67.1792208,52.8402597 C69.3974026,52.8402597 71.2987013,54.2662338 72.0909091,56.4844156 C73.8337662,61.4753247 69.0012987,69.238961 62.5844156,71.774026 C62.425974,71.774026 62.2675325,71.8532468 62.0298701,71.8532468 L62.0298701,71.8532468 Z M56.8805195,55.612987 C55.8506494,55.612987 55.0584416,56.2467532 54.6623377,57.3558442 C53.5532468,60.5246753 56.9597403,66.5454545 62.0298701,68.9220779 C67.1792208,66.5454545 70.5064935,60.5246753 69.3974026,57.3558442 C69.0012987,56.2467532 68.2090909,55.612987 67.1792208,55.612987 C66.0701299,55.612987 64.4064935,56.4051948 63.2974026,58.7025974 C62.8220779,59.6532468 61.2376623,59.6532468 60.7623377,58.7025974 C59.6532468,56.4051948 58.0688312,55.612987 56.8805195,55.612987 L56.8805195,55.612987 Z" id="Shape" fill="#F7D277" sketch:type="MSShapeGroup"></path>
            </g>
        </g>
    </g>
</svg>