<?xml version="1.0" encoding="UTF-8" standalone="no"?>
<svg width="28px" height="20px" viewBox="0 0 28 20" version="1.1" xmlns="http://www.w3.org/2000/svg" xmlns:xlink="http://www.w3.org/1999/xlink" xmlns:sketch="http://www.bohemiancoding.com/sketch/ns">
    <!-- Generator: Sketch 3.3.2 (12043) - http://www.bohemiancoding.com/sketch -->
    <title>noun_86300_cc</title>
    <desc>Created with Sketch.</desc>
    <defs></defs>
    <g id="App-(Flow)" stroke="none" stroke-width="1" fill="none" fill-rule="evenodd" sketch:type="MSPage">
        <g id="Product" sketch:type="MSArtboardGroup" transform="translate(-21.000000, -873.000000)" fill="#C6C6C8">
            <g id="Group" sketch:type="MSLayerGroup" transform="translate(20.000000, 819.000000)">
                <g id="noun_86300_cc" transform="translate(1.000000, 53.937941)" sketch:type="MSShapeGroup">
                    <path d="M8.65305,19.9448276 C8.49625,19.9448276 8.33945,19.8858621 8.2201,19.767931 L0.4004,12.0637931 C0.2856,11.9506897 0.22085,11.7972414 0.22085,11.6372414 C0.22085,11.4772414 0.2856,11.3237931 0.4004,11.2106897 L11.51255,0.263793103 C11.62665,0.151034483 11.7817,0.0875862069 11.94305,0.0868965517 L19.7946,0.0551724138 L19.79705,0.0551724138 C19.95945,0.0551724138 20.1152,0.11862069 20.23,0.232068966 C20.3455,0.345862069 20.41025,0.500344828 20.40955,0.66137931 L20.37735,8.39655172 C20.37665,8.55551724 20.3119,8.70827586 20.1978,8.82068966 L9.086,19.767931 C8.96665,19.8858621 8.80985,19.9448276 8.65305,19.9448276 L8.65305,19.9448276 Z M1.6996,11.6372414 L8.65305,18.487931 L19.15305,8.14275862 L19.18175,1.26448276 L12.19995,1.29275862 L1.6996,11.6372414 L1.6996,11.6372414 Z" id="Shape"></path>
                    <path d="M15.33245,6.76137931 C14.87045,6.76137931 14.43575,6.5837931 14.1092,6.26172414 C13.4351,5.59724138 13.43545,4.5162069 14.1099,3.85206897 C14.43645,3.53034483 14.8708,3.35310345 15.3328,3.35310345 C15.79445,3.35310345 16.22915,3.53034483 16.55535,3.85241379 C17.2291,4.51655172 17.2291,5.59758621 16.555,6.26206897 C16.2288,6.58413793 15.79445,6.76137931 15.33245,6.76137931 L15.33245,6.76137931 Z M15.33315,4.04310345 C15.05805,4.04310345 14.79975,4.14862069 14.60515,4.34 C14.2037,4.73551724 14.20335,5.37896552 14.60445,5.77448276 C14.9933,6.15793103 15.67195,6.15793103 16.0601,5.77448276 C16.46155,5.37896552 16.46155,4.73517241 16.06045,4.33965517 C15.8662,4.14827586 15.6079,4.04310345 15.33315,4.04310345 L15.33315,4.04310345 Z" id="Shape"></path>
                    <path d="M8.84905,15.9534483 C8.75945,15.9534483 8.66985,15.9196552 8.6016,15.8524138 L5.8471,13.1389655 C5.71025,13.0041379 5.71025,12.7862069 5.8471,12.6513793 C5.98395,12.5165517 6.20515,12.5165517 6.342,12.6513793 L8.84905,15.1210345 L11.37465,12.6324138 C11.5115,12.4975862 11.7327,12.4975862 11.86955,12.6324138 C12.0064,12.7672414 12.0064,12.9851724 11.86955,13.12 L9.0965,15.8524138 C9.02825,15.9196552 8.93865,15.9534483 8.84905,15.9534483 L8.84905,15.9534483 Z" id="Shape"></path>
                    <path d="M26.7722,7.40551724 C25.60215,7.40551724 24.5287,6.58275862 23.4857,5.78344828 C23.0139,5.42206897 22.52635,5.04827586 22.0612,4.78068966 C19.4712,3.29 16.34885,5.51965517 16.3177,5.54241379 C16.0454,5.74 15.6625,5.6837931 15.46125,5.4162069 C15.26035,5.14896552 15.3167,4.77172414 15.5876,4.57310345 C15.7409,4.46103448 19.38405,1.84172414 22.6793,3.73827586 C23.21445,4.04655172 23.73525,4.44517241 24.2382,4.83068966 C25.25635,5.61137931 26.2192,6.34965517 27.03365,6.17 C27.363,6.09827586 27.6913,6.30275862 27.76445,6.62827586 C27.83795,6.9537931 27.6297,7.27586207 27.29965,7.34827586 C27.1215,7.38724138 26.9458,7.40551724 26.7722,7.40551724 L26.7722,7.40551724 Z" id="Shape"></path>
                </g>
            </g>
        </g>
    </g>
</svg>