<?xml version="1.0" encoding="utf-8"?>
<!-- Generator: Adobe Illustrator 17.1.0, SVG Export Plug-In . SVG Version: 6.00 Build 0)  -->
<!DOCTYPE svg PUBLIC "-//W3C//DTD SVG 1.1//EN" "http://www.w3.org/Graphics/SVG/1.1/DTD/svg11.dtd">
<svg version="1.1" id="Camada_1" xmlns="http://www.w3.org/2000/svg" xmlns:xlink="http://www.w3.org/1999/xlink" x="0px" y="0px"
	 width="124.5px" height="122.9px" viewBox="0 0 124.5 122.9" enable-background="new 0 0 124.5 122.9" xml:space="preserve">
<g>
	<defs>
		<rect id="SVGID_1_" x="-385.6" y="-557" width="684.1" height="1216.7"/>
	</defs>
	<clipPath id="SVGID_2_">
		<use xlink:href="#SVGID_1_"  overflow="visible"/>
	</clipPath>
	<g clip-path="url(#SVGID_2_)">
		<defs>
			<path id="SVGID_3_" d="M-43.5,605.1c3.2,0,5.9,2.6,5.9,5.8c0,3.2-2.6,5.8-5.9,5.8c-3.2,0-5.9-2.6-5.9-5.8
				C-49.4,607.7-46.8,605.1-43.5,605.1z M-21.3,599.3h-14.5c-2.2-1.5-4.9-2.3-7.8-2.3c-2.9,0-5.5,0.9-7.8,2.3h-14.5v-7
				c0-4.5,3.7-8.2,8.2-8.2h28.1c4.5,0,8.2,3.7,8.2,8.2V599.3z M-43.5,599.3c6.5,0,11.7,5.2,11.7,11.7c0,6.4-5.3,11.7-11.7,11.7
				s-11.7-5.2-11.7-11.7C-55.3,604.5-50,599.3-43.5,599.3z M-21.3,619.1c0,4.5-3.7,8.2-8.2,8.2h-28.1c-4.5,0-8.2-3.7-8.2-8.2v-17.5
				H-54c-2.2,2.5-3.6,5.8-3.6,9.3c0,7.7,6.3,14,14.1,14s14.1-6.3,14.1-14c0-3.6-1.4-6.9-3.6-9.3h11.8V619.1z M-29.5,581.8h-28.1
				c-5.8,0-10.6,4.7-10.6,10.5v26.9c0,5.8,4.7,10.5,10.6,10.5h28.1c5.8,0,10.6-4.7,10.6-10.5v-26.9
				C-18.9,586.5-23.7,581.8-29.5,581.8z M-26.5,595.1c0,0.2-0.1,0.3-0.3,0.3h-4.5c-0.2,0-0.3-0.1-0.3-0.3v-4.5
				c0-0.2,0.2-0.3,0.3-0.3h4.5c0.2,0,0.3,0.1,0.3,0.3V595.1z M-26.9,588h-4.5c-1.5,0-2.7,1.2-2.7,2.7v4.5c0,1.5,1.2,2.7,2.7,2.7h4.5
				c1.5,0,2.7-1.2,2.7-2.7v-4.5C-24.2,589.2-25.4,588-26.9,588z"/>
		</defs>
		<clipPath id="SVGID_4_">
			<use xlink:href="#SVGID_3_"  overflow="visible"/>
		</clipPath>
		<rect x="-72.7" y="577.2" clip-path="url(#SVGID_4_)" fill="#FFFFFF" width="58.4" height="57"/>
	</g>
</g>
<g>
	<defs>
		<rect id="SVGID_5_" x="-317.6" y="-233.1" width="750" height="1334"/>
	</defs>
	<clipPath id="SVGID_6_">
		<use xlink:href="#SVGID_5_"  overflow="visible"/>
	</clipPath>
	<g clip-path="url(#SVGID_6_)">
		<defs>
			<path id="SVGID_7_" d="M55.4,93.4c-8.4,0-15-6.7-15-15.2s6.6-15.1,15-15.1s15,6.7,15,15.1S63.8,93.4,55.4,93.4z M44.6,39.8
				l-6.7,7.9h-12c-4.1,0-7.5,3.6-7.5,7.9V103c0,4.3,3.4,7.9,7.5,7.9h59.8c4.1,0,7.5-3.6,7.5-7.9V55.6c0-4.3-3.4-7.9-7.5-7.9h-12
				L67,39.8H44.6z"/>
		</defs>
		<clipPath id="SVGID_8_">
			<use xlink:href="#SVGID_7_"  overflow="visible"/>
		</clipPath>
		<path clip-path="url(#SVGID_8_)" fill="none" stroke="#8C749E" stroke-width="4" stroke-miterlimit="10" d="M55.4,93.4
			c-8.4,0-15-6.7-15-15.2s6.6-15.1,15-15.1s15,6.7,15,15.1S63.8,93.4,55.4,93.4z M44.6,39.8l-6.7,7.9h-12c-4.1,0-7.5,3.6-7.5,7.9
			V103c0,4.3,3.4,7.9,7.5,7.9h59.8c4.1,0,7.5-3.6,7.5-7.9V55.6c0-4.3-3.4-7.9-7.5-7.9h-12L67,39.8H44.6z"/>
	</g>
</g>
<g>
	<defs>
		<rect id="SVGID_9_" x="-319.6" y="-230.1" width="750" height="1334"/>
	</defs>
	<clipPath id="SVGID_10_">
		<use xlink:href="#SVGID_9_"  overflow="visible"/>
	</clipPath>
	
		<line clip-path="url(#SVGID_10_)" fill="none" stroke="#8C749E" stroke-width="2" stroke-linecap="square" stroke-miterlimit="10" x1="87.4" y1="27" x2="115.4" y2="27"/>
	
		<line clip-path="url(#SVGID_10_)" fill="none" stroke="#8C749E" stroke-width="2" stroke-linecap="square" stroke-miterlimit="10" x1="101.4" y1="12.9" x2="101.4" y2="41.2"/>
</g>
</svg>
