<?xml version="1.0" encoding="UTF-8" standalone="no"?>
<svg width="123px" height="123px" viewBox="0 0 123 123" version="1.1" xmlns="http://www.w3.org/2000/svg" xmlns:xlink="http://www.w3.org/1999/xlink" xmlns:sketch="http://www.bohemiancoding.com/sketch/ns">
    <!-- Generator: Sketch 3.3.2 (12043) - http://www.bohemiancoding.com/sketch -->
    <title>Shape + Oval</title>
    <desc>Created with Sketch.</desc>
    <defs></defs>
    <g id="App-(Flow)" stroke="none" stroke-width="1" fill="none" fill-rule="evenodd" sketch:type="MSPage">
        <g id="New-Product---02" sketch:type="MSArtboardGroup" transform="translate(-265.000000, -722.000000)" stroke="#F7D277">
            <g id="Shape-+-Oval" sketch:type="MSLayerGroup" transform="translate(267.000000, 724.000000)">
                <path d="M48.7506372,22.2872628 C35.3538658,22.2872628 24.5,34.0714599 24.5,48.4605848 C24.5,55.7171694 27.1669499,63.9661073 31.5084962,70.4784268 C34.9817332,75.7503044 39.63339,79.9678066 44.9052676,81.3322926 L44.2850467,83.5030657 C44.1610025,83.9372203 44.3470688,84.4954191 44.6571793,84.8065633 C44.9672897,85.1166737 45.3394223,85.2407179 45.7735769,85.2407179 L47.7582838,85.2407179 L47.7582838,92.6213466 C47.7582838,93.7377443 49.4328802,93.7377443 49.4328802,92.6213466 L49.4328802,85.2396842 L51.7276975,85.2396842 C52.1618522,85.2396842 52.5339847,85.11564 52.8440952,84.8055296 C53.1542056,84.4943854 53.2782498,83.9361866 53.1542056,83.502032 L52.5960068,81.3312589 C53.6503823,81.0831705 54.7667799,80.6490159 55.8211555,80.090817 L53.1542056,85.6728052 C53.0921835,85.7968493 53.0921835,85.9198598 53.0921835,86.043904 C53.0921835,87.657512 53.7744265,89.1450085 54.9528462,90.4485061 C56.1312659,91.75097 57.8058624,92.8043118 59.7905692,93.7356769 C63.8220051,95.5963396 69.279949,96.7127372 75.2960918,96.7127372 C76.9096998,96.7127372 78.5202067,96.6507151 80.070759,96.4646488 C80.1958369,96.4646488 80.3819031,96.4646488 80.5049136,96.4026267 C84.413339,95.9684721 87.9485981,95.0381408 90.7385585,93.7356769 C92.2891107,93.0534339 93.5915746,92.2471467 94.6469839,91.3788374 C94.7699943,91.3168153 94.8330501,91.2547933 94.8930048,91.1307491 C95.1410932,90.9446828 95.3891815,90.6965944 95.6383036,90.4495398 C96.817757,89.1460422 97.5,87.6585457 97.5,86.0449377 C97.5,85.9208935 97.5,85.797883 97.4369442,85.6738389 L78.0860521,45.111392 C79.388516,44.1810606 80.2588927,42.6925304 80.2588927,41.017934 C80.2588927,38.2889621 78.0260974,36.1181889 75.2960918,36.1181889 C73.5594732,36.1181889 72.008921,36.9864982 71.1406117,38.4130062 C67.4813084,28.9856485 58.8602379,22.2872628 48.7506372,22.2872628 L48.7506372,22.2872628 L48.7506372,22.2872628 Z M48.7506372,23.9618592 C58.92226,23.9618592 67.5433305,31.2184438 70.3332909,41.3280445 C70.3963466,41.9482654 70.5214245,42.5064642 70.7674455,43.064663 C71.0785896,44.4911711 71.2636222,45.9797012 71.326678,47.5302535 L57.0615973,77.4249009 C55.3249788,78.6653427 53.402294,79.5336519 51.4796092,79.9057845 L51.4796092,79.9057845 L51.355565,79.9057845 C50.4872557,80.0918508 49.6189465,80.2158949 48.7506372,80.2158949 C48.3164826,80.2158949 47.882328,80.2158949 47.4481733,80.1538728 L47.3861512,80.1538728 C46.9519966,80.090817 46.517842,80.0298287 46.1457094,79.9667729 L46.1457094,79.9047508 C41.059898,78.9123973 36.4082413,74.8809615 32.8729822,69.546028 C28.7175021,63.2817969 26.1745964,55.2809473 26.1745964,48.4585174 C26.1745964,34.8777471 36.2841971,23.9618592 48.7506372,23.9618592 L48.7506372,23.9618592 L48.7506372,23.9618592 Z M75.2960918,37.7307632 C77.0947324,37.7307632 78.5832625,39.2192934 78.5832625,41.017934 C78.5832625,42.8785967 77.0957661,44.3671269 75.2960918,44.3671269 C73.4343954,44.3671269 72.008921,42.8785967 72.008921,41.017934 C72.008921,39.2192934 73.4343954,37.7307632 75.2960918,37.7307632 L75.2960918,37.7307632 L75.2960918,37.7307632 Z M73.5594732,40.2116468 C73.0632965,40.2116468 72.7521524,40.5837794 72.7521524,41.017934 C72.7521524,42.4444421 73.86855,43.6228618 75.2960918,43.6228618 C76.4124894,43.6228618 76.4124894,41.9482654 75.2960918,41.9482654 C74.799915,41.9482654 74.3657604,41.5761328 74.3657604,41.017934 C74.3657604,40.5837794 73.9936279,40.2116468 73.5594732,40.2116468 L73.5594732,40.2116468 L73.5594732,40.2116468 Z M32.2527613,45.0493699 C31.8806287,45.111392 31.5705183,45.3594803 31.5084962,45.7316129 C29.8338997,53.9185287 31.9426508,61.2371354 36.1601529,67.8114769 C36.7803738,68.7418083 38.1448598,67.873499 37.5246389,66.9431677 C33.4932031,60.5538587 31.5705183,53.7944846 33.1210705,46.1037454 C33.1830926,45.5455466 32.8109601,45.0493699 32.2527613,45.0493699 L32.2527613,45.0493699 L32.2527613,45.0493699 Z M73.9936279,45.7936349 C74.3647267,45.9176791 74.8619371,45.9797012 75.2960918,45.9797012 C75.7302464,45.9797012 76.164401,45.9176791 76.5985556,45.7936349 L79.0174172,50.8794463 L78.5212404,50.6933801 C78.39823,50.631358 78.2752195,50.631358 78.2121637,50.631358 C77.6529312,50.631358 77.2818323,51.1275347 77.4048428,51.6237114 L78.0870858,55.3450368 L75.6682243,58.3220971 C75.2340697,58.8182739 75.5452138,59.5625389 76.2274568,59.624561 L79.9487822,60.1207378 L81.9955112,63.3458864 C82.3045879,63.9040852 83.1119088,63.8420632 83.4209856,63.2838643 L84.1652506,61.67129 L95.8243699,86.1700156 C95.8243699,87.2254248 95.3292268,88.2787666 94.4598839,89.2711201 C92.9723874,86.7902365 90.3054376,85.2396842 87.3294109,85.2396842 C82.8007647,85.2396842 79.080473,88.9610096 79.080473,93.5506443 C79.080473,93.9847989 79.080473,94.4189536 79.1435287,94.9140966 C77.9020532,94.9771524 76.5995894,95.0381408 75.2971255,95.0381408 C69.4660153,95.0381408 64.2571934,93.9837652 60.535868,92.2471467 C58.6131832,91.3788374 57.1866752,90.386484 56.1943217,89.3331422 C55.2639904,88.2777329 54.7678137,87.2243911 54.7678137,86.1689819 L65.0004248,64.6483503 C65.993812,65.3926154 67.2332201,65.8877584 68.4746956,65.8877584 L68.4746956,65.8877584 C71.5127443,65.8877584 73.9946616,63.4079085 73.9946616,60.3677924 C73.9946616,57.7628646 72.1329652,55.4680473 69.5910932,54.9718706 L73.9936279,45.7936349 L73.9936279,45.7936349 Z M79.2655055,52.8021311 L79.9477485,53.0502195 C80.0108043,53.0502195 80.0108043,53.0502195 80.070759,53.1122416 L83.2349193,59.7486052 L83.2349193,59.8106273 L82.5526763,61.1751133 L81.1272019,58.942318 C81.002124,58.6942297 80.8160578,58.5701855 80.5679694,58.5701855 L77.9010195,58.198053 L79.6376381,56.0893019 C79.7627159,55.9032356 79.8257717,55.6551473 79.7627159,55.4070589 L79.2655055,52.8021311 L79.2655055,52.8021311 Z M68.8457944,56.5234565 L68.9708723,56.5234565 C70.8925234,56.7715449 72.3179977,58.3841192 72.3179977,60.3688261 C72.3179977,62.4775772 70.644435,64.2141957 68.4736619,64.2141957 C67.4802747,64.2141957 66.5499434,63.8430969 65.806712,63.0988318 C65.806712,63.0988318 65.7436562,63.0988318 65.7436562,63.035776 L68.8457944,56.5234565 L68.8457944,56.5234565 Z M82.6146984,69.0519187 C79.6996602,69.0519187 77.3428207,71.4077244 77.3428207,74.3237964 C77.3428207,77.2398683 79.6986265,79.5967077 82.6146984,79.5967077 C85.5307703,79.5967077 87.886576,77.2398683 87.886576,74.3237964 C87.886576,71.4077244 85.5297366,69.0519187 82.6146984,69.0519187 L82.6146984,69.0519187 L82.6146984,69.0519187 Z M82.6146984,70.7265152 C84.5994053,70.7265152 86.2119796,72.3390895 86.2119796,74.3227627 C86.2119796,76.3064359 84.5983716,77.9200439 82.6146984,77.9200439 C80.6310252,77.9200439 79.0174172,76.3064359 79.0174172,74.3227627 C79.0174172,72.3390895 80.6299915,70.7265152 82.6146984,70.7265152 L82.6146984,70.7265152 L82.6146984,70.7265152 Z M73.5594732,72.7732441 C73.373407,72.7732441 73.2483291,72.7732441 73.1253186,72.8362999 L67.7914189,75.7503044 L62.146375,73.5175092 C61.5881762,73.2704545 60.968989,73.7655976 61.0299773,74.4478406 L62.146375,80.4019612 L58.3020391,85.053618 C57.8678845,85.5497947 58.1779949,86.2940598 58.8602379,86.4181039 L64.8133248,87.162369 L68.0395072,92.3102025 C68.4106061,92.8684013 69.2168932,92.8053455 69.5270037,92.1861583 L72.1319315,86.7282144 L77.9630416,85.2396842 C78.5832625,85.0525843 78.8313509,84.3093529 78.3341405,83.8121425 L73.9305721,79.6566624 L74.3016709,73.6405197 C74.3657604,73.1453767 73.9936279,72.7732441 73.5594732,72.7732441 L73.5594732,72.7732441 L73.5594732,72.7732441 Z M72.5660861,75.0060394 L72.2570093,79.9678066 C72.2570093,80.2158949 72.3179977,80.4639833 72.5050977,80.5890612 L76.1013452,84.0002761 L71.326678,85.2407179 C71.0785896,85.30274 70.8925234,85.4267842 70.7674455,85.6748726 L68.6597281,90.1394293 L65.9927782,85.9839493 C65.8697678,85.7358609 65.6816341,85.6118168 65.4335457,85.6118168 L60.5348343,84.9295738 L63.6979609,81.14726 C63.8230388,80.96016 63.8840272,80.7120717 63.8840272,80.465017 L62.9547295,75.6262603 L67.5433305,77.4249009 C67.7914189,77.5489451 68.0395072,77.4879567 68.2255735,77.4249009 L72.5660861,75.0060394 L72.5660861,75.0060394 Z M46.517842,81.7044251 C47.2621071,81.8274356 48.0063721,81.8904914 48.7506372,81.8904914 C49.4949023,81.8904914 50.2391674,81.8274356 50.9214104,81.7044251 L51.4796092,83.5650878 L48.9987256,83.5650878 L48.8746814,83.5650878 C48.8126593,83.5650878 48.6886151,83.502032 48.626593,83.502032 C48.5025489,83.502032 48.4405268,83.5650878 48.3164826,83.5650878 L46.0216653,83.5650878 L46.517842,81.7044251 L46.517842,81.7044251 Z M87.3294109,86.9142807 C89.8082271,86.9142807 92.0420561,88.2787666 93.1584537,90.3875177 C92.2901444,91.0697607 91.2988247,91.6899816 90.0573492,92.2481804 C87.578533,93.4276338 84.4143727,94.2328873 80.8170915,94.729064 C80.7540357,94.3569315 80.694081,93.9227768 80.694081,93.5506443 C80.6930473,89.891341 83.6690739,86.9142807 87.3294109,86.9142807 L87.3294109,86.9142807 L87.3294109,86.9142807 Z" id="Shape" fill="#F8D788" sketch:type="MSShapeGroup"></path>
                <ellipse id="Oval" stroke-width="3" sketch:type="MSShapeGroup" cx="59.7790604" cy="59.7790604" rx="59.7013243" ry="59.7013243"></ellipse>
            </g>
        </g>
    </g>
</svg>