<?xml version="1.0" encoding="UTF-8" standalone="no"?>
<svg width="126px" height="126px" viewBox="0 0 126 126" version="1.1" xmlns="http://www.w3.org/2000/svg" xmlns:xlink="http://www.w3.org/1999/xlink" xmlns:sketch="http://www.bohemiancoding.com/sketch/ns">
    <!-- Generator: Sketch 3.3.2 (12043) - http://www.bohemiancoding.com/sketch -->
    <title>icon-roupas copy 2 + Group</title>
    <desc>Created with Sketch.</desc>
    <defs></defs>
    <g id="App-(Flow)" stroke="none" stroke-width="1" fill="none" fill-rule="evenodd" sketch:type="MSPage">
        <g id="New-Product---02" sketch:type="MSArtboardGroup" transform="translate(-459.000000, -494.000000)">
            <g id="icon-roupas-copy-2-+-Group" sketch:type="MSLayerGroup" transform="translate(461.000000, 496.000000)">
                <g id="icon-roupas-copy-2" stroke="#F7D277" stroke-width="3" sketch:type="MSShapeGroup">
                    <ellipse id="Oval" cx="60.9207792" cy="60.9207792" rx="60.8415584" ry="60.8415584"></ellipse>
                </g>
                <g id="Group" transform="translate(30.000000, 27.000000)" fill="#F7D277" sketch:type="MSShapeGroup">
                    <path d="M7.72247368,28.4817326 C7.20686842,28.4817326 6.69209211,28.2860698 6.29834211,27.8947442 L2.27214474,23.8848953 C1.89497368,23.5084302 1.68276316,22.9982209 1.68276316,22.4665465 L1.68276316,20.0624535 C1.68276316,18.9553488 2.58382895,18.0571163 3.69627632,18.0571163 C4.80789474,18.0571163 5.70978947,18.9545233 5.70978947,20.0624535 L5.70978947,21.6360116 L9.14660526,25.0588721 C9.93244737,25.8423488 9.93244737,27.112093 9.14660526,27.8955698 C8.75285526,28.2860698 8.23807895,28.4817326 7.72247368,28.4817326 L7.72247368,28.4817326 Z" id="Shape"></path>
                    <path d="M45.8134342,63.3691512 C45.4263158,63.3691512 45.0408553,63.2213721 44.74575,62.9282907 L26.2254079,44.4839767 C25.6351974,43.8961628 25.6351974,42.9434419 26.2254079,42.3564535 C26.8147895,41.7702907 27.7705658,41.7702907 28.3599474,42.3564535 L46.8802895,60.801593 C47.4705,61.3885814 47.4705,62.3413023 46.8802895,62.9282907 C46.5851842,63.2213721 46.1997237,63.3691512 45.8134342,63.3691512 L45.8134342,63.3691512 Z" id="Shape"></path>
                    <path d="M22.4611579,63.3691512 C22.0748684,63.3691512 21.6885789,63.2213721 21.3934737,62.9282907 C20.8032632,62.3413023 20.8032632,61.3885814 21.3934737,60.801593 L39.9138158,42.3564535 C40.5048553,41.7702907 41.4581447,41.7702907 42.0491842,42.3564535 C42.6393947,42.9434419 42.6393947,43.8961628 42.0491842,44.4839767 L23.5288421,62.9282907 C23.2337368,63.2213721 22.8474474,63.3691512 22.4611579,63.3691512 L22.4611579,63.3691512 Z" id="Shape"></path>
                    <g id="Shape">
                        <path d="M46.0140395,70.5872093 C41.2973289,70.5872093 37.4593026,66.7631163 37.4593026,62.063907 C37.4593026,57.3655233 41.2973289,53.5430814 46.0140395,53.5430814 C50.7315789,53.5430814 54.5712632,57.3655233 54.5712632,62.063907 C54.5712632,66.7631163 50.7315789,70.5872093 46.0140395,70.5872093 L46.0140395,70.5872093 Z M46.0140395,57.5545814 C43.51725,57.5545814 41.4871579,59.5772558 41.4871579,62.063907 C41.4871579,64.5522093 43.51725,66.5757093 46.0140395,66.5757093 C48.5124868,66.5757093 50.5434079,64.5522093 50.5434079,62.063907 C50.5434079,59.5772558 48.5116579,57.5545814 46.0140395,57.5545814 L46.0140395,57.5545814 Z"></path>
                        <path d="M22.2605526,70.5872093 C17.5430132,70.5872093 13.7049868,66.7631163 13.7049868,62.063907 C13.7049868,57.3655233 17.5430132,53.5430814 22.2605526,53.5430814 C26.9780921,53.5430814 30.8169474,57.3655233 30.8169474,62.063907 C30.8161184,66.7631163 26.9772632,70.5872093 22.2605526,70.5872093 L22.2605526,70.5872093 Z M22.2605526,57.5545814 C19.7629342,57.5545814 17.7320132,59.5772558 17.7320132,62.063907 C17.7320132,64.5522093 19.7637632,66.5757093 22.2605526,66.5757093 C24.7573421,66.5757093 26.7890921,64.5522093 26.7890921,62.063907 C26.7890921,59.5772558 24.7573421,57.5545814 22.2605526,57.5545814 L22.2605526,57.5545814 Z"></path>
                        <path d="M34.7900921,28.4817326 C34.4170658,28.4817326 34.0415526,28.3793605 33.7041711,28.1638837 C31.941,27.0369651 30.9280263,25.3519535 30.9280263,23.5406279 C30.9280263,22.4896628 31.2678947,21.4808023 31.8962368,20.599907 C31.2678947,19.718186 30.9280263,18.7093256 30.9280263,17.659186 C30.9280263,16.6106977 31.2678947,15.6034884 31.8962368,14.7217674 C31.2678947,13.8416977 30.9280263,12.8328372 30.9280263,11.7818721 C30.9280263,10.730907 31.2678947,9.72204651 31.8962368,8.84115116 C31.2678947,7.95943023 30.9280263,6.95139535 30.9280263,5.9020814 C30.9280263,4.34916279 31.5729474,2.80615116 32.6505789,1.77169767 C33.5524737,0.908139535 34.7246053,0.43177907 35.973,0.417744186 C36.0318553,0.415267442 36.0907105,0.412790698 36.1503947,0.412790698 C50.5815395,0.412790698 62.3210921,12.1055 62.3210921,26.4763953 C62.3210921,27.5835 61.4200263,28.4817326 60.30675,28.4817326 C59.1943026,28.4817326 58.2924079,27.5843256 58.2924079,26.4763953 C58.2924079,14.3775 48.4619211,4.52253488 36.3360789,4.42346512 C36.2473816,4.43172093 36.1628289,4.43337209 36.0724737,4.43089535 C35.8229605,4.41768605 35.6206974,4.49198837 35.4424737,4.6637093 C35.1506842,4.9435814 34.9558816,5.44140698 34.9558816,5.90373256 C34.9558816,6.50062791 35.6016316,6.9802907 35.8809868,7.15861628 C36.4571053,7.52930233 36.8052632,8.165 36.8052632,8.8485814 C36.8036053,9.53133721 36.4537895,10.1662093 35.8776711,10.5344186 C35.5999737,10.711093 34.9567105,11.1866279 34.9567105,11.7843488 C34.9567105,12.1987907 35.3007237,12.6668953 35.8785,13.0367558 C36.4554474,13.4049651 36.8036053,14.0406628 36.8052632,14.7234186 C36.8052632,15.4061744 36.4571053,16.0418721 35.8801579,16.410907 C35.6024605,16.5892326 34.9567105,17.0672442 34.9567105,17.6616628 C34.9567105,18.2602093 35.6024605,18.7398721 35.8818158,18.9173721 C36.4571053,19.2872326 36.8052632,19.9229302 36.8052632,20.6065116 C36.8036053,21.2892674 36.4537895,21.9241395 35.8776711,22.2923488 C35.5999737,22.4690233 34.9567105,22.9445581 34.9567105,23.5422791 C34.9567105,24.1358721 35.6016316,24.6130581 35.8785,24.7905581 C36.8152105,25.3882791 37.0871053,26.6291279 36.4861184,27.5612093 C36.1023158,28.1564535 35.45325,28.4817326 34.7900921,28.4817326 L34.7900921,28.4817326 Z"></path>
                        <path d="M48.5083421,44.923186 L19.76625,44.923186 C8.84072368,44.923186 5.95432895,35.2828721 5.95432895,30.1857326 L5.95432895,26.4763953 C5.95432895,25.3692907 6.85539474,24.4710581 7.96784211,24.4710581 L60.2943158,24.4710581 C61.4026184,24.4710581 62.3028553,25.3635116 62.3086579,26.467314 L62.3244079,30.1766512 C62.3235789,41.8429419 53.2863947,44.923186 48.5083421,44.923186 L48.5083421,44.923186 Z M9.98052632,28.4817326 L9.98052632,30.1857326 C9.98632895,31.2788023 10.3170789,40.911686 19.76625,40.911686 L48.5025395,40.911686 C49.5213158,40.9017791 58.2948947,40.5162326 58.2948947,30.1857326 L58.2882632,28.4817326 L9.98052632,28.4817326 L9.98052632,28.4817326 Z"></path>
                        <path d="M3.70207895,21.0605814 C2.90711842,21.0605814 2.12542105,20.7501628 1.55676316,20.183814 C1.00385526,19.6182907 0.676421053,18.8546279 0.676421053,18.0620698 C0.676421053,17.2711628 1.00302632,16.4926395 1.55676316,15.9262907 C2.67915789,14.8084535 4.69598684,14.8084535 5.83247368,15.9262907 C6.40030263,16.4926395 6.71281579,17.2703372 6.71281579,18.0620698 C6.71281579,18.8546279 6.38621053,19.6331512 5.83247368,20.183814 C5.26464474,20.7501628 4.48294737,21.0605814 3.70207895,21.0605814 L3.70207895,21.0605814 Z"></path>
                    </g>
                </g>
            </g>
        </g>
    </g>
</svg>