<?xml version="1.0" encoding="UTF-8" standalone="no"?>
<svg width="36px" height="36px" viewBox="0 0 36 36" version="1.1" xmlns="http://www.w3.org/2000/svg" xmlns:xlink="http://www.w3.org/1999/xlink" xmlns:sketch="http://www.bohemiancoding.com/sketch/ns">
    <!-- Generator: Sketch 3.3.2 (12043) - http://www.bohemiancoding.com/sketch -->
    <title>Shape</title>
    <desc>Created with Sketch.</desc>
    <defs></defs>
    <g id="App-(Flow)" stroke="none" stroke-width="1" fill="none" fill-rule="evenodd" sketch:type="MSPage">
        <g id="Profile" sketch:type="MSArtboardGroup" transform="translate(-574.000000, -70.000000)" fill="#FFFFFF">
            <path d="M606.4,70 L577.6,70 C575.62,70 574,71.62 574,73.6 L574,95.2 C574,97.18 575.62,98.8 577.6,98.8 L602.8,98.8 L610,106 L610,73.6 C610,71.62 608.38,70 606.4,70 L606.4,70 Z M602.8,79 L581.2,79 L581.2,75.4 L602.8,75.4 L602.8,79 L602.8,79 Z M602.8,86.2 L581.2,86.2 L581.2,82.6 L602.8,82.6 L602.8,86.2 L602.8,86.2 Z M597.4,93.4 L581.2,93.4 L581.2,89.8 L597.4,89.8 L597.4,93.4 L597.4,93.4 Z" id="Shape" sketch:type="MSShapeGroup"></path>
        </g>
    </g>
</svg>