<?xml version="1.0" encoding="utf-8"?>
<!-- Generator: Adobe Illustrator 17.1.0, SVG Export Plug-In . SVG Version: 6.00 Build 0)  -->
<!DOCTYPE svg PUBLIC "-//W3C//DTD SVG 1.1//EN" "http://www.w3.org/Graphics/SVG/1.1/DTD/svg11.dtd">
<svg version="1.1" id="Camada_1" xmlns="http://www.w3.org/2000/svg" xmlns:xlink="http://www.w3.org/1999/xlink" x="0px" y="0px"
	 width="60px" height="60px" viewBox="0 0 60 60" enable-background="new 0 0 60 60" xml:space="preserve">
<g>
	<defs>
		<path id="SVGID_1_" d="M58.2,23.7c0-12.4-10-22.4-22.4-22.4v22.4H58.2z"/>
	</defs>
	<use xlink:href="#SVGID_1_"  overflow="visible" fill-rule="evenodd" clip-rule="evenodd" fill="#C6C6C6"/>
	<clipPath id="SVGID_2_">
		<use xlink:href="#SVGID_1_"  overflow="visible"/>
	</clipPath>
	<rect x="35.2" y="0.7" clip-path="url(#SVGID_2_)" fill="#C6C6C6" width="23.6" height="23.6"/>
</g>
<g>
	<defs>
		<path id="SVGID_3_" d="M24.6,38.6c-7.4,0-13.4-6-13.4-13.4h47c0,7.4-6,13.4-13.4,13.4H24.6z"/>
	</defs>
	<use xlink:href="#SVGID_3_"  overflow="visible" fill-rule="evenodd" clip-rule="evenodd" fill="#C6C6C6"/>
	<clipPath id="SVGID_4_">
		<use xlink:href="#SVGID_3_"  overflow="visible"/>
	</clipPath>
	<rect x="10.6" y="24.6" clip-path="url(#SVGID_4_)" fill="#C6C6C6" width="48.2" height="14.6"/>
</g>
<g>
	<defs>
		<path id="SVGID_5_" d="M22.7,43.8c-3.3,0-6,2.7-6,6c0,3.3,2.7,6,6,6s6-2.7,6-6C28.7,46.5,26,43.8,22.7,43.8z M22.7,58.7
			c-4.9,0-9-4-9-9s4-9,9-9s9,4,9,9S27.7,58.7,22.7,58.7z"/>
	</defs>
	<use xlink:href="#SVGID_5_"  overflow="visible" fill-rule="evenodd" clip-rule="evenodd" fill="#C6C6C6"/>
	<clipPath id="SVGID_6_">
		<use xlink:href="#SVGID_5_"  overflow="visible"/>
	</clipPath>
	<rect x="13.2" y="40.2" clip-path="url(#SVGID_6_)" fill="#C6C6C6" width="19.1" height="19.1"/>
</g>
<g>
	<defs>
		<path id="SVGID_7_" d="M45.9,43.8c-3.3,0-6,2.7-6,6c0,3.3,2.7,6,6,6c3.3,0,6-2.7,6-6C51.8,46.5,49.2,43.8,45.9,43.8z M45.9,58.7
			c-4.9,0-9-4-9-9s4-9,9-9s9,4,9,9S50.8,58.7,45.9,58.7z"/>
	</defs>
	<use xlink:href="#SVGID_7_"  overflow="visible" fill-rule="evenodd" clip-rule="evenodd" fill="#C6C6C6"/>
	<clipPath id="SVGID_8_">
		<use xlink:href="#SVGID_7_"  overflow="visible"/>
	</clipPath>
	<rect x="36.3" y="40.2" clip-path="url(#SVGID_8_)" fill="#C6C6C6" width="19.1" height="19.1"/>
</g>
<g>
	<defs>
		<path id="SVGID_9_" d="M3.3,12.8c-0.8,0-1.5,0.7-1.5,1.5c0,0.8,0.7,1.5,1.5,1.5c4.3,0,7.8,3.5,7.8,7.8h3
			C14.1,17.7,9.3,12.8,3.3,12.8z"/>
	</defs>
	<use xlink:href="#SVGID_9_"  overflow="visible" fill-rule="evenodd" clip-rule="evenodd" fill="#C6C6C6"/>
	<clipPath id="SVGID_10_">
		<use xlink:href="#SVGID_9_"  overflow="visible"/>
	</clipPath>
	<rect x="1.2" y="12.3" clip-path="url(#SVGID_10_)" fill="#C6C6C6" width="13.5" height="12"/>
</g>
</svg>
