<?xml version="1.0" encoding="UTF-8" standalone="no"?>
<svg width="38px" height="38px" viewBox="0 0 38 38" version="1.1" xmlns="http://www.w3.org/2000/svg" xmlns:xlink="http://www.w3.org/1999/xlink" xmlns:sketch="http://www.bohemiancoding.com/sketch/ns">
    <!-- Generator: Sketch 3.3.2 (12043) - http://www.bohemiancoding.com/sketch -->
    <title>Shape</title>
    <desc>Created with Sketch.</desc>
    <defs></defs>
    <g id="App-(Flow)" stroke="none" stroke-width="1" fill="none" fill-rule="evenodd" sketch:type="MSPage">
        <g id="My-Profile" sketch:type="MSArtboardGroup" transform="translate(-573.000000, -67.000000)" fill="#FFFFFF">
            <path d="M610.911909,84.1841942 C610.792726,83.3140756 610.120381,82.6011398 609.249831,82.4832527 C608.181075,82.3653657 606.005131,82.0868414 606.005131,82.0868414 C605.055557,81.8506355 604.342621,81.0185172 604.342621,79.990784 C604.342621,79.5956682 604.461372,79.1992568 604.699737,78.8831641 C604.699737,78.8438684 606.677907,76.2723765 606.677907,76.2723765 C607.231069,75.6004636 607.19091,74.6107307 606.63818,73.938386 C605.88638,72.9883806 605.015398,72.1178302 604.064961,71.3655987 C603.393048,70.8115728 602.403315,70.7722771 601.731834,71.326303 C600.860851,71.9986477 599.160342,73.3057688 599.160342,73.3057688 C598.804522,73.502679 598.408542,73.6602935 597.973699,73.6602935 C596.94467,73.6602935 596.113415,72.9093574 595.91521,71.9196245 L595.520526,68.7548111 C595.402207,67.8842607 594.688839,67.2123478 593.819152,67.0940289 C592.593645,66.9748464 591.366843,66.9748464 590.1802,67.0940289 C589.309649,67.211916 588.597145,67.8842607 588.478827,68.7548111 L588.083711,71.9196245 C587.924801,72.9093574 587.054682,73.6602935 586.025654,73.6602935 C585.551946,73.6602935 585.116239,73.502679 584.760419,73.2651776 L582.26795,71.326303 C581.595606,70.7722771 580.605873,70.8120046 579.93396,71.3655987 C578.983523,72.1178302 578.113404,72.9879488 577.361173,73.938386 C576.767851,74.6107307 576.767851,75.6004636 577.321877,76.2723765 C577.95579,77.1031994 579.221024,78.7648453 579.221024,78.7648453 C579.497821,79.1206655 579.656731,79.5563725 579.656731,79.990784 C579.656731,81.0595401 578.865204,81.9296587 577.836175,82.0868414 L574.750385,82.4832527 C573.879835,82.6015716 573.168626,83.3140756 573.088739,84.1841942 C572.97042,85.410133 572.97042,86.6377991 573.088739,87.8244422 C573.207922,88.6949926 573.880266,89.4074966 574.750385,89.5253837 L577.836175,89.9204995 C578.865204,90.039682 579.656731,90.9102324 579.656731,91.9789885 C579.656731,92.4531276 579.497821,92.8884028 579.221024,93.244223 L577.321877,95.7366917 C576.767851,96.4103319 576.807147,97.3987693 577.361173,98.0706822 C578.112972,99.0202558 578.983523,99.891238 579.93396,100.643038 C580.28978,100.920698 580.684896,101.077881 581.120603,101.077881 C581.515719,101.077881 581.951426,100.959562 582.26795,100.682765 L584.760419,98.7438906 C585.116239,98.5063892 585.551946,98.3474792 586.025654,98.3474792 C587.054682,98.3474792 587.924801,99.0997108 588.083711,100.089444 C588.083711,100.128739 588.478827,103.254257 588.478827,103.254257 C588.597145,104.124808 589.309649,104.795857 590.1802,104.915903 C590.773521,104.95563 591.406139,104.995358 592.000756,104.995358 C592.594077,104.995358 593.226263,104.95563 593.819152,104.915903 C594.690135,104.797152 595.402207,104.124808 595.520526,103.254257 L595.91521,100.089444 C596.113415,99.0997108 596.94467,98.3474792 597.973699,98.3474792 C598.408542,98.3474792 598.844681,98.4670936 599.160342,98.7045949 L601.731834,100.682765 C602.047495,100.959562 602.483633,101.077881 602.878317,101.077881 C603.314888,101.077881 603.710004,100.959562 604.064961,100.643038 C605.015398,99.891238 605.88638,99.0206876 606.63818,98.0706822 C607.190478,97.3983375 607.231069,96.4099001 606.677907,95.7366917 C606.003835,94.8661413 604.699737,93.1656316 604.699737,93.1259041 C604.461372,92.8098114 604.342621,92.4134001 604.342621,91.9789885 C604.342621,90.9896874 605.055125,90.1187052 606.005131,89.9204995 C606.005131,89.9204995 608.181075,89.6432707 609.249831,89.5253837 C610.120381,89.4074966 610.792294,88.6941289 610.911909,87.8244422 C611.029364,86.5972079 611.029364,85.3708373 610.911909,84.1841942 L610.911909,84.1841942 Z M592.001188,92.4518321 C588.439963,92.4518321 585.552378,89.5638157 585.552378,86.0030227 C585.552378,82.4430934 588.440395,79.555077 592.001188,79.555077 C595.560685,79.555077 598.448701,82.4430934 598.448701,86.0030227 C598.448701,89.5646793 595.560685,92.4518321 592.001188,92.4518321 L592.001188,92.4518321 Z" id="Shape" sketch:type="MSShapeGroup"></path>
        </g>
    </g>
</svg>