<?xml version="1.0" encoding="UTF-8" standalone="no"?>
<svg width="52px" height="51px" viewBox="0 0 52 51" version="1.1" xmlns="http://www.w3.org/2000/svg" xmlns:xlink="http://www.w3.org/1999/xlink" xmlns:sketch="http://www.bohemiancoding.com/sketch/ns">
    <!-- Generator: Sketch 3.3.2 (12043) - http://www.bohemiancoding.com/sketch -->
    <title>Shape Copy 4</title>
    <desc>Created with Sketch.</desc>
    <defs></defs>
    <g id="App-(Flow)" stroke="none" stroke-width="1" fill="none" fill-rule="evenodd" sketch:type="MSPage">
        <g id="My-Profile" sketch:type="MSArtboardGroup" transform="translate(-165.000000, -1061.000000)" fill="#FFFFFF">
            <path d="M197.104235,1061 C186.117339,1061 177.210028,1069.90731 177.210028,1080.89525 C177.210028,1085.29021 178.637795,1089.35018 181.051338,1092.64199 L181.031602,1092.62173 L165.972793,1107.6795 L166.00811,1107.71794 C165.39992,1108.13604 165,1108.8346 165,1109.62873 C165,1110.91003 166.038234,1111.9467 167.317978,1111.9467 C168.036796,1111.9467 168.670955,1111.61274 169.096324,1111.0996 L169.146185,1111.15414 L184.317179,1096.13584 L184.30004,1096.11766 C187.761167,1099.03084 192.226249,1100.78997 197.104235,1100.78997 C208.092689,1100.78997 217,1091.88318 217,1080.89525 C217,1069.90731 208.093728,1061 197.104235,1061 L197.104235,1061 Z M197.104235,1096.26776 C188.613983,1096.26776 181.731203,1089.38498 181.731203,1080.89525 C181.731203,1072.40447 188.613983,1065.52169 197.104235,1065.52169 C205.595525,1065.52169 212.478306,1072.40447 212.478306,1080.89525 C212.478306,1089.38498 205.595525,1096.26776 197.104235,1096.26776 L197.104235,1096.26776 Z" id="Shape-Copy-4" sketch:type="MSShapeGroup"></path>
        </g>
    </g>
</svg>