<?xml version="1.0" encoding="UTF-8" standalone="no"?>
<svg width="123px" height="123px" viewBox="0 0 123 123" version="1.1" xmlns="http://www.w3.org/2000/svg" xmlns:xlink="http://www.w3.org/1999/xlink" xmlns:sketch="http://www.bohemiancoding.com/sketch/ns">
    <!-- Generator: Sketch 3.3.2 (12043) - http://www.bohemiancoding.com/sketch -->
    <title>Oval + Shape</title>
    <desc>Created with Sketch.</desc>
    <defs></defs>
    <g id="App-(Flow)" stroke="none" stroke-width="1" fill="none" fill-rule="evenodd" sketch:type="MSPage">
        <g id="New-Product---02" sketch:type="MSArtboardGroup" transform="translate(-262.000000, -496.000000)">
            <g id="Oval-+-Shape" sketch:type="MSLayerGroup" transform="translate(264.000000, 498.000000)">
                <ellipse id="Oval" stroke="#F7D277" stroke-width="3" sketch:type="MSShapeGroup" cx="59.7790604" cy="59.7790604" rx="59.7013243" ry="59.7013243"></ellipse>
                <path d="M19.9907202,77 L97.3593987,77 C98.3525966,77 99.1586703,76.1939263 99.1586703,75.2007284 L99.1586703,66.0991131 C99.1586703,65.681682 99.0165278,65.2966379 98.7772247,64.9916614 C98.895077,62.0813396 98.8249054,54.5720796 95.8920927,45.1322012 C95.6132056,44.2352643 94.6838818,43.7017803 93.7752497,43.9113954 C93.7401639,43.9194921 90.2018963,44.7057738 85.3987408,44.7057738 C78.5759029,44.7057738 69.1980994,43.1395079 63.2677002,35.6797279 C62.6892344,34.9510229 61.6492554,34.7845903 60.8719701,35.2955834 C60.6722509,35.4269302 40.8001958,48.4131729 28.8008536,50.3761782 C21.9591233,51.4953252 18.1914486,57.0793646 18.1914486,66.0991131 L18.1914486,75.201628 C18.1914486,76.194826 18.9975223,77 19.9907202,77 L19.9907202,77 Z M94.3330239,53.9909149 C95.2956342,59.5182772 95.2398568,63.6269139 95.1615885,65.1985776 L89.2626765,65.1985776 C89.4318081,60.0157758 91.2013917,56.1293492 94.3330239,53.9909149 L94.3330239,53.9909149 Z M61.5089122,39.1631177 C68.3254527,46.6786751 78.1683679,48.304317 85.3996404,48.304317 C86.9910962,48.304317 88.4458072,48.2260487 89.706197,48.1153935 C85.217914,50.8898703 79.4800369,52.0459023 73.7898405,51.169657 C67.1316359,50.1449718 61.6078722,46.505945 58.3727818,41.0991339 C59.6682574,40.3164508 60.7397236,39.6498206 61.5089122,39.1631177 L61.5089122,39.1631177 Z M38.6131812,51.1903486 L40.7120315,54.617961 C40.3305859,55.0866713 40.0921825,55.6759327 40.0921825,56.3254698 C40.0921825,57.8251626 41.3120886,59.0450688 42.8117815,59.0450688 C44.3114743,59.0450688 45.5313805,57.8251626 45.5313805,56.3254698 C45.5313805,54.8257769 44.3114743,53.6049711 42.8117815,53.6049711 C42.6147612,53.6049711 42.4240384,53.6283616 42.2396131,53.6679456 L40.300898,50.500328 C42.0228009,49.7761212 43.749202,48.9880402 45.4378184,48.168472 L47.5051814,51.5439055 C47.1237358,52.0126158 46.8853324,52.6018772 46.8853324,53.2514143 C46.8853324,54.7511071 48.1052385,55.9710133 49.6049314,55.9710133 C51.1046242,55.9710133 52.3245304,54.7511071 52.3245304,53.2514143 C52.3245304,51.7517214 51.1046242,50.5318152 49.6049314,50.5318152 C49.4088108,50.5318152 49.218088,50.5552058 49.0336626,50.5947897 L47.0571628,47.3677961 C48.9104125,46.4366731 50.6988885,45.4866577 52.365014,44.5654306 L54.4368752,47.9480612 C54.0554297,48.4167715 53.8170262,49.0060329 53.8170262,49.65557 C53.8170262,51.1552628 55.0369323,52.375169 56.5366252,52.375169 C58.036318,52.375169 59.2562242,51.1552628 59.2562242,49.65557 C59.2562242,48.1558771 58.036318,46.935971 56.5366252,46.935971 C56.3396049,46.935971 56.1488821,46.9593615 55.9644568,46.9989455 L53.9366777,43.6873861 C54.9658611,43.1062214 55.9356685,42.543949 56.8281072,42.0176621 C60.3366868,47.8895849 66.3165659,51.8380864 73.5154516,52.9464377 C74.8604071,53.1533539 76.2071619,53.2541132 77.5440207,53.2541132 C83.3016898,53.2541132 88.8407473,51.3720751 92.9781724,47.9876452 C93.3749118,49.4126683 93.7005799,50.7810144 93.9713703,52.0890848 C89.9311059,54.4560266 87.6514288,59.0279757 87.4652042,65.197678 L35.0803114,65.197678 C34.9489646,60.3720316 33.7632446,56.5134936 31.4826679,53.501513 C33.7389545,52.968029 36.1580751,52.1592564 38.6131812,51.1903486 L38.6131812,51.1903486 Z M41.891454,56.3263694 C41.891454,55.8189748 42.3043869,55.4051423 42.8117815,55.4051423 C43.3191761,55.4051423 43.7321089,55.8180752 43.7321089,56.3263694 C43.7321089,56.8346636 43.3191761,57.2466968 42.8117815,57.2466968 C42.3043869,57.2466968 41.891454,56.833764 41.891454,56.3263694 L41.891454,56.3263694 Z M48.6846039,53.2541132 C48.6846039,52.7467186 49.0975368,52.3337857 49.6049314,52.3337857 C50.112326,52.3337857 50.5252588,52.7467186 50.5252588,53.2541132 C50.5252588,53.7615077 50.112326,54.1744406 49.6049314,54.1744406 C49.0975368,54.1744406 48.6846039,53.7615077 48.6846039,53.2541132 L48.6846039,53.2541132 Z M55.6162978,49.6573692 C55.6162978,49.1499747 56.0292306,48.7370418 56.5366252,48.7370418 C57.0440198,48.7370418 57.4569526,49.1499747 57.4569526,49.6573692 C57.4569526,50.1647638 57.0440198,50.5776967 56.5366252,50.5776967 C56.0292306,50.5776967 55.6162978,50.1656635 55.6162978,49.6573692 L55.6162978,49.6573692 Z M29.3829179,53.9270407 C29.4278997,53.9198436 29.4746808,53.909048 29.5187629,53.9018509 C31.944181,56.7006179 33.1478937,60.3558381 33.2828391,65.1994773 L21.8097838,65.1994773 C22.0184993,58.5124844 24.5590708,54.7160213 29.3829179,53.9270407 L29.3829179,53.9270407 Z M21.7899918,66.9987489 L95.3469134,66.9987489 C95.407189,67.1040062 95.4782603,67.2038658 95.5601271,67.2956287 L95.5601271,73.4023565 L21.7899918,73.4023565 L21.7899918,66.9987489 L21.7899918,66.9987489 Z" id="Shape" fill="#F7D277" sketch:type="MSShapeGroup"></path>
            </g>
        </g>
    </g>
</svg>