<?xml version="1.0" encoding="utf-8"?>
<!-- Generator: Adobe Illustrator 17.1.0, SVG Export Plug-In . SVG Version: 6.00 Build 0)  -->
<!DOCTYPE svg PUBLIC "-//W3C//DTD SVG 1.1//EN" "http://www.w3.org/Graphics/SVG/1.1/DTD/svg11.dtd">
<svg version="1.1" id="Layer_1" xmlns="http://www.w3.org/2000/svg" xmlns:xlink="http://www.w3.org/1999/xlink" x="0px" y="0px"
	 width="48px" height="48px" viewBox="0 0 48 48" enable-background="new 0 0 48 48" xml:space="preserve">
<path fill="#C6C6C8" d="M24,0C10.7,0,0,10.7,0,24s10.7,24,24,24c13.3,0,24-10.7,24-24S37.3,0,24,0z M16.3,34.5
	c-1.3,0-2.4-1.1-2.4-2.4s1.1-2.4,2.4-2.4s2.4,1.1,2.4,2.4S17.6,34.5,16.3,34.5z M28.6,34.5c-1.3,0-2.4-1.1-2.4-2.4s1.1-2.4,2.4-2.4
	s2.4,1.1,2.4,2.4S30,34.5,28.6,34.5z M36.7,15.1c0,1.1-0.8,1.3-1.2,1.3h-0.2c-1.6,0-1.9,1-2,1.4l0,0.1l0,0l-0.4,2l-1.5,8.3h-17
	l-3.1-10H29c1.1,0,1.4-0.5,1.5-0.9l0.5-2.3v0l0-0.4c0,0,0.2-1.2,1.7-1.2H35c0,0,1.8,0,1.8,1.5C36.7,14.9,36.7,15.1,36.7,15.1z"/>
</svg>
