<?xml version="1.0" encoding="UTF-8" standalone="no"?>
<svg width="52px" height="52px" viewBox="0 0 52 52" version="1.1" xmlns="http://www.w3.org/2000/svg" xmlns:xlink="http://www.w3.org/1999/xlink" xmlns:sketch="http://www.bohemiancoding.com/sketch/ns">
    <!-- Generator: Sketch 3.3.2 (12043) - http://www.bohemiancoding.com/sketch -->
    <title>noun_189549_cc</title>
    <desc>Created with Sketch.</desc>
    <defs></defs>
    <g id="App-(Flow)" stroke="none" stroke-width="1" fill="none" fill-rule="evenodd" sketch:type="MSPage">
        <g id="My-Profile" sketch:type="MSArtboardGroup" transform="translate(-294.000000, -1060.000000)" fill="#FFFFFF">
            <g id="noun_189549_cc" sketch:type="MSLayerGroup" transform="translate(294.000000, 1060.000000)">
                <circle id="Oval" sketch:type="MSShapeGroup" cx="26" cy="26" r="6.64004545"></circle>
                <path d="M43.1676818,0.437863636 L8.83290909,0.437863636 C4.20431818,0.437863636 0.437863636,4.20431818 0.437863636,8.83290909 L0.437863636,43.1670909 C0.437863636,47.7956818 4.20431818,51.5621364 8.83290909,51.5621364 L43.1676818,51.5621364 C47.7962727,51.5621364 51.5627273,47.7956818 51.5627273,43.1670909 L51.5627273,8.83290909 C51.5627273,4.20431818 47.7962727,0.437863636 43.1676818,0.437863636 L43.1676818,0.437863636 Z M41.7565909,5.72472727 C43.1233636,5.72472727 44.2330909,6.83386364 44.2330909,8.20122727 C44.2330909,9.56918182 43.1233636,10.6783182 41.7565909,10.6783182 C40.3886364,10.6783182 39.2795,9.56918182 39.2795,8.20122727 C39.2795,6.83327273 40.3886364,5.72472727 41.7565909,5.72472727 L41.7565909,5.72472727 Z M26,14.7851364 C32.1844545,14.7851364 37.2148636,19.8167273 37.2148636,26 C37.2148636,32.1832727 32.1844545,37.2148636 26,37.2148636 C19.8161364,37.2148636 14.7851364,32.1832727 14.7851364,26 C14.7851364,19.8167273 19.8161364,14.7851364 26,14.7851364 L26,14.7851364 Z M47.4340455,43.1670909 C47.4340455,45.5195 45.5200909,47.4340455 43.1670909,47.4340455 L8.83290909,47.4340455 C6.4805,47.4340455 4.56595455,45.5200909 4.56595455,43.1670909 L4.56595455,18.109 L12.8493182,18.109 C11.4589091,20.4165 10.6564545,23.1157727 10.6564545,26 C10.6564545,34.4606364 17.5393636,41.3423636 26,41.3423636 C34.4600455,41.3423636 41.3435455,34.4606364 41.3435455,26 C41.3435455,23.1145909 40.5375455,20.4159091 39.1453636,18.109 L47.4340455,18.109 L47.4340455,43.1670909 L47.4340455,43.1670909 Z" id="Shape" sketch:type="MSShapeGroup"></path>
            </g>
        </g>
    </g>
</svg>