<?xml version="1.0" encoding="UTF-8" standalone="no"?>
<svg width="36px" height="36px" viewBox="0 0 36 36" version="1.1" xmlns="http://www.w3.org/2000/svg" xmlns:xlink="http://www.w3.org/1999/xlink" xmlns:sketch="http://www.bohemiancoding.com/sketch/ns">
    <!-- Generator: Sketch 3.3.2 (12043) - http://www.bohemiancoding.com/sketch -->
    <title>Shape Copy 4</title>
    <desc>Created with Sketch.</desc>
    <defs></defs>
    <g id="App-(Flow)" stroke="none" stroke-width="1" fill="none" fill-rule="evenodd" sketch:type="MSPage">
        <g id="Timeline-(Filtro)" sketch:type="MSArtboardGroup" transform="translate(-574.000000, -66.000000)" fill="#FFFFFF">
            <path d="M596.226009,66 C588.619696,66 582.453096,72.1666001 582.453096,79.7736316 C582.453096,82.8163004 583.44155,85.6270475 585.112465,87.9059928 L585.098801,87.8919696 L574.673472,98.3165801 L574.697922,98.3431882 C574.276868,98.6326408 574,99.1162605 574,99.6660408 C574,100.553096 574.718777,101.270795 575.604754,101.270795 C576.102397,101.270795 576.54143,101.039592 576.835917,100.684339 L576.870435,100.722093 L587.373432,90.3248102 L587.361566,90.3122253 C589.757731,92.3290451 592.848941,93.5469037 596.226009,93.5469037 C603.8334,93.5469037 610,87.3806632 610,79.7736316 C610,72.1666001 603.834119,66 596.226009,66 L596.226009,66 Z M596.226009,90.4161406 C590.348142,90.4161406 585.58314,85.6511386 585.58314,79.7736316 C585.58314,73.8954055 590.348142,69.1304035 596.226009,69.1304035 C602.104594,69.1304035 606.869596,73.8954055 606.869596,79.7736316 C606.869596,85.6511386 602.104594,90.4161406 596.226009,90.4161406 L596.226009,90.4161406 Z" id="Shape-Copy-4" sketch:type="MSShapeGroup"></path>
        </g>
    </g>
</svg>