<?xml version="1.0" encoding="UTF-8" standalone="no"?>
<svg width="40px" height="27px" viewBox="0 0 40 27" version="1.1" xmlns="http://www.w3.org/2000/svg" xmlns:xlink="http://www.w3.org/1999/xlink" xmlns:sketch="http://www.bohemiancoding.com/sketch/ns">
    <!-- Generator: Sketch 3.3.2 (12043) - http://www.bohemiancoding.com/sketch -->
    <title>Shape</title>
    <desc>Created with Sketch.</desc>
    <defs></defs>
    <g id="App-(Flow)" stroke="none" stroke-width="1" fill="none" fill-rule="evenodd" sketch:type="MSPage">
        <g id="Timeline" sketch:type="MSArtboardGroup" transform="translate(-572.000000, -71.000000)" fill="#FFFFFF">
            <path d="M605.333333,71 L592,71 L578.666667,71 L572,80 L572,97.1 C572,97.5968 572.398222,98 572.888889,98 L611.111111,98 C611.602222,98 612,97.5968 612,97.1 L612,80 L605.333333,71 L605.333333,71 Z M579.777778,73.25 L592,73.25 L604.222222,73.25 L609.222222,80 L596.444444,80 C596.444444,82.4849 594.454667,84.5 592,84.5 C589.545778,84.5 587.555556,82.4849 587.555556,80 L574.777778,80 L579.777778,73.25 L579.777778,73.25 Z" id="Shape" sketch:type="MSShapeGroup"></path>
        </g>
    </g>
</svg>