<?xml version="1.0" encoding="utf-8"?>
<!-- Generator: Adobe Illustrator 17.1.0, SVG Export Plug-In . SVG Version: 6.00 Build 0)  -->
<!DOCTYPE svg PUBLIC "-//W3C//DTD SVG 1.1//EN" "http://www.w3.org/Graphics/SVG/1.1/DTD/svg11.dtd">
<svg version="1.1" id="Layer_1" xmlns="http://www.w3.org/2000/svg" xmlns:xlink="http://www.w3.org/1999/xlink" x="0px" y="0px"
	 width="48px" height="48px" viewBox="0 0 48 48" enable-background="new 0 0 48 48" xml:space="preserve">
<g>
	<path fill="#C6C6C8" d="M24,0C10.7,0,0,10.7,0,24s10.7,24,24,24s24-10.7,24-24S37.3,0,24,0z M24,43.8c-11,0-20-8.9-20-20
		s8.9-20,20-20s20,8.9,20,20S35.1,43.8,24,43.8z"/>
	<g>
		<circle fill="#C6C6C8" cx="16.3" cy="32.1" r="2.4"/>
		<circle fill="#C6C6C8" cx="28.6" cy="32.1" r="2.4"/>
		<path fill="#C6C6C8" d="M35,13.5h-2.2c-1.6,0-1.7,1.2-1.7,1.2l0,0.4v0l-0.5,2.3c-0.1,0.3-0.5,0.9-1.5,0.9H11.3l3.1,10h17l1.5-8.3
			l0.4-2l0,0l0-0.1c0.1-0.4,0.5-1.4,2-1.4h0.2c0.4,0,1.2-0.2,1.2-1.3v-0.2C36.7,13.4,35,13.5,35,13.5z"/>
	</g>
</g>
</svg>
