<?xml version="1.0" encoding="UTF-8" standalone="no"?>
<svg width="124px" height="124px" viewBox="0 0 124 124" version="1.1" xmlns="http://www.w3.org/2000/svg" xmlns:xlink="http://www.w3.org/1999/xlink" xmlns:sketch="http://www.bohemiancoding.com/sketch/ns">
    <!-- Generator: Sketch 3.3.2 (12043) - http://www.bohemiancoding.com/sketch -->
    <title>Oval + Shape</title>
    <desc>Created with Sketch.</desc>
    <defs></defs>
    <g id="App-(Flow)" stroke="none" stroke-width="1" fill="none" fill-rule="evenodd" sketch:type="MSPage">
        <g id="New-Product---02" sketch:type="MSArtboardGroup" transform="translate(-456.000000, -264.000000)">
            <g id="Oval-+-Shape" sketch:type="MSLayerGroup" transform="translate(458.000000, 266.000000)">
                <path d="M59.9220779,119.766234 C92.9730926,119.766234 119.766234,92.9730926 119.766234,59.9220779 C119.766234,26.8710633 92.9730926,0.0779220779 59.9220779,0.0779220779 C26.8710633,0.0779220779 0.0779220779,26.8710633 0.0779220779,59.9220779 C0.0779220779,92.9730926 26.8710633,119.766234 59.9220779,119.766234 Z" id="Oval" stroke="#F7D277" stroke-width="3" sketch:type="MSShapeGroup"></path>
                <path d="M46.6334783,98.9985333 C43.1998289,98.9985333 40.0097068,97.6352999 37.6480978,95.1601604 C35.2500897,92.6486217 33.968321,89.1993727 34.134717,85.6981248 C34.1797825,84.6910828 34.3019796,83.7065735 34.4926416,82.7549967 C34.4241766,82.7289974 34.3600448,82.6943315 34.298513,82.6501326 C33.7204604,82.238476 33.3807354,81.3605641 33.0262774,80.3387891 C31.9091713,77.1608 33.4907994,72.0094592 35.5291496,68.2412846 C38.3986128,62.9330809 42.6261096,59.7932243 44.7051921,58.4837229 C44.3594006,58.1873302 44.0248754,57.8814043 43.6998833,57.5659453 C43.6877503,57.5538123 43.6756173,57.5416793 43.6634842,57.5278129 C43.4138903,57.2816856 43.1660297,57.0268918 42.9216357,56.7651649 C39.170794,52.7101306 37.327439,47.5180574 37.8127605,42.4282484 C37.4669689,42.2254534 37.163643,42.023525 36.8828498,41.8085969 L36.8828498,41.8085969 C32.1717649,38.2232845 31.0875914,31.2502548 34.4666422,26.2618433 C36.1332015,23.7988368 38.6135409,22.1860095 41.4483383,21.7197543 C44.2181373,21.2638987 46.9922696,21.9658816 49.2663474,23.6939727 C49.6156055,23.9608995 49.949264,24.2564256 50.2785893,24.5857509 C53.4288457,22.9919898 56.8746282,22.1418106 60.2857449,22.1227444 C63.7089946,22.1418106 67.1539104,22.9919898 70.3033002,24.5857509 C70.6352254,24.2520924 70.9697506,23.9574329 71.3155421,23.695706 C73.58442,21.9676149 76.3507525,21.2621654 79.1300846,21.7162877 C81.9666153,22.1825429 84.4469547,23.7953702 86.1152473,26.2575101 C89.4925648,31.2441883 88.4083913,38.2189512 83.698173,41.8042637 C83.4139133,42.0226583 83.1097207,42.2245867 82.7656624,42.4256485 C83.2475173,47.5111243 81.4058957,52.7023308 77.6567872,56.7582317 C77.0969342,57.3640169 76.4998155,57.9394695 75.8662976,58.4828563 C77.9453802,59.7940909 82.1763435,62.9356808 85.0440735,68.2438845 C87.0824237,72.0120591 88.665785,77.1634 87.6050109,80.1758597 C87.4056824,80.7400459 86.6993664,82.0452141 86.0476489,82.5990005 C86.2591104,83.5991094 86.3917072,84.6373508 86.4385061,85.7007248 C86.6040354,89.2037059 85.3231333,92.6546883 82.9233919,95.1644936 C80.1449265,98.0807557 76.2086226,99.4405225 72.127589,98.8737363 C69.3577899,98.4950123 66.9155829,97.3094412 65.0271624,95.4686862 C60.9166628,96.9159842 56.9578262,95.9592075 55.5087949,95.503352 C53.6255742,97.3259075 51.1989668,98.4967456 48.448234,98.8737363 C47.8337824,98.9569343 47.2227973,98.9985333 46.6334783,98.9985333 L46.6334783,98.9985333 Z M45.7867657,72.93157 C45.4834398,72.93157 45.1792472,72.9506362 44.8828544,72.9887686 C40.0755719,73.682085 36.2181327,79.1818173 35.9182734,85.7795895 C35.7770102,88.7972491 36.8785166,91.7663766 38.9393996,93.9251906 C41.3166082,96.417663 44.683526,97.5798346 48.2055733,97.1023129 C50.7344448,96.7547881 52.9443909,95.6290156 54.6014171,93.8766584 C54.6100835,93.8662587 54.61875,93.8575922 54.6274164,93.8489257 C55.0988716,93.3445381 55.5243945,92.789885 55.899652,92.1875663 C57.6260098,89.4177673 58.0203335,86.0300501 56.9820922,82.8927934 L56.9820922,82.8910601 C55.0850052,77.1209343 50.3773869,72.93157 45.7867657,72.93157 L45.7867657,72.93157 Z M66.0194715,93.9277905 C67.6686979,95.652415 69.861311,96.7591213 72.369383,97.1031796 C75.8758307,97.5902344 79.2514149,96.4254628 81.6286235,93.9295238 C83.6938398,91.7707098 84.7953462,88.8015824 84.6532163,85.7813228 C84.353357,79.1818173 80.4941846,73.6838183 75.674769,72.9870353 C75.3870427,72.9489029 75.0845834,72.93157 74.7847241,72.93157 C70.1975694,72.93157 65.4882178,77.1209343 63.5876642,82.8910601 C62.5494229,86.0291834 62.9437466,89.4169007 64.6701044,92.1875663 C65.0124294,92.7352863 65.3946201,93.2431405 65.8166764,93.7093958 C65.8938079,93.7691944 65.9640062,93.8428592 66.0194715,93.9277905 L66.0194715,93.9277905 Z M56.8217628,94.0066552 C58.3141264,94.3697797 60.977328,94.7710366 63.7445271,93.9997221 C63.5382654,93.7206622 63.3415369,93.4320693 63.1543415,93.1339432 C61.1471905,89.9117553 60.6861351,85.9737181 61.8925056,82.3312071 C64.0270535,75.850432 69.450521,71.144547 74.7864573,71.144547 C75.168648,71.144547 75.552572,71.1688131 75.9174297,71.2173452 L75.9260962,71.2173452 C76.232022,71.2606775 76.535348,71.3222093 76.8352073,71.3976075 C75.7059682,66.8910509 74.0142762,63.3932697 71.8987945,61.19719 C71.7011994,61.3037874 71.5096707,61.4034516 71.3155421,61.4987826 C70.9281516,61.6963778 70.6031595,61.8428409 70.2790341,61.9875707 C69.8413781,62.1816993 69.5198527,62.3108294 69.1965939,62.4330265 C69.1931273,62.4347597 69.0327979,62.4980249 69.0293313,62.4988915 C68.7260054,62.6106888 68.4148796,62.7155529 68.0994207,62.820417 L67.8792927,62.8958151 C67.5777001,62.9920128 67.2700409,63.0769441 66.9615151,63.1610087 L66.6824553,63.2416067 C66.3929957,63.3170049 66.094003,63.3846032 65.7941437,63.4496016 L65.4639517,63.5267331 C65.1710255,63.5873983 64.8754994,63.636797 64.5773734,63.6853292 L64.2211821,63.7520609 C63.923056,63.7971265 63.6292632,63.8326589 63.3380703,63.8673247 L62.9368134,63.9141236 C62.6369541,63.9470561 62.3310282,63.964389 62.0277023,63.9834552 L61.6281787,64.0146545 C60.7329339,64.0562535 59.8229562,64.0562535 58.9589106,64.0146545 L58.7058501,63.9973216 L58.520388,63.0864772 L58.4649227,63.9782554 C58.1893294,63.9609225 57.9137361,63.9435896 57.6407428,63.9141236 L57.3599497,63.8811911 C56.9257603,63.8291923 56.6423672,63.7953932 56.3685072,63.7537942 L56.1215133,63.7087286 C55.7011902,63.6376637 55.4039308,63.5865316 55.1162045,63.529333 C55.1110046,63.5275997 54.7790794,63.4504683 54.7721462,63.448735 C54.4038219,63.3664037 54.1455615,63.3074718 53.8907677,63.2407401 L53.6914393,63.1852747 C53.2971156,63.0769441 52.9946563,62.9928794 52.6999968,62.8975484 C52.6965302,62.8975484 52.4521362,62.8169504 52.4504029,62.8152171 C52.1444771,62.7138196 51.8428844,62.6124221 51.548225,62.5023581 C51.5447584,62.5006248 51.34023,62.4200268 51.3384968,62.4182935 C51.0317042,62.3012963 50.7257784,62.1790993 50.4276523,62.0499691 C49.9561972,61.8385076 49.6459381,61.6955111 49.3382789,61.5421149 C49.0852185,61.414718 48.8685571,61.304654 48.6700953,61.1980566 C46.3552851,63.5769985 44.463398,67.2619752 43.3688248,71.4964051 C43.7856812,71.3724748 44.2086042,71.2797437 44.6393271,71.2173452 C50.3851867,70.4633636 56.3953732,75.3876434 58.6781175,82.3303404 L58.6781175,82.3303404 C59.884488,85.9728515 59.4251659,89.9108886 57.4180149,93.1330766 C57.2299528,93.4355358 57.0306244,93.7258621 56.8217628,94.0066552 L56.8217628,94.0066552 Z M78.8050925,71.9591938 C81.7811532,73.4428909 84.270159,76.3738859 85.7079239,80.0423963 C85.7971884,79.8734004 85.8717199,79.7122044 85.9176521,79.5813409 C86.753965,77.2093322 85.3188001,72.508647 83.4719785,69.0931971 C83.4719785,69.0931971 83.4719785,69.0931971 83.4719785,69.0914638 C80.6657804,63.9002573 76.4660163,60.9363297 74.6555939,59.8356899 C74.3358017,60.0592844 74.0064764,60.2768125 73.6693513,60.4865407 C76.4590832,63.7017955 77.9887125,68.3522152 78.8050925,71.9591938 L78.8050925,71.9591938 Z M45.9176292,59.8356899 C44.1072067,60.935463 39.9100426,63.8959241 37.0995112,69.0931971 C35.2526897,72.5069137 33.8201247,77.2075989 34.6538376,79.5813409 C34.6538376,79.5813409 34.6625041,79.605607 34.6729038,79.6350729 C36.1288683,76.139025 38.5494091,73.354493 41.4258055,71.921928 C42.4796465,67.3347734 44.4382653,63.2520064 46.8960719,60.4822074 C46.5615468,60.2733459 46.2330881,60.0575511 45.9176292,59.8356899 L45.9176292,59.8356899 Z M53.2451168,61.1954567 C53.5155102,61.2829879 53.7928368,61.3592527 54.0692967,61.4346508 L54.1178289,62.3775611 L54.34489,61.5135156 C54.5788843,61.5750474 54.8180784,61.6287794 55.0572726,61.6807782 L55.3657984,61.7527097 C55.735856,61.8315745 56.0079827,61.8783733 56.2783761,61.9217056 C56.2870425,61.9217056 56.4491053,61.9529048 56.4577717,61.9546381 L56.635434,61.9858374 C56.8884945,62.0239698 57.1519548,62.055169 57.4119484,62.0855016 L57.8166718,62.1340338 C58.0766655,62.1617664 58.3262594,62.177366 58.5758533,62.1929656 L59.0455752,62.2293648 C59.8628219,62.2657639 60.7251341,62.2657639 61.5380476,62.2293648 L61.7564423,62.2120318 C62.1949649,62.1808326 62.4705582,62.165233 62.7444181,62.1349004 L63.1370086,62.0881015 C63.4004688,62.0569023 63.6725955,62.0257031 63.9429889,61.9849707 C63.9481887,61.9832374 64.2697142,61.9217056 64.2749141,61.9217056 C64.5591738,61.8749067 64.8339004,61.8289745 65.1025605,61.7735092 C65.1077604,61.7735092 65.3989533,61.7033109 65.4041532,61.7033109 C65.6866796,61.6409125 65.9640062,61.5793806 66.2369995,61.5083157 C66.2387328,61.5083157 66.4709938,61.4398507 66.4744604,61.4398507 C66.776053,61.3575194 67.0594461,61.2795213 67.3350394,61.1902568 L67.5213681,61.1269917 C67.8298939,61.0238609 68.1236868,60.9259299 68.4096798,60.8201992 C68.4183462,60.8167326 68.5838755,60.7526008 68.592542,60.7482676 C68.8542689,60.6468701 69.1506617,60.5281396 69.4409879,60.402476 C69.8474446,60.2213471 70.1481706,60.0844172 70.4376302,59.9396874 C70.814621,59.7472921 71.1144804,59.5904292 71.4100065,59.4248999 C71.7401984,59.2385711 72.0348579,59.0600422 72.3260508,58.87718 C72.3329839,58.8737134 72.3416504,58.8685135 72.3485836,58.8633136 C73.8340139,57.9204033 75.1781811,56.8032973 76.342086,55.5431947 C79.8797329,51.7152216 81.5488922,46.7970084 80.9205742,42.0469244 C80.872042,41.6751335 81.0618374,41.3102757 81.3954959,41.1378133 C81.8825507,40.8830195 82.2682079,40.6438253 82.6105329,40.3820984 C86.5797693,37.3609722 87.4854138,31.4729827 84.6315502,27.2584856 C83.2423175,25.2054024 81.1840344,23.8638352 78.8362918,23.4799113 C76.5604807,23.1081203 74.2716699,23.6879062 72.3936491,25.1152713 C71.9750593,25.4367968 71.567736,25.8189875 71.1508795,26.2861094 C70.8752862,26.5946352 70.4176974,26.6734999 70.0563062,26.4767714 C67.0074474,24.8180119 63.6266633,23.9297003 60.2840116,23.9106341 C56.9534929,23.9297003 53.5727088,24.8180119 50.5160502,26.4785047 C50.1494591,26.6778331 49.6979368,26.5955018 49.4214769,26.2861094 C49.0115536,25.8233207 48.6059635,25.44113 48.1804406,25.1170046 C46.3024198,23.6879062 44.0084091,23.1133202 41.7360646,23.4833778 C39.3900553,23.8690351 37.3343722,25.211469 35.9442728,27.2636855 C33.0886759,31.4790492 33.9925871,37.3661721 37.9618235,40.3872983 L37.9618235,40.3872983 C38.3006819,40.6438253 38.6898057,40.8864861 39.1820604,41.1464797 C39.5139856,41.3206755 39.7003144,41.6837999 39.6517822,42.0538576 C39.0234642,46.8065415 40.6917568,51.7256213 44.2320037,55.5501279 C44.4625314,55.7997218 44.6982589,56.0423825 44.942653,56.2815767 C44.9530527,56.2919765 44.9634525,56.3023762 44.9738522,56.3145092 C45.7087676,57.0251585 46.5026149,57.6846758 47.3389278,58.2748614 C47.6335872,58.4863229 47.9204469,58.6743849 48.2081732,58.8598471 C48.5210322,59.0591755 48.8104918,59.2299047 49.103418,59.395434 C49.4544094,59.5947624 49.743869,59.7464254 50.0376619,59.8928885 C50.4163859,60.0835505 50.7058455,60.2161473 50.9961718,60.3452774 C51.4095617,60.5281396 51.6912215,60.6399369 51.9772145,60.7500009 L51.8602173,61.6643119 L52.1730764,60.8262657 C52.4469363,60.9293965 52.7277295,61.0238609 53.0128559,61.1174586 L52.9729902,62.0465026 L53.2451168,61.1954567 L53.2451168,61.1954567 Z M74.2569369,94.2458494 C73.8678131,94.2458494 73.4734894,94.21985 73.0765658,94.1652514 C73.0765658,94.1652514 73.0765658,94.1652514 73.0748325,94.1652514 C70.5598272,93.8194598 68.453012,92.4700928 67.1417774,90.3676108 C65.8166764,88.2382628 65.5116172,85.6357264 66.3071978,83.2290518 C67.8064945,78.6713631 71.9117942,75.4760412 75.5699049,75.9466297 C79.3259465,76.4874165 82.3176067,80.5753833 82.5360014,85.458064 C82.6477987,87.7694076 81.8028193,90.0486852 80.2159914,91.7083114 C78.6482297,93.3523379 76.5223483,94.2458494 74.2569369,94.2458494 L74.2569369,94.2458494 Z M73.3192265,92.3955612 C75.4312416,92.6746211 77.4843248,91.9839046 78.9255562,90.4742082 C80.1735258,89.1647068 80.8399761,87.3672841 80.7533116,85.541262 C80.5695827,81.4966275 78.2383064,78.1349096 75.3246442,77.7180531 C75.1625815,77.6955203 74.9857858,77.6851206 74.8098568,77.6851206 C72.0313913,77.6851206 69.1688612,80.2512579 68.0040897,83.7871715 C67.3757717,85.6911917 67.6149658,87.7442749 68.6601403,89.4212339 C69.6853819,91.0669937 71.3398082,92.1234346 73.3192265,92.3955612 L73.3192265,92.3955612 L73.3192265,92.3955612 Z M46.3015531,94.2458494 C44.0309419,94.2458494 41.9189268,93.3454047 40.356365,91.7100447 C38.7712704,90.0469519 37.9245577,87.7668076 38.0346217,85.4545975 C38.256483,80.5745167 41.2464099,76.4865498 44.9903185,75.9474963 C45.255512,75.9128305 45.5085725,75.8972309 45.7650996,75.8972309 C49.29408,75.8972309 52.8689927,78.9816222 54.2651586,83.2316518 C55.0624725,85.6348597 54.7574132,88.2373961 53.430579,90.3684774 C52.1193443,92.4718261 50.0133958,93.8194598 47.4975239,94.1635181 C47.098867,94.2181167 46.6958768,94.2458494 46.3015531,94.2458494 L46.3015531,94.2458494 Z M45.7659662,77.6825206 C45.5865706,77.6825206 45.4097749,77.6946537 45.2338459,77.7171865 C42.33665,78.1323096 40.0045069,81.4957608 39.8199114,85.5351955 C39.7341135,87.3646841 40.4014306,89.1638402 41.6511334,90.4750748 C43.0897649,91.9795714 45.1281151,92.691954 47.2557298,92.391228 C49.2368814,92.1208346 50.8913077,91.0643938 51.9139494,89.4203673 C52.9608571,87.7408083 53.2000513,85.690325 52.57,83.7897715 C51.4069617,80.2503912 48.546165,77.6825206 45.7659662,77.6825206 L45.7659662,77.6825206 Z M60.2935447,58.4620568 C55.1231376,58.4360574 50.5611157,54.9452093 49.6684709,50.3424551 C49.2654807,48.2833054 49.8530664,46.1582906 51.328097,44.3608679 C53.3213817,41.9394604 56.6692332,40.4947623 60.2874782,40.4947623 C63.9057231,40.4947623 67.2535747,41.940327 69.245126,44.3626012 C70.72189,46.1548241 71.3120755,48.2815721 70.9030189,50.3459217 C70.0138406,54.9434761 65.450952,58.4343241 60.2935447,58.4620568 L60.2935447,58.4620568 Z M60.2874782,42.2817853 C57.197887,42.2817853 54.3648228,43.482956 52.7086633,45.4953068 C51.5794242,46.8724065 51.1235687,48.4713675 51.4225614,50.0001301 C52.1557435,53.7839044 55.9698503,56.6516343 60.292678,56.6750338 C64.6059727,56.6507677 68.4174796,53.7830377 69.1489284,50.0035967 C69.450521,48.4696342 68.9955321,46.8706732 67.8645598,45.4970401 C66.2084002,43.4838226 63.3770694,42.2817853 60.2874782,42.2817853 L60.2874782,42.2817853 Z M60.2857449,55.4261976 C57.8634707,55.4261976 55.70899,54.4520881 54.3821557,52.8184613 C54.1602945,52.5619342 53.9722324,52.2915408 53.8257693,52.0081478 C53.770304,51.9084835 53.7157054,51.807086 53.6654399,51.7065551 C53.4435787,51.2645659 53.6203743,50.728979 54.0614969,50.5071178 C54.5000195,50.2800566 55.0408063,50.4603189 55.2609343,50.9031747 C55.4004642,51.1805013 55.5677268,51.4387617 55.7618554,51.6796891 C56.498504,52.4986691 57.9423354,53.2240514 59.3956999,53.5091778 L59.3956999,50.1717259 C58.1893294,49.8502005 56.5782354,49.1958831 56.105047,47.4313929 C55.7783216,46.7242102 55.8086542,45.9927614 56.1925782,45.3592435 C56.8156963,44.3314019 58.2629943,43.7325499 60.1652811,43.7169503 C62.067568,43.7654824 63.6231967,44.2863364 64.3104466,45.2916451 C64.7325029,45.9095634 64.8096344,46.6410122 64.5253746,47.3499282 C63.9386556,48.6152306 63.0954096,49.9056658 61.182723,50.3190557 L61.182723,53.5811093 C63.0399443,53.3419152 64.5773734,52.3608725 65.314022,50.9014415 C65.5358833,50.4594523 66.0749368,50.2852565 66.5151927,50.5071178 C66.9554486,50.728979 67.1313777,51.2662992 66.9095164,51.7082884 C65.7525447,54.002299 63.2150067,55.4261976 60.2857449,55.4261976 L60.2857449,55.4261976 Z M60.2528123,45.5057066 L60.1808808,45.5057066 C58.8089809,45.5178396 57.9432021,45.9190965 57.7196076,46.2874208 C57.6832084,46.3498193 57.6130102,46.4633499 57.7438736,46.7181436 C57.7768062,46.7814088 57.8010722,46.8490071 57.8175385,46.9174721 C58.0688657,47.9695797 59.1825052,48.3032383 60.4010087,48.5788315 C60.4460743,48.5892313 60.4937398,48.6030976 60.5370721,48.6204305 C60.5422719,48.6186972 60.5457385,48.6186972 60.5509384,48.6169639 C61.8214407,48.4323684 62.3700273,47.7511851 62.886548,46.6410122 C62.9368134,46.5084154 62.9073475,46.4070179 62.8362826,46.3021538 C62.571089,45.9156299 61.6507115,45.5057066 60.2528123,45.5057066 L60.2528123,45.5057066 Z M66.719721,40.1221048 C65.2758896,40.1221048 64.1466506,38.6366744 64.1466506,36.7395874 C64.1466506,34.8425004 65.2758896,33.35707 66.719721,33.35707 C68.1618192,33.35707 69.2910582,34.8425004 69.2910582,36.7395874 C69.2910582,38.6366744 68.1618192,40.1221048 66.719721,40.1221048 L66.719721,40.1221048 Z M66.719721,35.144093 C66.406862,35.144093 65.9345402,35.7810775 65.9345402,36.7395874 C65.9345402,37.6980973 66.4077287,38.3350817 66.719721,38.3350817 C67.0317134,38.3350817 67.5031686,37.6980973 67.5031686,36.7395874 C67.5031686,35.7810775 67.0325801,35.144093 66.719721,35.144093 L66.719721,35.144093 Z M53.8543686,40.1221048 C52.4105372,40.1221048 51.2812981,38.6366744 51.2812981,36.7395874 C51.2812981,34.8425004 52.4105372,33.35707 53.8543686,33.35707 C55.2964667,33.35707 56.4257058,34.8425004 56.4257058,36.7395874 C56.4257058,38.6366744 55.2956001,40.1221048 53.8543686,40.1221048 L53.8543686,40.1221048 Z M53.8543686,35.144093 C53.5423763,35.144093 53.0691878,35.7810775 53.0691878,36.7395874 C53.0691878,37.6980973 53.5423763,38.3350817 53.8543686,38.3350817 C54.1672277,38.3350817 54.6378162,37.6980973 54.6378162,36.7395874 C54.6378162,35.7810775 54.166361,35.144093 53.8543686,35.144093 L53.8543686,35.144093 Z M80.0339958,37.8358939 C79.9360649,37.8358939 79.8398672,37.8202943 79.7462695,37.7890951 C79.5018755,37.7050305 79.3060136,37.5221683 79.2089493,37.2847074 C77.9731128,34.2947804 76.014494,31.5977796 73.5462876,29.4874978 C73.3625588,29.330635 73.2516282,29.1070405 73.2360285,28.866113 C73.2204289,28.6251856 73.3018936,28.3877247 73.464823,28.2100624 C73.7126836,27.9344691 73.9796104,27.677942 74.2803364,27.4526142 C75.5283059,26.5010375 77.0518687,26.1188468 78.5754315,26.3649741 C80.1310601,26.6197679 81.4908269,27.5028797 82.4034046,28.8505134 C84.243293,31.5683137 83.6496408,35.3685542 81.0800369,37.3211065 C80.8876416,37.4693029 80.6857132,37.5984331 80.4794516,37.7171635 C80.3433883,37.7960282 80.1891254,37.8358939 80.0339958,37.8358939 L80.0339958,37.8358939 Z M75.4589742,28.8011146 C77.5085909,30.7207344 79.1924831,33.0251448 80.395387,35.5540163 C81.8773508,34.0945853 82.1373445,31.6454451 80.9223075,29.851489 C80.2870563,28.9137785 79.3510792,28.3019268 78.2851052,28.1268644 C77.2988626,27.9639351 76.2935539,28.2048625 75.4589742,28.8011146 L75.4589742,28.8011146 Z M40.5366273,37.8358939 C40.3814977,37.8358939 40.2272348,37.7960282 40.0911715,37.7171635 C39.8849099,37.5984331 39.6881813,37.4710362 39.4923194,37.3245731 C36.9227155,35.3676876 36.32993,31.5665804 38.1689518,28.8505134 L38.1689518,28.8505134 C39.0815295,27.5011464 40.4430296,26.6197679 41.9986582,26.3649741 C43.5170211,26.1188468 45.0440505,26.5010375 46.2928867,27.4526142 C46.5910127,27.6762088 46.8596728,27.9344691 47.1075334,28.2117957 C47.2678628,28.3920579 47.3501942,28.6269189 47.3345946,28.8678463 C47.3189949,29.1070405 47.2071977,29.330635 47.0243355,29.4874978 C44.5561291,31.6012462 42.5975103,34.2965137 41.3616738,37.2847074 C41.2637428,37.5221683 41.0687476,37.7050305 40.8243536,37.7890951 C40.7298892,37.8202943 40.6336916,37.8358939 40.5366273,37.8358939 L40.5366273,37.8358939 Z M39.6491823,29.8523556 C38.4341453,31.6463118 38.6924056,34.095452 40.1743694,35.554883 C41.3772734,33.0277447 43.0611656,30.7233343 45.1125155,28.8019813 C44.2744693,28.2048625 43.2743604,27.9674016 42.2881178,28.1285977 C41.2221439,28.3019268 40.2844334,28.9146452 39.6491823,29.8523556 L39.6491823,29.8523556 L39.6491823,29.8523556 Z" id="Shape" fill="#F7D277" sketch:type="MSShapeGroup"></path>
            </g>
        </g>
    </g>
</svg>