<?xml version="1.0" encoding="UTF-8" standalone="no"?>
<svg width="123px" height="123px" viewBox="0 0 123 123" version="1.1" xmlns="http://www.w3.org/2000/svg" xmlns:xlink="http://www.w3.org/1999/xlink" xmlns:sketch="http://www.bohemiancoding.com/sketch/ns">
    <!-- Generator: Sketch 3.3.2 (12043) - http://www.bohemiancoding.com/sketch -->
    <title>icon-alimentacao copy</title>
    <desc>Created with Sketch.</desc>
    <defs></defs>
    <g id="App-(Flow)" stroke="none" stroke-width="1" fill="none" fill-rule="evenodd" sketch:type="MSPage">
        <g id="New-Product---02" sketch:type="MSArtboardGroup" transform="translate(-262.000000, -263.000000)">
            <g id="icon-alimentacao-copy" sketch:type="MSLayerGroup" transform="translate(264.000000, 265.000000)">
                <ellipse id="Oval" stroke="#F7D277" stroke-width="3" sketch:type="MSShapeGroup" cx="59.7790604" cy="59.7790604" rx="59.7013243" ry="59.7013243"></ellipse>
                <path d="M71.5172114,46.4084513 C72.2168363,46.4084513 72.760989,46.952604 72.760989,47.6522289 L72.760989,87.2976396 C72.760989,87.9972645 72.2168363,88.5414172 71.5172114,88.5414172 L49.2069509,88.5414172 C48.507326,88.5414172 47.9631733,87.9972645 47.9631733,87.2976396 L47.9631733,47.6522289 C47.9631733,46.952604 48.507326,46.4084513 49.2069509,46.4084513 L71.5172114,46.4084513 L71.5172114,46.4084513 Z M71.5172114,43.6876878 L49.2069509,43.6876878 C47.0303401,43.6876878 45.2424098,45.4756181 45.2424098,47.6522289 L45.2424098,87.2976396 C45.2424098,89.4742504 47.0303401,91.2621807 49.2069509,91.2621807 L71.5172114,91.2621807 C73.6938222,91.2621807 75.4817525,89.4742504 75.4817525,87.2976396 L75.4817525,47.6522289 C75.4817525,45.4756181 73.6938222,43.6876878 71.5172114,43.6876878 L71.5172114,43.6876878 L71.5172114,43.6876878 Z" id="Shape" fill="#F7D277" sketch:type="MSShapeGroup"></path>
                <path d="M70.1179616,45.4756181 L50.5284646,45.4756181 C49.3624231,45.4756181 48.3518538,44.5427849 48.3518538,43.2990073 L48.3518538,39.5676746 C48.3518538,38.4016331 49.284687,37.3910638 50.5284646,37.3910638 L70.1179616,37.3910638 C71.2840031,37.3910638 72.2945724,38.323897 72.2945724,39.5676746 L72.2945724,43.2990073 C72.2945724,44.4650488 71.3617392,45.4756181 70.1179616,45.4756181 L70.1179616,45.4756181 Z M51.0726173,42.7548547 L69.5738089,42.7548547 L69.5738089,40.1118273 L51.0726173,40.1118273 L51.0726173,42.7548547 L51.0726173,42.7548547 Z" id="Shape" fill="#F7D277" sketch:type="MSShapeGroup"></path>
                <g id="Group" transform="translate(45.086938, 56.747353)" fill="#F7D277" sketch:type="MSShapeGroup">
                    <path d="M8.47323483,3.10944397 L1.78793029,3.10944397 C1.08830539,3.10944397 0.466416596,2.48755518 0.466416596,1.78793029 C0.466416596,1.08830539 1.08830539,0.466416596 1.78793029,0.466416596 L8.47323483,0.466416596 C9.17285973,0.466416596 9.79474852,1.08830539 9.79474852,1.78793029 C9.79474852,2.48755518 9.25059583,3.10944397 8.47323483,3.10944397 L8.47323483,3.10944397 Z" id="Shape"></path>
                    <path d="M8.47323483,12.4377759 L1.78793029,12.4377759 C1.08830539,12.4377759 0.466416596,11.8158871 0.466416596,11.1162622 C0.466416596,10.4166373 1.08830539,9.79474852 1.78793029,9.79474852 L8.47323483,9.79474852 C9.17285973,9.79474852 9.79474852,10.4166373 9.79474852,11.1162622 C9.79474852,11.8158871 9.25059583,12.4377759 8.47323483,12.4377759 L8.47323483,12.4377759 Z" id="Shape"></path>
                    <path d="M8.47323483,21.92158 L1.78793029,21.92158 C1.08830539,21.92158 0.466416596,21.2996912 0.466416596,20.6000663 C0.466416596,19.9004414 1.08830539,19.2785526 1.78793029,19.2785526 L8.47323483,19.2785526 C9.17285973,19.2785526 9.79474852,19.9004414 9.79474852,20.6000663 C9.79474852,21.2996912 9.25059583,21.92158 8.47323483,21.92158 L8.47323483,21.92158 Z" id="Shape"></path>
                </g>
                <path d="M69.4960728,38.9457858 L66.8530455,38.4793692 C66.8530455,38.4793692 67.6304065,32.7268978 63.7436015,31.0167036 L63.1217127,30.7057593 L62.9662405,29.9283983 C62.9662405,29.8506622 62.4220878,26.8189543 60.1677409,26.8189543 C57.913394,26.8189543 57.3692413,29.9283983 57.3692413,29.9283983 L57.2915052,30.6280232 L56.6696164,30.9389675 C52.7828115,32.6491617 53.5601725,38.4016331 53.5601725,38.4016331 L50.9171451,38.7903136 C50.9171451,38.7125775 50.6062007,36.8469111 50.9948812,34.6703003 C51.4612978,31.9495368 52.8605476,29.8506622 54.9594223,28.6846207 C55.503575,26.7412182 57.0582969,23.9427186 60.3232131,23.9427186 C63.5881293,23.9427186 65.1428513,26.7412182 65.687004,28.6846207 C67.7858787,29.8506622 69.1073923,31.8718007 69.651545,34.6703003 C69.8070172,37.0023833 69.5738089,38.8680497 69.4960728,38.9457858 L69.4960728,38.9457858 Z" id="Shape" fill="#F7D277" sketch:type="MSShapeGroup"></path>
            </g>
        </g>
    </g>
</svg>