<?xml version="1.0" encoding="UTF-8" standalone="no"?>
<svg width="22px" height="23px" viewBox="0 0 22 23" version="1.1" xmlns="http://www.w3.org/2000/svg" xmlns:xlink="http://www.w3.org/1999/xlink" xmlns:sketch="http://www.bohemiancoding.com/sketch/ns">
    <!-- Generator: Sketch 3.3.2 (12043) - http://www.bohemiancoding.com/sketch -->
    <title>Shape Copy 2</title>
    <desc>Created with Sketch.</desc>
    <defs></defs>
    <g id="App-(Flow)" stroke="none" stroke-width="1" fill="none" fill-rule="evenodd" sketch:type="MSPage">
        <g id="Product" sketch:type="MSArtboardGroup" transform="translate(-21.000000, -922.000000)" fill="#C6C6C8">
            <g id="Group" sketch:type="MSLayerGroup" transform="translate(20.000000, 819.000000)">
                <path d="M12.0137454,125.937941 C10.6392043,125.937941 9.73200714,125.415615 9.73200714,124.645872 C9.73200714,122.886459 8.13753943,120.962102 5.55340211,120.962102 C5.27849388,120.962102 5.0585673,120.742175 5.0585673,120.467267 L5.0585673,111.065406 L3.62904453,111.175369 C3.49159042,111.175369 3.32664548,111.120387 3.21668219,111.010424 L1.12737967,108.673704 C0.962434739,108.508759 0.962434739,108.233851 1.09988885,108.041415 C1.23734297,107.87647 4.31631509,103.945283 8.41244766,103.010595 C8.65986506,102.955613 8.93477328,103.120558 8.98975493,103.367975 C9.26466315,104.467608 10.3642961,107.574071 11.8762913,107.574071 C13.4432682,107.574071 14.6803552,104.440117 14.9827542,103.367975 C15.0652267,103.120558 15.3126441,102.955613 15.5600615,103.038085 C19.6561941,104.000264 22.762657,107.87647 22.9001111,108.041415 C23.0375653,108.233851 23.0375653,108.508759 22.8726203,108.673704 L20.6458637,111.037915 C20.5359004,111.147878 20.3984463,111.20286 20.2609922,111.20286 L18.6940153,111.092896 L18.6940153,120.522249 C18.6940153,120.797157 18.4740887,121.017083 18.1991805,121.017083 C16.4672587,121.017083 14.240502,123.078895 14.240502,124.700854 C14.2679929,125.443106 13.3882865,125.937941 12.0137454,125.937941 L12.0137454,125.937941 L12.0137454,125.937941 Z M6.02074609,120.027414 C8.90728246,120.24734 10.6941859,122.529079 10.6941859,124.645872 C10.7216768,124.728344 11.1890207,124.975762 11.9862546,124.975762 C12.7834884,124.975762 13.2508324,124.728344 13.2783232,124.645872 C13.2783232,122.639042 15.5325707,120.357304 17.7043457,120.027414 L17.7043457,110.54308 C17.7043457,110.405626 17.7593273,110.268172 17.8692906,110.185699 C17.9792539,110.103227 18.0892172,110.048245 18.2266713,110.048245 L20.0685564,110.185699 L21.8279691,108.316323 C21.058226,107.436617 18.6665245,104.962443 15.7524973,104.082737 C15.3126441,105.347315 14.0205755,108.53625 11.8762913,108.53625 C9.70451632,108.53625 8.52241095,105.347315 8.13753943,104.082737 C5.22351224,104.962443 2.83181067,107.464108 2.08955846,108.343814 L3.73900782,110.185699 L5.47092964,110.048245 C5.60838375,110.048245 5.74583787,110.075736 5.82831033,110.185699 C5.93827362,110.268172 5.99325527,110.405626 5.99325527,110.54308 L6.02074609,120.027414 L6.02074609,120.027414 Z" id="Shape-Copy-2" sketch:type="MSShapeGroup"></path>
            </g>
        </g>
    </g>
</svg>