<?xml version="1.0" encoding="UTF-8" standalone="no"?>
<svg width="123px" height="123px" viewBox="0 0 123 123" version="1.1" xmlns="http://www.w3.org/2000/svg" xmlns:xlink="http://www.w3.org/1999/xlink" xmlns:sketch="http://www.bohemiancoding.com/sketch/ns">
    <!-- Generator: Sketch 3.3.2 (12043) - http://www.bohemiancoding.com/sketch -->
    <title>add copy 4</title>
    <desc>Created with Sketch.</desc>
    <defs></defs>
    <g id="App-(Flow)" stroke="none" stroke-width="1" fill="none" fill-rule="evenodd" sketch:type="MSPage">
        <g id="New-Product---02" sketch:type="MSArtboardGroup" transform="translate(-55.000000, -498.000000)">
            <g id="add-copy-4" sketch:type="MSLayerGroup" transform="translate(57.000000, 500.000000)">
                <g id="bg-+-icon-banho" sketch:type="MSShapeGroup">
                    <ellipse id="bg" stroke="#F7D277" stroke-width="3" cx="59.4153961" cy="59.4153961" rx="59.4153961" ry="59.4153961"></ellipse>
                    <g id="icon-banho" transform="translate(21.488036, 20.898910)" fill="#F7D277">
                        <g id="Group" transform="translate(0.661248, 1.019065)">
                            <path d="M55.3707206,62.0281973 C54.9647769,62.0281973 54.5588332,61.7846311 54.3964558,61.3786874 C54.1528895,60.8103662 54.3964558,60.242045 54.9647769,59.9984788 C56.6697405,59.2677802 58.2123265,58.2123265 59.5113464,56.9133067 C60.8103662,55.6142869 61.8658198,54.0717008 62.5965185,52.3667373 C62.8400847,51.7984161 63.4895946,51.5548499 63.9767271,51.7984161 C64.5450483,52.0419823 64.7886145,52.6914922 64.5450483,53.1786247 C63.7331609,55.1271544 62.5153298,56.9133067 60.9727437,58.4558928 C59.4301576,59.9984788 57.7251941,61.1351212 55.6954756,62.0281973 C55.6142869,62.0281973 55.5330981,62.0281973 55.3707206,62.0281973 L55.3707206,62.0281973 Z" id="Shape"></path>
                            <path d="M8.76838392,21.1090724 C6.4950992,21.1090724 4.62775818,19.2417314 4.62775818,16.9684467 C4.62775818,14.6951619 6.4950992,12.8278209 8.76838392,12.8278209 C11.0416686,12.8278209 12.9090097,14.6951619 12.9090097,16.9684467 C12.9090097,19.2417314 11.0416686,21.1090724 8.76838392,21.1090724 L8.76838392,21.1090724 Z M8.76838392,14.9387282 C7.63174156,14.9387282 6.73866542,15.8318043 6.73866542,16.9684467 C6.73866542,18.105089 7.63174156,18.9981651 8.76838392,18.9981651 C9.90502627,18.9981651 10.7981024,18.105089 10.7981024,16.9684467 C10.7981024,15.8318043 9.90502627,14.9387282 8.76838392,14.9387282 L8.76838392,14.9387282 Z" id="Shape"></path>
                            <path d="M21.1902611,31.8259861 C20.6219399,31.8259861 20.1348075,31.3388536 20.1348075,30.7705324 C20.1348075,29.958645 19.4852976,29.3903239 18.7545989,29.3903239 C18.0239003,29.3903239 17.3743904,30.0398338 17.3743904,30.7705324 C17.3743904,31.3388536 16.8872579,31.8259861 16.3189367,31.8259861 C15.7506156,31.8259861 15.2634831,31.3388536 15.2634831,30.7705324 C15.2634831,28.8220027 16.8872579,27.1982279 18.8357877,27.1982279 C20.7843174,27.1982279 22.4080922,28.8220027 22.4080922,30.7705324 C22.2457147,31.3388536 21.7585823,31.8259861 21.1902611,31.8259861 L21.1902611,31.8259861 Z" id="Shape"></path>
                            <path d="M26.1427743,38.3210853 C25.5744531,38.3210853 25.0873206,37.8339528 25.0873206,37.2656316 C25.0873206,36.4537442 24.4378107,35.8854231 23.7071121,35.8854231 C22.8952247,35.8854231 22.3269035,36.534933 22.3269035,37.2656316 C22.3269035,37.8339528 21.839771,38.3210853 21.2714499,38.3210853 C20.7031287,38.3210853 20.2159962,37.8339528 20.2159962,37.2656316 C20.2159962,35.3171019 21.839771,33.6933271 23.7883008,33.6933271 C25.7368306,33.6933271 27.3606054,35.3171019 27.3606054,37.2656316 C27.1982279,37.8339528 26.7110954,38.3210853 26.1427743,38.3210853 L26.1427743,38.3210853 Z" id="Shape"></path>
                            <path d="M12.9901984,10.7169137 C11.2040461,10.7169137 9.82383753,9.33670509 9.82383753,7.55055282 C9.82383753,5.76440054 11.2852349,4.38419196 12.9901984,4.38419196 C14.7763507,4.38419196 16.1565593,5.76440054 16.1565593,7.55055282 C16.1565593,9.33670509 14.7763507,10.7169137 12.9901984,10.7169137 L12.9901984,10.7169137 Z M12.9901984,6.57628794 C12.4218772,6.57628794 11.9347448,7.06342038 11.9347448,7.63174156 C11.9347448,8.20006274 12.4218772,8.68719518 12.9901984,8.68719518 C13.5585196,8.68719518 14.045652,8.20006274 14.045652,7.63174156 C14.045652,7.06342038 13.5585196,6.57628794 12.9901984,6.57628794 L12.9901984,6.57628794 Z" id="Shape"></path>
                            <g transform="translate(43.030032, 8.930761)" id="Shape">
                                <path d="M5.35845684,0.16237748 C5.35845684,0.16237748 4.79013566,4.54656944 3.32873834,3.73468204 C1.86734102,2.8416059 5.35845684,0.16237748 5.35845684,0.16237748 L5.35845684,0.16237748 Z"></path>
                                <path d="M8.118874,1.78615228 C8.118874,1.78615228 7.55055282,6.17034424 6.0891555,5.35845684 C4.62775818,4.4653807 8.118874,1.78615228 8.118874,1.78615228 L8.118874,1.78615228 Z"></path>
                                <path d="M10.8792912,3.40992708 C10.8792912,3.40992708 10.31097,7.79411904 8.84957266,6.98223164 C7.38817534,6.0891555 10.8792912,3.40992708 10.8792912,3.40992708 L10.8792912,3.40992708 Z"></path>
                                <path d="M2.51685094,5.11489062 C2.51685094,5.11489062 1.94852976,9.49908257 0.48713244,8.68719518 C-1.05545362,7.79411904 2.51685094,5.11489062 2.51685094,5.11489062 L2.51685094,5.11489062 Z"></path>
                                <path d="M5.2772681,6.73866542 C5.2772681,6.73866542 4.70894692,11.1228574 3.2475496,10.31097 C1.78615228,9.49908257 5.2772681,6.73866542 5.2772681,6.73866542 L5.2772681,6.73866542 Z"></path>
                                <path d="M8.03768526,8.36244022 C8.03768526,8.36244022 7.46936408,12.7466322 6.00796676,11.9347448 C4.54656944,11.0416686 8.03768526,8.36244022 8.03768526,8.36244022 L8.03768526,8.36244022 Z"></path>
                            </g>
                            <path d="M69.4163727,41.6498236 C69.4163727,41.0815024 68.9292402,40.59437 68.360919,40.59437 L64.626237,40.59437 L64.626237,1.2178311 C64.626237,0.64950992 64.1391046,0.16237748 63.5707834,0.16237748 L57.0756842,0.16237748 C56.6697405,0.16237748 56.3449855,0.32475496 56.182608,0.64950992 L54.4776445,3.32873834 C54.315267,3.2475496 54.1528895,3.16636086 53.9093233,3.08517212 C53.5033796,2.92279464 53.0162472,2.8416059 52.5291148,2.76041716 C52.0419823,2.67922842 51.6360386,2.67922842 51.1489062,2.76041716 C50.6617737,2.76041716 50.25583,2.8416059 49.8498863,3.00398338 C49.4439426,3.08517212 48.9568102,3.2475496 48.5508665,3.49111582 C48.1449228,3.6534933 47.7389791,3.89705952 47.4142241,4.22181448 C47.0894692,4.4653807 46.6835255,4.79013566 46.4399593,5.11489062 C46.196393,5.35845684 46.1152043,5.6832118 46.196393,6.00796676 C46.2775818,6.33272172 46.4399593,6.57628794 46.6835255,6.73866542 L56.7509292,12.5842547 C56.9133067,12.6654434 57.0756842,12.7466322 57.3192504,12.7466322 C57.4816279,12.7466322 57.5628166,12.7466322 57.7251941,12.6654434 C58.0499491,12.5842547 58.2935153,12.3406885 58.374704,12.0159335 C58.5370815,11.6099898 58.6182702,11.1228574 58.699459,10.6357249 C58.7806477,10.1485925 58.7806477,9.74264879 58.699459,9.25551635 C58.699459,8.84957266 58.6182702,8.36244022 58.4558928,7.95649652 C58.374704,7.55055282 58.2123265,7.06342038 57.9687603,6.73866542 C57.8063828,6.33272172 57.5628166,5.92677802 57.2380617,5.60202306 C56.9944954,5.19607936 56.6697405,4.8713244 56.2637968,4.62775818 L56.182608,4.54656944 L57.5628166,2.35447346 L62.434141,2.35447346 L62.434141,40.7567475 L55.9390418,40.7567475 C56.9133067,39.6201051 57.4816279,38.2398965 57.4816279,36.6161217 C57.4816279,33.1250059 54.640022,30.3645887 51.2300949,30.3645887 C47.8201678,30.3645887 44.9785619,33.2061946 44.9785619,36.6161217 C44.9785619,38.2398965 45.5468831,39.6201051 46.521148,40.7567475 L39.7012938,40.7567475 C39.7824826,40.4319925 39.7824826,40.0260488 39.7824826,39.6201051 C39.7824826,36.210178 37.3468204,33.2873834 34.0992708,32.5566847 C34.667592,31.5824198 34.9923469,30.4457775 34.9923469,29.3091351 C34.9923469,25.9803968 32.5566847,23.2199796 29.3091351,22.8140359 C29.4715126,22.2457147 29.5527013,21.6773936 29.5527013,21.1090724 C29.5527013,17.7803341 26.7922842,15.0199169 23.4635458,15.0199169 C20.1348075,15.0199169 17.3743904,17.7803341 17.3743904,21.1090724 L17.3743904,21.6773936 L16.8872579,21.6773936 C12.9901984,21.6773936 9.82383753,24.8437544 9.82383753,28.7408139 C9.82383753,29.3903239 9.90502627,30.1210225 10.1485925,30.6893437 C7.63174156,32.2319298 6.17034424,34.9923469 6.17034424,37.9963303 C6.17034424,38.8894064 6.33272172,39.7824826 6.57628794,40.6755587 L1.78615228,40.6755587 C1.2178311,40.6755587 0.73069866,41.1626912 0.73069866,41.7310123 L0.56832118,49.2003764 L0.56832118,50.3370188 C0.56832118,52.5291148 0.974264879,54.7212107 1.86734102,56.7509292 C2.67922842,58.699459 3.89705952,60.4856113 5.43964558,62.0281973 C6.98223164,63.5707834 8.68719518,64.7074257 10.7169137,65.6005019 C12.4218772,66.3312005 14.2080295,66.7371442 16.0753705,66.818333 L16.0753705,66.8995217 C16.1565593,67.3866542 16.1565593,68.8480515 15.5070493,69.6599389 C15.1822944,69.9846938 14.7763507,70.1470713 14.1268408,70.1470713 C13.5585196,70.1470713 13.0713871,70.6342038 13.0713871,71.2025249 C13.0713871,71.7708461 13.5585196,72.2579786 14.1268408,72.2579786 C15.6694268,72.2579786 16.6436917,71.6084686 17.1308241,70.9589587 C18.3486552,69.5787501 18.2674665,67.5490316 18.1862777,66.818333 L53.0974359,66.818333 C53.0162472,67.5490316 52.9350585,69.5787501 54.1528895,70.9589587 C54.640022,71.5272799 55.5330981,72.2579786 57.1568729,72.2579786 C57.7251941,72.2579786 58.2123265,71.7708461 58.2123265,71.2025249 C58.2123265,70.6342038 57.7251941,70.1470713 57.1568729,70.1470713 C56.507363,70.1470713 56.1014193,69.9846938 55.7766643,69.6599389 C55.1271544,68.9292402 55.1271544,67.4678429 55.2083432,66.8995217 L55.2083432,66.7371442 C56.6697405,66.5747668 58.2123265,66.1688231 59.5925351,65.6005019 C61.5410649,64.7886145 63.3272172,63.5707834 64.8698032,62.0281973 C66.4123893,60.4856113 67.5490316,58.7806477 68.4421078,56.7509292 C69.3351839,54.7212107 69.7411276,52.5291148 69.7411276,50.3370188 L69.4163727,41.6498236 L69.4163727,41.6498236 Z M56.4261743,8.5248177 C56.507363,8.84957266 56.5885517,9.17432761 56.5885517,9.41789383 L56.5885517,9.90502627 L49.1191877,5.60202306 C49.2815652,5.52083432 49.4439426,5.43964558 49.6063201,5.35845684 C49.8498863,5.19607936 50.1746413,5.11489062 50.4993963,5.03370188 C50.8241512,4.95251314 51.0677174,4.8713244 51.3924724,4.8713244 L52.3667373,4.8713244 C52.6914922,4.8713244 53.0162472,4.95251314 53.2598134,5.11489062 C53.5845684,5.19607936 53.9093233,5.35845684 54.1528895,5.52083432 C54.4776445,5.6832118 54.7212107,5.84558928 54.9647769,6.0891555 C55.2083432,6.33272172 55.4519094,6.4950992 55.6142869,6.81985416 C55.7766643,7.06342038 55.9390418,7.3069866 56.1014193,7.63174156 C56.182608,7.95649652 56.3449855,8.20006274 56.4261743,8.5248177 L56.4261743,8.5248177 Z M47.0894692,36.4537442 C47.0894692,34.1804595 48.9568102,32.3131185 51.2300949,32.3131185 C53.5033796,32.3131185 55.3707206,34.1804595 55.3707206,36.4537442 C55.3707206,38.727029 53.5033796,40.59437 51.2300949,40.59437 L51.2300949,40.59437 C48.9568102,40.59437 47.0894692,38.727029 47.0894692,36.4537442 L47.0894692,36.4537442 Z M11.853556,32.0695523 L12.7466322,31.5824198 L12.3406885,30.608155 C12.0159335,29.958645 11.9347448,29.3091351 11.9347448,28.5784365 C11.9347448,25.8180193 14.1268408,23.6259233 16.8872579,23.6259233 C17.4555791,23.6259233 17.9427115,23.7071121 18.429844,23.8694895 L20.7031287,24.6001882 L19.8100525,22.4080922 C19.6476751,21.9209598 19.4852976,21.4338273 19.4852976,20.8655062 C19.4852976,18.6734102 21.2714499,16.8872579 23.4635458,16.8872579 C25.6556418,16.8872579 27.4417941,18.6734102 27.4417941,20.8655062 C27.4417941,21.5962048 27.1982279,22.4080922 26.7922842,22.9764134 L25.4932643,24.9249432 L27.8477378,24.6001882 C28.0101153,24.6001882 28.2536815,24.5189995 28.416059,24.5189995 C30.8517212,24.5189995 32.8002509,26.4675292 32.8002509,28.9031914 C32.8002509,30.2022113 32.2319298,31.4200424 31.2576649,32.2319298 L28.6596252,34.4240257 L31.9883635,34.0992708 L32.475496,34.0992708 C35.3171019,34.0992708 37.5903866,36.3725555 37.5903866,39.2141614 C37.5903866,39.6201051 37.5091979,39.9448601 37.4280091,40.3508038 L8.76838392,40.3508038 C8.36244022,39.5389164 8.20006274,38.6458402 8.20006274,37.6715753 C8.20006274,35.4794794 9.66146005,33.2061946 11.853556,32.0695523 L11.853556,32.0695523 Z M67.4678429,50.4182075 C67.4678429,52.3667373 67.0618992,54.2340783 66.3312005,56.0202306 C65.6005019,57.7251941 64.5450483,59.2677802 63.2460284,60.5668 C61.9470086,61.8658198 60.4044225,62.9212735 58.699459,63.6519721 C56.9133067,64.3826708 55.0459657,64.7886145 53.0974359,64.7886145 L16.9684467,64.7886145 C15.0199169,64.7886145 13.1525759,64.3826708 11.3664236,63.6519721 C9.66146005,62.9212735 8.118874,61.8658198 6.81985416,60.5668 C5.52083432,59.2677802 4.4653807,57.7251941 3.73468204,56.0202306 C3.00398338,54.2340783 2.59803968,52.3667373 2.59803968,50.4182075 L2.59803968,49.2003764 L2.76041716,42.786466 L51.2300949,42.786466 L67.2242767,42.786466 L67.3866542,49.2003764 L67.3866542,50.4182075 L67.4678429,50.4182075 L67.4678429,50.4182075 Z" id="Shape"></path>
                        </g>
                    </g>
                </g>
            </g>
        </g>
    </g>
</svg>