<?xml version="1.0" encoding="UTF-8" standalone="no"?>
<svg width="52px" height="48px" viewBox="0 0 52 48" version="1.1" xmlns="http://www.w3.org/2000/svg" xmlns:xlink="http://www.w3.org/1999/xlink" xmlns:sketch="http://www.bohemiancoding.com/sketch/ns">
    <!-- Generator: Sketch 3.3.2 (12043) - http://www.bohemiancoding.com/sketch -->
    <title>Group Copy</title>
    <desc>Created with Sketch.</desc>
    <defs></defs>
    <g id="App-(Flow)" stroke="none" stroke-width="1" fill="none" fill-rule="evenodd" sketch:type="MSPage">
        <g id="My-Profile" sketch:type="MSArtboardGroup" transform="translate(-39.000000, -1066.000000)" fill="#FFFFFF">
            <g id="Group-Copy" sketch:type="MSLayerGroup" transform="translate(39.000000, 1066.000000)">
                <g id="Shape-+-Shape" transform="translate(0.000000, 0.000000)" sketch:type="MSShapeGroup">
                    <path d="M6.21584716,25.0428349 L6.21584716,46.3829982 C6.21584716,46.7724676 6.37184716,47.1566308 6.64776553,47.431488 C6.9236839,47.7063451 7.30572471,47.8628757 7.69731655,47.8628757 L19.6270717,47.8628757 L19.6270717,32.1933655 C19.6270717,31.8023043 19.7820104,31.418141 20.05899,31.1438145 C20.3338472,30.8673655 20.7169492,30.7092431 21.1048268,30.7092431 L31.2941737,30.7092431 C31.6852349,30.7092431 32.0640921,30.8678962 32.3416023,31.1438145 C32.6180512,31.418141 32.7735206,31.8017737 32.7735206,32.1933655 L32.7735206,47.8628757 L44.7053982,47.8628757 C45.0985819,47.8628757 45.4726635,47.7116513 45.7522961,47.431488 C46.0287451,47.1518553 46.1842145,46.7783043 46.1842145,46.3829982 L46.1842145,25.0152431 L25.984337,9.30965125 L6.21584716,25.0428349 L6.21584716,25.0428349 Z" id="Shape"></path>
                    <path d="M50.4643141,18.3324472 L27.8050488,0.902896151 C26.7427631,0.0846920698 25.2549263,0.0846920698 24.1910488,0.902896151 L12.0532937,10.2395492 L12.0532937,5.52505942 L6.12635491,5.52505942 L6.12635491,14.7969778 L1.53496716,18.3308553 C0.239212053,19.328937 -0.0043389674,21.1897941 0.993742665,22.4850186 C1.57529369,23.2432635 2.45504879,23.6412227 3.34170185,23.6412227 C3.66643654,23.6412227 3.99223246,23.5865696 4.30688552,23.4788553 L25.0867223,6.94497778 C25.4868039,6.62554921 26.0492529,6.62236554 26.4503957,6.93436554 L47.7380284,23.4846921 C48.899008,23.8619574 50.21811,23.5091002 51.0060692,22.4850186 C52.0046814,21.1897941 51.7605998,19.3294676 50.4643141,18.3324472 L50.4643141,18.3324472 Z" id="Shape"></path>
                </g>
            </g>
        </g>
    </g>
</svg>