<?xml version="1.0" encoding="UTF-8" standalone="no"?>
<svg width="122px" height="122px" viewBox="0 0 122 122" version="1.1" xmlns="http://www.w3.org/2000/svg" xmlns:xlink="http://www.w3.org/1999/xlink" xmlns:sketch="http://www.bohemiancoding.com/sketch/ns">
    <!-- Generator: Sketch 3.3.2 (12043) - http://www.bohemiancoding.com/sketch -->
    <title>icon-acessorios copy + Group</title>
    <desc>Created with Sketch.</desc>
    <defs></defs>
    <g id="App-(Flow)" stroke="none" stroke-width="1" fill="none" fill-rule="evenodd" sketch:type="MSPage">
        <g id="New-Product---02" sketch:type="MSArtboardGroup" transform="translate(-54.000000, -264.000000)">
            <g id="icon-acessorios-copy-+-Group" sketch:type="MSLayerGroup" transform="translate(56.000000, 266.000000)">
                <g id="icon-acessorios-copy" stroke-width="3" stroke="#F7D277" sketch:type="MSShapeGroup">
                    <g id="Oval-+-Group">
                        <ellipse id="Oval" cx="59.1124899" cy="59.1124899" rx="59.0356206" ry="59.0356206"></ellipse>
                    </g>
                </g>
                <g id="Group" transform="translate(19.000000, 34.000000)" fill="#F7D277" sketch:type="MSShapeGroup">
                    <g id="Shape">
                        <path d="M67.6012143,34.622359 L67.5997679,34.622359 C66.098375,34.622359 64.640375,34.3064615 63.2677143,33.6832821 L48.1785714,28.2283077 L48.1785714,7.55425641 L67.2598571,1.72594872 C68.0279107,1.49189744 68.7033929,1.41292308 69.36875,1.48758974 C78.5405536,2.52717949 78.5579107,18.0162051 78.5535714,18.6752821 C78.5593571,18.7915897 78.6880893,22.9413333 77.57,27.1011282 C76.3824821,31.5294359 72.2833036,34.622359 67.6012143,34.622359 L67.6012143,34.622359 L67.6012143,34.622359 Z M51.0714286,26.2194872 L64.3641071,31.0283077 C65.4633929,31.5222564 66.5163929,31.7505641 67.5997679,31.7505641 L67.6012143,31.7505641 C70.9742857,31.7505641 73.925,29.5349744 74.7755,26.361641 C75.7822143,22.609641 75.6636071,18.7542564 75.6621607,18.7154872 C75.6607143,18.5230769 75.5406607,5.07733333 69.0418571,4.34071795 C68.7771607,4.312 68.4864286,4.35651282 68.1103571,4.47138462 L51.0714286,9.67507692 L51.0714286,26.2194872 L51.0714286,26.2194872 Z"></path>
                        <path d="M11.4277143,34.6295385 L11.4277143,34.6295385 C6.71525,34.6295385 2.61028571,31.5179487 1.44591071,27.062359 C0.363982143,22.9226667 0.443535714,18.8073846 0.446428571,18.6350769 C0.442089286,18.0162051 0.459446429,2.52717949 9.63125,1.48758974 C10.2980536,1.41292308 10.9720893,1.49189744 11.7401429,1.72594872 L30.8214286,7.55425641 L30.8214286,28.2283077 L15.6700893,33.7277949 C14.3986786,34.3122051 12.9348929,34.6295385 11.4277143,34.6295385 L11.4277143,34.6295385 L11.4277143,34.6295385 Z M10.1129107,4.33353846 C10.0593929,4.33353846 10.0087679,4.33641026 9.95814286,4.34071795 C3.45933929,5.07733333 3.33928571,18.5230769 3.33928571,18.6594872 C3.33783929,18.7355897 3.26841071,22.5995897 4.24619643,26.3415385 C5.07933929,29.5306667 8.03294643,31.7577436 11.4277143,31.7577436 C12.5154286,31.7577436 13.5727679,31.528 14.5708036,31.0742564 L27.9285714,26.2209231 L27.9285714,9.67507692 L10.8896429,4.47138462 C10.5858929,4.37805128 10.3313214,4.33353846 10.1129107,4.33353846 L10.1129107,4.33353846 L10.1129107,4.33353846 Z"></path>
                        <path d="M45.0239107,54.7507692 C44.7765714,54.7507692 44.5248929,54.7177436 44.279,54.6473846 C43.3258036,54.3788718 42.5910179,53.6164103 42.3624821,52.6586667 L38.0868393,33.334359 L40.9131607,32.7169231 L45.1179286,51.7224615 L49.7392679,47.1347692 C50.6852321,46.1942564 52.166375,46.0707692 53.2627679,46.8447179 L59.7022679,51.4123077 L56.8701607,30.3433846 L59.7369821,29.9643077 L62.6124821,51.3606154 C62.7802679,52.4102564 62.2841429,53.4828718 61.3454107,54.0601026 C60.4037857,54.6358974 59.2162679,54.5971282 58.3180357,53.9595897 L51.6905,49.2598974 L46.9592321,53.9552821 C46.4399643,54.4722051 45.7398929,54.7507692 45.0239107,54.7507692"></path>
                        <path d="M32.9910714,54.7507692 C32.2765357,54.7507692 31.5764643,54.4722051 31.05575,53.9567179 L26.3259286,49.2598974 L19.6983929,53.9595897 C18.8016071,54.5971282 17.6126429,54.6358974 16.6710179,54.0601026 C15.7308393,53.4828718 15.2361607,52.4102564 15.4082857,51.3275897 L19.2731429,29.9011282 L22.1197143,30.4065641 L18.3329643,51.3979487 L24.7536607,46.8461538 C25.8486071,46.0707692 27.3283036,46.1942564 28.2757143,47.1362051 L32.908625,51.7339487 L38.10275,32.6508718 L40.89725,33.4004103 L35.6409286,52.7031795 C35.4254107,53.6164103 34.6920714,54.3774359 33.738875,54.6473846 C33.4929821,54.7177436 33.2413036,54.7507692 32.9910714,54.7507692"></path>
                        <path d="M39.5,34.4615385 C33.1198036,34.4615385 27.9285714,29.3081026 27.9285714,22.974359 L27.9285714,11.4871795 C27.9285714,5.1534359 33.1198036,0 39.5,0 C45.8801964,0 51.0714286,5.1534359 51.0714286,11.4871795 L51.0714286,22.974359 C51.0714286,29.3081026 45.8801964,34.4615385 39.5,34.4615385 L39.5,34.4615385 L39.5,34.4615385 Z M39.5,2.87179487 C34.7137679,2.87179487 30.8214286,6.73723077 30.8214286,11.4871795 L30.8214286,22.974359 C30.8214286,27.7243077 34.7137679,31.5897436 39.5,31.5897436 C44.2862321,31.5897436 48.1785714,27.7243077 48.1785714,22.974359 L48.1785714,11.4871795 C48.1785714,6.73723077 44.2862321,2.87179487 39.5,2.87179487 L39.5,2.87179487 L39.5,2.87179487 Z"></path>
                    </g>
                </g>
            </g>
        </g>
    </g>
</svg>